<svg width="1440" height="630" viewBox="0 0 1440 630" fill="none" xmlns="http://www.w3.org/2000/svg">
<g opacity="0.1">
<mask id="mask0_313_5098" style="mask-type:alpha" maskUnits="userSpaceOnUse" x="0" y="0" width="1440" height="630">
<rect width="1440" height="630" fill="#4C6071"/>
</mask>
<g mask="url(#mask0_313_5098)">
<path d="M1407.5 606.6C1407.5 602.1 1411.2 598.4 1415.7 598.4C1420.2 598.4 1423.9 602.1 1423.9 606.6C1423.9 611.1 1420.2 614.8 1415.7 614.8C1411.1 614.8 1407.5 611.1 1407.5 606.6Z" fill="#231F20"/>
<path d="M1361.6 606.6C1361.6 605.3 1362.7 604.2 1364 604.2C1365.3 604.2 1366.4 605.3 1366.4 606.6C1366.4 607.9 1365.3 609 1364 609C1362.7 609 1361.6 607.9 1361.6 606.6Z" fill="#231F20"/>
<path d="M1302.6 606.6C1302.6 601.2 1307 596.8 1312.4 596.8C1317.8 596.8 1322.2 601.2 1322.2 606.6C1322.2 612 1317.8 616.4 1312.4 616.4C1307 616.3 1302.6 612 1302.6 606.6Z" fill="#231F20"/>
<path d="M1256 606.6C1256 604 1258.1 601.8 1260.8 601.8C1263.4 601.8 1265.6 603.9 1265.6 606.6C1265.6 609.2 1263.5 611.4 1260.8 611.4C1258.1 611.3 1256 609.2 1256 606.6Z" fill="#231F20"/>
<path d="M1206.8 606.6C1206.8 605.3 1207.8 604.3 1209.1 604.3C1210.4 604.3 1211.4 605.3 1211.4 606.6C1211.4 607.9 1210.4 608.9 1209.1 608.9C1207.9 608.9 1206.8 607.8 1206.8 606.6Z" fill="#231F20"/>
<path d="M1148.2 606.6C1148.2 601.5 1152.3 597.4 1157.4 597.4C1162.5 597.4 1166.6 601.5 1166.6 606.6C1166.6 611.7 1162.5 615.8 1157.4 615.8C1152.4 615.8 1148.2 611.7 1148.2 606.6Z" fill="#231F20"/>
<path d="M1101.6 606.6C1101.6 604.2 1103.5 602.3 1105.9 602.3C1108.3 602.3 1110.2 604.2 1110.2 606.6C1110.2 609 1108.3 610.9 1105.9 610.9C1103.5 610.8 1101.6 608.9 1101.6 606.6Z" fill="#231F20"/>
<path d="M1053 606.6C1053 606 1053.5 605.4 1054.2 605.4C1054.8 605.4 1055.4 605.9 1055.4 606.6C1055.4 607.2 1054.9 607.8 1054.2 607.8C1053.6 607.8 1053 607.2 1053 606.6Z" fill="#231F20"/>
<path d="M998.8 606.6C998.8 604.5 1000.5 602.8 1002.6 602.8C1004.7 602.8 1006.4 604.5 1006.4 606.6C1006.4 608.7 1004.7 610.4 1002.6 610.4C1000.5 610.4 998.8 608.7 998.8 606.6Z" fill="#231F20"/>
<path d="M949.5 606.6C949.5 605.8 950.1 605.2 950.9 605.2C951.7 605.2 952.3 605.8 952.3 606.6C952.3 607.4 951.7 608 950.9 608C950.1 608 949.5 607.4 949.5 606.6Z" fill="#231F20"/>
<path d="M893.1 606.6C893.1 603.2 895.9 600.4 899.3 600.4C902.7 600.4 905.5 603.2 905.5 606.6C905.5 610 902.7 612.8 899.3 612.8C895.9 612.8 893.1 610 893.1 606.6Z" fill="#231F20"/>
<path d="M846 606.6C846 605.7 846.8 604.9 847.7 604.9C848.6 604.9 849.4 605.7 849.4 606.6C849.4 607.5 848.6 608.3 847.7 608.3C846.7 608.3 846 607.5 846 606.6Z" fill="#231F20"/>
<path d="M787 606.6C787 601.6 791 597.6 796 597.6C801 597.6 805 601.6 805 606.6C805 611.6 801 615.6 796 615.6C791 615.6 787 611.6 787 606.6Z" fill="#231F20"/>
<path d="M738.1 606.6C738.1 603.1 740.9 600.3 744.4 600.3C747.9 600.3 750.7 603.1 750.7 606.6C750.7 610.1 747.9 612.9 744.4 612.9C740.9 612.8 738.1 610 738.1 606.6Z" fill="#231F20"/>
<path d="M688.8 606.6C688.8 604.4 690.6 602.6 692.8 602.6C695 602.6 696.8 604.4 696.8 606.6C696.8 608.8 695 610.6 692.8 610.6C690.6 610.6 688.8 608.8 688.8 606.6Z" fill="#231F20"/>
<path d="M633.7 606.6C633.7 602.5 637 599.2 641.1 599.2C645.2 599.2 648.5 602.5 648.5 606.6C648.5 610.7 645.2 614 641.1 614C637.1 614 633.7 610.7 633.7 606.6Z" fill="#231F20"/>
<path d="M586.7 606.6C586.7 605.1 587.9 603.8 589.5 603.8C591 603.8 592.3 605 592.3 606.6C592.3 608.1 591.1 609.4 589.5 609.4C588 609.4 586.7 608.1 586.7 606.6Z" fill="#231F20"/>
<path d="M530.7 606.6C530.7 602.6 533.9 599.4 537.9 599.4C541.9 599.4 545.1 602.6 545.1 606.6C545.1 610.6 541.9 613.8 537.9 613.8C533.9 613.8 530.7 610.6 530.7 606.6Z" fill="#231F20"/>
<path d="M481.1 606.6C481.1 603.8 483.4 601.5 486.2 601.5C489 601.5 491.3 603.8 491.3 606.6C491.3 609.4 489 611.7 486.2 611.7C483.4 611.7 481.1 609.4 481.1 606.6Z" fill="#231F20"/>
<path d="M425.1 606.6C425.1 601.4 429.4 597.1 434.6 597.1C439.9 597.1 444.1 601.4 444.1 606.6C444.1 611.8 439.9 616.1 434.6 616.1C429.3 616.1 425.1 611.8 425.1 606.6Z" fill="#231F20"/>
<path d="M379.5 606.6C379.5 604.7 381.1 603.1 383 603.1C384.9 603.1 386.5 604.7 386.5 606.6C386.5 608.5 384.9 610.1 383 610.1C381 610.1 379.5 608.5 379.5 606.6Z" fill="#231F20"/>
<path d="M321.9 606.6C321.9 601.4 326.1 597.2 331.3 597.2C336.5 597.2 340.7 601.4 340.7 606.6C340.7 611.8 336.5 616 331.3 616C326.1 616 321.9 611.8 321.9 606.6Z" fill="#231F20"/>
<path d="M272.3 606.6C272.3 602.5 275.6 599.2 279.7 599.2C283.8 599.2 287.1 602.5 287.1 606.6C287.1 610.7 283.8 614 279.7 614C275.6 614 272.3 610.7 272.3 606.6Z" fill="#231F20"/>
<path d="M222.8 606.6C222.8 603.7 225.2 601.3 228.1 601.3C231 601.3 233.4 603.7 233.4 606.6C233.4 609.5 231 611.9 228.1 611.9C225.1 611.9 222.8 609.5 222.8 606.6Z" fill="#231F20"/>
<path d="M175.4 606.6C175.4 606 175.9 605.6 176.4 605.6C177 605.6 177.4 606.1 177.4 606.6C177.4 607.2 176.9 607.6 176.4 607.6C175.9 607.6 175.4 607.1 175.4 606.6Z" fill="#231F20"/>
<path d="M117.4 606.6C117.4 602.5 120.7 599.2 124.8 599.2C128.9 599.2 132.2 602.5 132.2 606.6C132.2 610.7 128.9 614 124.8 614C120.7 614 117.4 610.7 117.4 606.6Z" fill="#231F20"/>
<path d="M67.9001 606.6C67.9001 603.7 70.3001 601.3 73.2001 601.3C76.1001 601.3 78.5001 603.7 78.5001 606.6C78.5001 609.5 76.1001 611.9 73.2001 611.9C70.2001 611.9 67.9001 609.5 67.9001 606.6Z" fill="#231F20"/>
<path d="M12.1001 606.6C12.1001 601.4 16.3001 597.2 21.5001 597.2C26.7001 597.2 30.9001 601.4 30.9001 606.6C30.9001 611.8 26.7001 616 21.5001 616C16.3001 616 12.1001 611.8 12.1001 606.6Z" fill="#231F20"/>
<path d="M1412.8 543.8C1412.8 542.2 1414.1 541 1415.6 541C1417.1 541 1418.4 542.3 1418.4 543.8C1418.4 545.3 1417.1 546.6 1415.6 546.6C1414.1 546.6 1412.8 545.4 1412.8 543.8Z" fill="#231F20"/>
<path d="M1361.4 543.8C1361.4 542.3 1362.6 541.2 1364 541.2C1365.5 541.2 1366.6 542.4 1366.6 543.8C1366.6 545.3 1365.4 546.4 1364 546.4C1362.5 546.5 1361.4 545.3 1361.4 543.8Z" fill="#231F20"/>
<path d="M1305.8 543.8C1305.8 540.1 1308.8 537.2 1312.4 537.2C1316 537.2 1319 540.2 1319 543.8C1319 547.4 1316 550.4 1312.4 550.4C1308.7 550.4 1305.8 547.5 1305.8 543.8Z" fill="#231F20"/>
<path d="M1256.2 543.8C1256.2 541.3 1258.3 539.2 1260.8 539.2C1263.3 539.2 1265.4 541.3 1265.4 543.8C1265.4 546.3 1263.3 548.4 1260.8 548.4C1258.2 548.4 1256.2 546.4 1256.2 543.8Z" fill="#231F20"/>
<path d="M1199.5 543.8C1199.5 538.5 1203.8 534.2 1209.1 534.2C1214.4 534.2 1218.7 538.5 1218.7 543.8C1218.7 549.1 1214.4 553.4 1209.1 553.4C1203.8 553.4 1199.5 549.1 1199.5 543.8Z" fill="#231F20"/>
<path d="M1151.6 543.8C1151.6 540.6 1154.2 538 1157.4 538C1160.6 538 1163.2 540.6 1163.2 543.8C1163.2 547 1160.6 549.6 1157.4 549.6C1154.2 549.7 1151.6 547.1 1151.6 543.8Z" fill="#231F20"/>
<path d="M1104.6 543.8C1104.6 543.1 1105.2 542.5 1105.9 542.5C1106.6 542.5 1107.2 543.1 1107.2 543.8C1107.2 544.5 1106.6 545.1 1105.9 545.1C1105.1 545.1 1104.6 544.5 1104.6 543.8Z" fill="#231F20"/>
<path d="M1044.6 543.8C1044.6 538.5 1048.9 534.2 1054.2 534.2C1059.5 534.2 1063.8 538.5 1063.8 543.8C1063.8 549.1 1059.5 553.4 1054.2 553.4C1048.9 553.4 1044.6 549.1 1044.6 543.8Z" fill="#231F20"/>
<path d="M998.7 543.8C998.7 541.6 1000.4 539.9 1002.6 539.9C1004.8 539.9 1006.5 541.6 1006.5 543.8C1006.5 546 1004.8 547.7 1002.6 547.7C1000.4 547.7 998.7 546 998.7 543.8Z" fill="#231F20"/>
<path d="M945 543.8C945 540.5 947.7 537.8 951 537.8C954.3 537.8 957 540.5 957 543.8C957 547.1 954.3 549.8 951 549.8C947.6 549.8 945 547.1 945 543.8Z" fill="#231F20"/>
<path d="M897.2 543.8C897.2 542.6 898.2 541.7 899.3 541.7C900.5 541.7 901.4 542.7 901.4 543.8C901.4 545 900.4 545.9 899.3 545.9C898.1 546 897.2 545 897.2 543.8Z" fill="#231F20"/>
<path d="M844.3 543.8C844.3 542 845.8 540.5 847.6 540.5C849.4 540.5 850.9 542 850.9 543.8C850.9 545.6 849.4 547.1 847.6 547.1C845.8 547.2 844.3 545.7 844.3 543.8Z" fill="#231F20"/>
<path d="M786.6 543.8C786.6 538.6 790.8 534.3 796.1 534.3C801.3 534.3 805.6 538.5 805.6 543.8C805.6 549 801.4 553.3 796.1 553.3C790.8 553.3 786.6 549 786.6 543.8Z" fill="#231F20"/>
<path d="M741.5 543.8C741.5 542.2 742.8 540.9 744.4 540.9C746 540.9 747.3 542.2 747.3 543.8C747.3 545.4 746 546.7 744.4 546.7C742.8 546.7 741.5 545.4 741.5 543.8Z" fill="#231F20"/>
<path d="M683.4 543.8C683.4 538.6 687.6 534.4 692.8 534.4C698 534.4 702.1 538.6 702.1 543.8C702.1 549 697.9 553.2 692.8 553.2C687.6 553.2 683.4 549 683.4 543.8Z" fill="#231F20"/>
<path d="M634.9 543.8C634.9 540.4 637.7 537.6 641.1 537.6C644.5 537.6 647.3 540.4 647.3 543.8C647.3 547.2 644.5 550 641.1 550C637.7 550.1 634.9 547.3 634.9 543.8Z" fill="#231F20"/>
<path d="M585.5 543.8C585.5 541.6 587.3 539.8 589.5 539.8C591.7 539.8 593.5 541.6 593.5 543.8C593.5 546 591.7 547.8 589.5 547.8C587.3 547.8 585.5 546 585.5 543.8Z" fill="#231F20"/>
<path d="M529.6 543.8C529.6 539.3 533.3 535.6 537.8 535.6C542.3 535.6 546 539.3 546 543.8C546 548.3 542.3 552 537.8 552C533.3 552 529.6 548.4 529.6 543.8Z" fill="#231F20"/>
<path d="M482.3 543.8C482.3 541.7 484 539.9 486.2 539.9C488.3 539.9 490.1 541.6 490.1 543.8C490.1 545.9 488.4 547.7 486.2 547.7C484.1 547.7 482.3 546 482.3 543.8Z" fill="#231F20"/>
<path d="M430.1 543.8C430.1 541.3 432.1 539.3 434.6 539.3C437.1 539.3 439.1 541.3 439.1 543.8C439.1 546.3 437.1 548.3 434.6 548.3C432.1 548.3 430.1 546.3 430.1 543.8Z" fill="#231F20"/>
<path d="M375.9 543.8C375.9 539.9 379.1 536.7 383 536.7C386.9 536.7 390.1 539.9 390.1 543.8C390.1 547.7 386.9 550.9 383 550.9C379.1 550.9 375.9 547.7 375.9 543.8Z" fill="#231F20"/>
<path d="M323.7 543.8C323.7 539.6 327.1 536.2 331.3 536.2C335.5 536.2 338.9 539.6 338.9 543.8C338.9 548 335.5 551.4 331.3 551.4C327.1 551.4 323.7 548 323.7 543.8Z" fill="#231F20"/>
<path d="M274.9 543.8C274.9 541.2 277 539 279.7 539C282.3 539 284.5 541.1 284.5 543.8C284.5 546.4 282.3 548.6 279.7 548.6C277.1 548.6 274.9 546.5 274.9 543.8Z" fill="#231F20"/>
<path d="M219.2 543.8C219.2 538.9 223.2 534.9 228.1 534.9C233 534.9 237 538.9 237 543.8C237 548.7 233 552.7 228.1 552.7C223.2 552.7 219.2 548.7 219.2 543.8Z" fill="#231F20"/>
<path d="M169.6 543.8C169.6 540 172.7 537 176.4 537C180.2 537 183.2 540.1 183.2 543.8C183.2 547.6 180.1 550.6 176.4 550.6C172.6 550.7 169.6 547.6 169.6 543.8Z" fill="#231F20"/>
<path d="M119.1 543.8C119.1 540.7 121.6 538.1 124.8 538.1C127.9 538.1 130.5 540.7 130.5 543.8C130.5 546.9 127.9 549.5 124.8 549.5C121.6 549.5 119.1 547 119.1 543.8Z" fill="#231F20"/>
<path d="M64.8001 543.8C64.8001 539.2 68.5001 535.5 73.1001 535.5C77.7001 535.5 81.4001 539.2 81.4001 543.8C81.4001 548.4 77.7001 552.1 73.1001 552.1C68.6001 552.1 64.8001 548.4 64.8001 543.8Z" fill="#231F20"/>
<path d="M15.4001 543.8C15.4001 540.4 18.2001 537.6 21.6001 537.6C25.0001 537.6 27.8001 540.4 27.8001 543.8C27.8001 547.2 25.1001 550 21.6001 550C18.1001 550 15.4001 547.2 15.4001 543.8Z" fill="#231F20"/>
<path d="M1405.9 481.1C1405.9 475.7 1410.3 471.3 1415.7 471.3C1421.1 471.3 1425.5 475.7 1425.5 481.1C1425.5 486.5 1421.1 490.9 1415.7 490.9C1410.2 490.9 1405.9 486.5 1405.9 481.1Z" fill="#231F20"/>
<path d="M1362.6 481.1C1362.6 480.3 1363.2 479.7 1364 479.7C1364.8 479.7 1365.4 480.3 1365.4 481.1C1365.4 481.9 1364.8 482.5 1364 482.5C1363.3 482.4 1362.6 481.8 1362.6 481.1Z" fill="#231F20"/>
<path d="M1309 481.1C1309 479.2 1310.5 477.7 1312.4 477.7C1314.3 477.7 1315.8 479.2 1315.8 481.1C1315.8 483 1314.3 484.5 1312.4 484.5C1310.5 484.5 1309 482.9 1309 481.1Z" fill="#231F20"/>
<path d="M1253 481.1C1253 476.8 1256.5 473.4 1260.7 473.4C1265 473.4 1268.4 476.9 1268.4 481.1C1268.4 485.4 1264.9 488.8 1260.7 488.8C1256.5 488.8 1253 485.3 1253 481.1Z" fill="#231F20"/>
<path d="M1200.5 481.1C1200.5 476.3 1204.3 472.5 1209.1 472.5C1213.9 472.5 1217.7 476.4 1217.7 481.1C1217.7 485.9 1213.8 489.7 1209.1 489.7C1204.3 489.7 1200.5 485.8 1200.5 481.1Z" fill="#231F20"/>
<path d="M1151.1 481.1C1151.1 477.6 1154 474.7 1157.5 474.7C1161 474.7 1163.9 477.6 1163.9 481.1C1163.9 484.6 1161 487.5 1157.5 487.5C1153.9 487.5 1151.1 484.6 1151.1 481.1Z" fill="#231F20"/>
<path d="M1100.5 481.1C1100.5 478.1 1102.9 475.7 1105.9 475.7C1108.9 475.7 1111.3 478.1 1111.3 481.1C1111.3 484.1 1108.9 486.5 1105.9 486.5C1102.9 486.4 1100.5 484 1100.5 481.1Z" fill="#231F20"/>
<path d="M1049.5 481.1C1049.5 478.5 1051.6 476.4 1054.2 476.4C1056.8 476.4 1058.9 478.5 1058.9 481.1C1058.9 483.7 1056.8 485.8 1054.2 485.8C1051.6 485.8 1049.5 483.7 1049.5 481.1Z" fill="#231F20"/>
<path d="M997.5 481.1C997.5 478.3 999.8 476 1002.6 476C1005.4 476 1007.7 478.3 1007.7 481.1C1007.7 483.9 1005.4 486.2 1002.6 486.2C999.8 486.1 997.5 483.9 997.5 481.1Z" fill="#231F20"/>
<path d="M949.5 481.1C949.5 480.3 950.1 479.7 950.9 479.7C951.7 479.7 952.3 480.3 952.3 481.1C952.3 481.9 951.7 482.5 950.9 482.5C950.2 482.5 949.5 481.9 949.5 481.1Z" fill="#231F20"/>
<path d="M895.4 481.1C895.4 478.9 897.2 477.2 899.3 477.2C901.5 477.2 903.2 479 903.2 481.1C903.2 483.3 901.4 485 899.3 485C897.1 485 895.4 483.2 895.4 481.1Z" fill="#231F20"/>
<path d="M838.2 481.1C838.2 475.9 842.4 471.6 847.7 471.6C852.9 471.6 857.2 475.8 857.2 481.1C857.2 486.3 853 490.6 847.7 490.6C842.4 490.5 838.2 486.3 838.2 481.1Z" fill="#231F20"/>
<path d="M795 481.1C795 480.5 795.5 480.1 796 480.1C796.6 480.1 797 480.6 797 481.1C797 481.7 796.5 482.1 796 482.1C795.5 482.1 795 481.6 795 481.1Z" fill="#231F20"/>
<path d="M734.6 481.1C734.6 475.7 739 471.3 744.4 471.3C749.8 471.3 754.2 475.7 754.2 481.1C754.2 486.5 749.8 490.9 744.4 490.9C739 490.8 734.6 486.5 734.6 481.1Z" fill="#231F20"/>
<path d="M691 481.1C691 480.1 691.8 479.4 692.7 479.4C693.7 479.4 694.4 480.2 694.4 481.1C694.4 482 693.6 482.8 692.7 482.8C691.8 482.8 691 482 691 481.1Z" fill="#231F20"/>
<path d="M637.2 481.1C637.2 478.9 639 477.2 641.1 477.2C643.3 477.2 645 479 645 481.1C645 483.3 643.3 485 641.1 485C639 485 637.2 483.2 637.2 481.1Z" fill="#231F20"/>
<path d="M586.6 481.1C586.6 479.5 587.9 478.2 589.5 478.2C591.1 478.2 592.4 479.5 592.4 481.1C592.4 482.7 591.1 484 589.5 484C587.9 484 586.6 482.7 586.6 481.1Z" fill="#231F20"/>
<path d="M536.7 481.1C536.7 480.4 537.2 479.9 537.9 479.9C538.6 479.9 539.1 480.4 539.1 481.1C539.1 481.8 538.6 482.3 537.9 482.3C537.2 482.3 536.7 481.7 536.7 481.1Z" fill="#231F20"/>
<path d="M483.6 481.1C483.6 479.6 484.8 478.5 486.2 478.5C487.7 478.5 488.8 479.7 488.8 481.1C488.8 482.6 487.6 483.7 486.2 483.7C484.8 483.7 483.6 482.5 483.6 481.1Z" fill="#231F20"/>
<path d="M430.8 481.1C430.8 479 432.5 477.3 434.6 477.3C436.7 477.3 438.4 479 438.4 481.1C438.4 483.2 436.7 484.9 434.6 484.9C432.5 484.8 430.8 483.1 430.8 481.1Z" fill="#231F20"/>
<path d="M374.3 481.1C374.3 476.3 378.2 472.4 383 472.4C387.8 472.4 391.7 476.3 391.7 481.1C391.7 485.9 387.8 489.8 383 489.8C378.2 489.7 374.3 485.8 374.3 481.1Z" fill="#231F20"/>
<path d="M324.5 481.1C324.5 477.3 327.6 474.2 331.4 474.2C335.2 474.2 338.3 477.3 338.3 481.1C338.3 484.9 335.2 488 331.4 488C327.5 487.9 324.5 484.9 324.5 481.1Z" fill="#231F20"/>
<path d="M273.6 481.1C273.6 477.8 276.3 475 279.6 475C283 475 285.7 477.7 285.7 481.1C285.7 484.4 283 487.1 279.6 487.1C276.3 487.1 273.6 484.4 273.6 481.1Z" fill="#231F20"/>
<path d="M220.2 481.1C220.2 476.8 223.7 473.3 228 473.3C232.3 473.3 235.8 476.8 235.8 481.1C235.8 485.4 232.3 488.9 228 488.9C223.7 488.9 220.2 485.4 220.2 481.1Z" fill="#231F20"/>
<path d="M173.6 481.1C173.6 479.6 174.9 478.3 176.4 478.3C177.9 478.3 179.2 479.5 179.2 481.1C179.2 482.6 177.9 483.9 176.4 483.9C174.9 483.9 173.6 482.6 173.6 481.1Z" fill="#231F20"/>
<path d="M115.2 481.1C115.2 475.8 119.5 471.5 124.8 471.5C130.1 471.5 134.4 475.8 134.4 481.1C134.4 486.4 130.1 490.7 124.8 490.7C119.5 490.7 115.2 486.4 115.2 481.1Z" fill="#231F20"/>
<path d="M64.5001 481.1C64.5001 476.3 68.4001 472.4 73.2001 472.4C78.0001 472.4 81.9001 476.3 81.9001 481.1C81.9001 485.9 78.0001 489.8 73.2001 489.8C68.4001 489.7 64.5001 485.9 64.5001 481.1Z" fill="#231F20"/>
<path d="M12.6001 481.1C12.6001 476.2 16.6001 472.2 21.5001 472.2C26.4001 472.2 30.4001 476.2 30.4001 481.1C30.4001 486 26.4001 490 21.5001 490C16.6001 489.9 12.6001 486 12.6001 481.1Z" fill="#231F20"/>
<path d="M1412.2 418.3C1412.2 416.4 1413.8 414.8 1415.7 414.8C1417.6 414.8 1419.2 416.4 1419.2 418.3C1419.2 420.2 1417.6 421.8 1415.7 421.8C1413.7 421.8 1412.2 420.2 1412.2 418.3Z" fill="#231F20"/>
<path d="M1357.8 418.3C1357.8 414.9 1360.6 412.1 1364 412.1C1367.4 412.1 1370.2 414.9 1370.2 418.3C1370.2 421.7 1367.4 424.5 1364 424.5C1360.6 424.5 1357.8 421.7 1357.8 418.3Z" fill="#231F20"/>
<path d="M1305.6 418.3C1305.6 414.5 1308.7 411.5 1312.4 411.5C1316.2 411.5 1319.2 414.5 1319.2 418.3C1319.2 422.1 1316.1 425.1 1312.4 425.1C1308.6 425.1 1305.6 422.1 1305.6 418.3Z" fill="#231F20"/>
<path d="M1251.8 418.3C1251.8 413.4 1255.8 409.3 1260.8 409.3C1265.7 409.3 1269.8 413.3 1269.8 418.3C1269.8 423.2 1265.8 427.3 1260.8 427.3C1255.8 427.3 1251.8 423.2 1251.8 418.3Z" fill="#231F20"/>
<path d="M1205.9 418.3C1205.9 416.5 1207.3 415.1 1209.1 415.1C1210.9 415.1 1212.3 416.5 1212.3 418.3C1212.3 420.1 1210.9 421.5 1209.1 421.5C1207.3 421.5 1205.9 420.1 1205.9 418.3Z" fill="#231F20"/>
<path d="M1155.3 418.3C1155.3 417.1 1156.3 416.1 1157.5 416.1C1158.7 416.1 1159.7 417.1 1159.7 418.3C1159.7 419.5 1158.7 420.5 1157.5 420.5C1156.3 420.5 1155.3 419.5 1155.3 418.3Z" fill="#231F20"/>
<path d="M1102.8 418.3C1102.8 416.6 1104.1 415.3 1105.8 415.3C1107.5 415.3 1108.8 416.6 1108.8 418.3C1108.8 419.9 1107.5 421.3 1105.8 421.3C1104.2 421.3 1102.8 419.9 1102.8 418.3Z" fill="#231F20"/>
<path d="M1049.8 418.3C1049.8 415.9 1051.8 413.9 1054.2 413.9C1056.6 413.9 1058.6 415.9 1058.6 418.3C1058.6 420.7 1056.6 422.7 1054.2 422.7C1051.8 422.7 1049.8 420.7 1049.8 418.3Z" fill="#231F20"/>
<path d="M998.2 418.3C998.2 415.9 1000.2 413.9 1002.6 413.9C1005 413.9 1007 415.9 1007 418.3C1007 420.7 1005 422.7 1002.6 422.7C1000.2 422.7 998.2 420.7 998.2 418.3Z" fill="#231F20"/>
<path d="M945.2 418.3C945.2 415.1 947.8 412.5 951 412.5C954.2 412.5 956.8 415.1 956.8 418.3C956.8 421.5 954.2 424.1 951 424.1C947.8 424.1 945.2 421.5 945.2 418.3Z" fill="#231F20"/>
<path d="M892.6 418.3C892.6 414.6 895.6 411.6 899.3 411.6C903 411.6 906 414.6 906 418.3C906 422 903 425 899.3 425C895.6 425 892.6 422 892.6 418.3Z" fill="#231F20"/>
<path d="M843.4 418.3C843.4 415.9 845.3 414 847.7 414C850.1 414 852 415.9 852 418.3C852 420.7 850.1 422.6 847.7 422.6C845.3 422.6 843.4 420.7 843.4 418.3Z" fill="#231F20"/>
<path d="M794.6 418.3C794.6 417.5 795.3 416.8 796.1 416.8C796.9 416.8 797.6 417.5 797.6 418.3C797.6 419.1 796.9 419.8 796.1 419.8C795.2 419.8 794.6 419.1 794.6 418.3Z" fill="#231F20"/>
<path d="M738.4 418.3C738.4 415 741.1 412.3 744.4 412.3C747.7 412.3 750.4 415 750.4 418.3C750.4 421.6 747.7 424.3 744.4 424.3C741.1 424.3 738.4 421.6 738.4 418.3Z" fill="#231F20"/>
<path d="M688.8 418.3C688.8 416.1 690.6 414.4 692.7 414.4C694.9 414.4 696.6 416.2 696.6 418.3C696.6 420.5 694.9 422.2 692.7 422.2C690.6 422.2 688.8 420.5 688.8 418.3Z" fill="#231F20"/>
<path d="M640.1 418.3C640.1 417.7 640.6 417.2 641.2 417.2C641.8 417.2 642.3 417.7 642.3 418.3C642.3 418.9 641.8 419.4 641.2 419.4C640.5 419.4 640.1 418.9 640.1 418.3Z" fill="#231F20"/>
<path d="M583.9 418.3C583.9 415.2 586.4 412.7 589.5 412.7C592.6 412.7 595.1 415.2 595.1 418.3C595.1 421.4 592.6 423.9 589.5 423.9C586.4 423.9 583.9 421.4 583.9 418.3Z" fill="#231F20"/>
<path d="M531.1 418.3C531.1 414.6 534.1 411.5 537.9 411.5C541.6 411.5 544.7 414.5 544.7 418.3C544.7 422 541.7 425.1 537.9 425.1C534.1 425.1 531.1 422 531.1 418.3Z" fill="#231F20"/>
<path d="M477.3 418.3C477.3 413.4 481.3 409.4 486.2 409.4C491.1 409.4 495.1 413.4 495.1 418.3C495.1 423.2 491.1 427.2 486.2 427.2C481.3 427.2 477.3 423.2 477.3 418.3Z" fill="#231F20"/>
<path d="M426 418.3C426 413.6 429.8 409.7 434.6 409.7C439.3 409.7 443.2 413.5 443.2 418.3C443.2 423 439.4 426.9 434.6 426.9C429.9 426.9 426 423 426 418.3Z" fill="#231F20"/>
<path d="M373.3 418.3C373.3 413 377.6 408.7 382.9 408.7C388.2 408.7 392.5 413 392.5 418.3C392.5 423.6 388.2 427.9 382.9 427.9C377.6 427.9 373.3 423.6 373.3 418.3Z" fill="#231F20"/>
<path d="M324 418.3C324 414.3 327.3 411 331.3 411C335.3 411 338.6 414.3 338.6 418.3C338.6 422.3 335.3 425.6 331.3 425.6C327.3 425.6 324 422.3 324 418.3Z" fill="#231F20"/>
<path d="M276.1 418.3C276.1 416.3 277.7 414.7 279.7 414.7C281.7 414.7 283.3 416.3 283.3 418.3C283.3 420.3 281.7 421.9 279.7 421.9C277.7 421.9 276.1 420.3 276.1 418.3Z" fill="#231F20"/>
<path d="M224.7 418.3C224.7 416.4 226.2 414.9 228.1 414.9C230 414.9 231.5 416.4 231.5 418.3C231.5 420.2 230 421.7 228.1 421.7C226.2 421.7 224.7 420.2 224.7 418.3Z" fill="#231F20"/>
<path d="M174.8 418.3C174.8 417.4 175.5 416.7 176.4 416.7C177.3 416.7 178 417.4 178 418.3C178 419.2 177.3 419.9 176.4 419.9C175.5 419.9 174.8 419.2 174.8 418.3Z" fill="#231F20"/>
<path d="M115 418.3C115 412.9 119.4 408.5 124.8 408.5C130.2 408.5 134.6 412.9 134.6 418.3C134.6 423.7 130.2 428.1 124.8 428.1C119.4 428.1 115 423.7 115 418.3Z" fill="#231F20"/>
<path d="M64.0001 418.3C64.0001 413.2 68.1001 409.1 73.2001 409.1C78.3001 409.1 82.4001 413.2 82.4001 418.3C82.4001 423.4 78.3001 427.5 73.2001 427.5C68.1001 427.5 64.0001 423.4 64.0001 418.3Z" fill="#231F20"/>
<path d="M12.4001 418.3C12.4001 413.3 16.5001 409.2 21.5001 409.2C26.5001 409.2 30.6001 413.3 30.6001 418.3C30.6001 423.3 26.5001 427.4 21.5001 427.4C16.5001 427.4 12.4001 423.3 12.4001 418.3Z" fill="#231F20"/>
<path d="M1408.5 355.5C1408.5 351.5 1411.7 348.3 1415.7 348.3C1419.7 348.3 1422.9 351.5 1422.9 355.5C1422.9 359.5 1419.7 362.7 1415.7 362.7C1411.7 362.7 1408.5 359.5 1408.5 355.5Z" fill="#231F20"/>
<path d="M1360.8 355.5C1360.8 353.7 1362.2 352.3 1364 352.3C1365.8 352.3 1367.2 353.7 1367.2 355.5C1367.2 357.3 1365.7 358.7 1364 358.7C1362.2 358.8 1360.8 357.3 1360.8 355.5Z" fill="#231F20"/>
<path d="M1310.2 355.5C1310.2 354.3 1311.2 353.3 1312.4 353.3C1313.6 353.3 1314.6 354.3 1314.6 355.5C1314.6 356.7 1313.6 357.7 1312.4 357.7C1311.2 357.7 1310.2 356.7 1310.2 355.5Z" fill="#231F20"/>
<path d="M1259.1 355.5C1259.1 354.6 1259.8 353.9 1260.7 353.9C1261.6 353.9 1262.3 354.6 1262.3 355.5C1262.3 356.4 1261.6 357.1 1260.7 357.1C1259.8 357.2 1259.1 356.4 1259.1 355.5Z" fill="#231F20"/>
<path d="M1200.1 355.5C1200.1 350.5 1204.1 346.5 1209.1 346.5C1214.1 346.5 1218.1 350.5 1218.1 355.5C1218.1 360.5 1214.1 364.5 1209.1 364.5C1204.2 364.5 1200.1 360.5 1200.1 355.5Z" fill="#231F20"/>
<path d="M1152.7 355.5C1152.7 352.8 1154.9 350.7 1157.5 350.7C1160.2 350.7 1162.3 352.9 1162.3 355.5C1162.3 358.2 1160.1 360.3 1157.5 360.3C1154.8 360.3 1152.7 358.2 1152.7 355.5Z" fill="#231F20"/>
<path d="M1102.8 355.5C1102.8 353.8 1104.2 352.4 1105.9 352.4C1107.6 352.4 1109 353.8 1109 355.5C1109 357.2 1107.6 358.6 1105.9 358.6C1104.1 358.6 1102.8 357.2 1102.8 355.5Z" fill="#231F20"/>
<path d="M1049.5 355.5C1049.5 352.9 1051.6 350.8 1054.2 350.8C1056.8 350.8 1058.9 352.9 1058.9 355.5C1058.9 358.1 1056.8 360.2 1054.2 360.2C1051.6 360.3 1049.5 358.1 1049.5 355.5Z" fill="#231F20"/>
<path d="M999.8 355.5C999.8 354 1001 352.8 1002.5 352.8C1004 352.8 1005.2 354 1005.2 355.5C1005.2 357 1004 358.2 1002.5 358.2C1001.1 358.3 999.8 357 999.8 355.5Z" fill="#231F20"/>
<path d="M944.5 355.5C944.5 352 947.4 349.1 950.9 349.1C954.4 349.1 957.3 352 957.3 355.5C957.3 359 954.4 361.9 950.9 361.9C947.4 361.9 944.5 359.1 944.5 355.5Z" fill="#231F20"/>
<path d="M891.2 355.5C891.2 351 894.8 347.4 899.3 347.4C903.8 347.4 907.4 351 907.4 355.5C907.4 360 903.8 363.6 899.3 363.6C894.8 363.7 891.2 360 891.2 355.5Z" fill="#231F20"/>
<path d="M838.3 355.5C838.3 350.3 842.5 346.1 847.7 346.1C852.9 346.1 857.1 350.3 857.1 355.5C857.1 360.7 852.9 364.9 847.7 364.9C842.5 364.9 838.3 360.7 838.3 355.5Z" fill="#231F20"/>
<path d="M791.4 355.5C791.4 353 793.5 350.9 796 350.9C798.5 350.9 800.6 353 800.6 355.5C800.6 358 798.5 360.1 796 360.1C793.5 360.1 791.4 358.1 791.4 355.5Z" fill="#231F20"/>
<path d="M738.8 355.5C738.8 352.4 741.3 349.9 744.4 349.9C747.5 349.9 750 352.4 750 355.5C750 358.6 747.5 361.1 744.4 361.1C741.3 361.1 738.8 358.6 738.8 355.5Z" fill="#231F20"/>
<path d="M688.8 355.5C688.8 353.3 690.6 351.6 692.7 351.6C694.9 351.6 696.6 353.4 696.6 355.5C696.6 357.7 694.8 359.4 692.7 359.4C690.6 359.5 688.8 357.7 688.8 355.5Z" fill="#231F20"/>
<path d="M638 355.5C638 353.8 639.4 352.4 641.1 352.4C642.8 352.4 644.2 353.8 644.2 355.5C644.2 357.2 642.8 358.6 641.1 358.6C639.4 358.7 638 357.3 638 355.5Z" fill="#231F20"/>
<path d="M583.7 355.5C583.7 352.3 586.3 349.7 589.4 349.7C592.6 349.7 595.1 352.3 595.1 355.5C595.1 358.7 592.5 361.2 589.4 361.2C586.3 361.3 583.7 358.7 583.7 355.5Z" fill="#231F20"/>
<path d="M529.3 355.5C529.3 350.8 533.1 347 537.9 347C542.6 347 546.4 350.8 546.4 355.5C546.4 360.2 542.6 364 537.9 364C533.1 364.1 529.3 360.3 529.3 355.5Z" fill="#231F20"/>
<path d="M480.6 355.5C480.6 352.4 483.1 349.9 486.2 349.9C489.3 349.9 491.8 352.4 491.8 355.5C491.8 358.6 489.3 361.1 486.2 361.1C483.1 361.2 480.6 358.6 480.6 355.5Z" fill="#231F20"/>
<path d="M432.8 355.5C432.8 354.5 433.6 353.7 434.6 353.7C435.6 353.7 436.4 354.5 436.4 355.5C436.4 356.5 435.6 357.3 434.6 357.3C433.6 357.3 432.8 356.5 432.8 355.5Z" fill="#231F20"/>
<path d="M381.2 355.5C381.2 354.5 382 353.7 383 353.7C384 353.7 384.8 354.5 384.8 355.5C384.8 356.5 384 357.3 383 357.3C382 357.3 381.2 356.5 381.2 355.5Z" fill="#231F20"/>
<path d="M329.1 355.5C329.1 354.3 330.1 353.3 331.3 353.3C332.5 353.3 333.5 354.3 333.5 355.5C333.5 356.7 332.5 357.7 331.3 357.7C330.1 357.7 329.1 356.8 329.1 355.5Z" fill="#231F20"/>
<path d="M274.1 355.5C274.1 352.4 276.6 349.9 279.7 349.9C282.8 349.9 285.3 352.4 285.3 355.5C285.3 358.6 282.8 361.1 279.7 361.1C276.6 361.2 274.1 358.7 274.1 355.5Z" fill="#231F20"/>
<path d="M222.8 355.5C222.8 352.6 225.1 350.3 228 350.3C230.9 350.3 233.2 352.6 233.2 355.5C233.2 358.4 230.9 360.7 228 360.7C225.2 360.8 222.8 358.4 222.8 355.5Z" fill="#231F20"/>
<path d="M168.5 355.5C168.5 351.1 172 347.6 176.4 347.6C180.8 347.6 184.3 351.1 184.3 355.5C184.3 359.9 180.8 363.4 176.4 363.4C172.1 363.5 168.5 359.9 168.5 355.5Z" fill="#231F20"/>
<path d="M118 355.5C118 351.7 121 348.7 124.8 348.7C128.6 348.7 131.6 351.7 131.6 355.5C131.6 359.3 128.6 362.3 124.8 362.3C121 362.3 118 359.3 118 355.5Z" fill="#231F20"/>
<path d="M70.6001 355.5C70.6001 354.1 71.7001 353 73.1001 353C74.5001 353 75.6001 354.1 75.6001 355.5C75.6001 356.9 74.5001 358 73.1001 358C71.8001 358.1 70.6001 356.9 70.6001 355.5Z" fill="#231F20"/>
<path d="M14.4001 355.5C14.4001 351.5 17.6001 348.3 21.6001 348.3C25.5001 348.3 28.8001 351.5 28.8001 355.5C28.8001 359.4 25.6001 362.7 21.6001 362.7C17.6001 362.7 14.4001 359.5 14.4001 355.5Z" fill="#231F20"/>
<path d="M1407.7 292.8C1407.7 288.4 1411.2 284.9 1415.6 284.9C1420 284.9 1423.5 288.4 1423.5 292.8C1423.5 297.2 1420 300.7 1415.6 300.7C1411.3 300.7 1407.7 297.1 1407.7 292.8Z" fill="#231F20"/>
<path d="M1358.7 292.8C1358.7 289.9 1361.1 287.5 1364 287.5C1366.9 287.5 1369.3 289.9 1369.3 292.8C1369.3 295.7 1366.9 298.1 1364 298.1C1361.1 298.1 1358.7 295.7 1358.7 292.8Z" fill="#231F20"/>
<path d="M1308.7 292.8C1308.7 290.8 1310.3 289.2 1312.3 289.2C1314.3 289.2 1315.9 290.8 1315.9 292.8C1315.9 294.8 1314.3 296.4 1312.3 296.4C1310.4 296.4 1308.7 294.8 1308.7 292.8Z" fill="#231F20"/>
<path d="M1256.6 292.8C1256.6 290.5 1258.4 288.7 1260.7 288.7C1263 288.7 1264.8 290.5 1264.8 292.8C1264.8 295.1 1263 296.9 1260.7 296.9C1258.5 296.9 1256.6 295 1256.6 292.8Z" fill="#231F20"/>
<path d="M1206.6 292.8C1206.6 291.4 1207.7 290.2 1209.2 290.2C1210.6 290.2 1211.8 291.3 1211.8 292.8C1211.8 294.2 1210.7 295.4 1209.2 295.4C1207.7 295.3 1206.6 294.2 1206.6 292.8Z" fill="#231F20"/>
<path d="M1148.5 292.8C1148.5 287.9 1152.5 283.9 1157.4 283.9C1162.3 283.9 1166.3 287.9 1166.3 292.8C1166.3 297.7 1162.3 301.7 1157.4 301.7C1152.5 301.7 1148.5 297.7 1148.5 292.8Z" fill="#231F20"/>
<path d="M1101.2 292.8C1101.2 290.3 1103.3 288.2 1105.8 288.2C1108.3 288.2 1110.4 290.3 1110.4 292.8C1110.4 295.3 1108.3 297.4 1105.8 297.4C1103.3 297.4 1101.2 295.3 1101.2 292.8Z" fill="#231F20"/>
<path d="M1046.8 292.8C1046.8 288.7 1050.1 285.4 1054.2 285.4C1058.3 285.4 1061.6 288.7 1061.6 292.8C1061.6 296.9 1058.3 300.2 1054.2 300.2C1050.1 300.1 1046.8 296.8 1046.8 292.8Z" fill="#231F20"/>
<path d="M995 292.8C995 288.6 998.4 285.2 1002.6 285.2C1006.8 285.2 1010.2 288.6 1010.2 292.8C1010.2 297 1006.8 300.4 1002.6 300.4C998.4 300.4 995 297 995 292.8Z" fill="#231F20"/>
<path d="M946.5 292.8C946.5 290.4 948.5 288.4 950.9 288.4C953.4 288.4 955.3 290.4 955.3 292.8C955.3 295.2 953.3 297.2 950.9 297.2C948.5 297.2 946.5 295.2 946.5 292.8Z" fill="#231F20"/>
<path d="M892.5 292.8C892.5 289 895.6 286 899.3 286C903.1 286 906.1 289.1 906.1 292.8C906.1 296.6 903 299.6 899.3 299.6C895.5 299.6 892.5 296.6 892.5 292.8Z" fill="#231F20"/>
<path d="M843 292.8C843 290.2 845.1 288.1 847.7 288.1C850.3 288.1 852.4 290.2 852.4 292.8C852.4 295.4 850.3 297.5 847.7 297.5C845.1 297.4 843 295.4 843 292.8Z" fill="#231F20"/>
<path d="M789.5 292.8C789.5 289.2 792.4 286.2 796.1 286.2C799.7 286.2 802.7 289.1 802.7 292.8C802.7 296.4 799.8 299.4 796.1 299.4C792.4 299.3 789.5 296.4 789.5 292.8Z" fill="#231F20"/>
<path d="M738 292.8C738 289.2 740.9 286.4 744.4 286.4C748 286.4 750.8 289.3 750.8 292.8C750.8 296.4 747.9 299.2 744.4 299.2C740.8 299.2 738 296.3 738 292.8Z" fill="#231F20"/>
<path d="M683.8 292.8C683.8 287.9 687.8 283.9 692.7 283.9C697.6 283.9 701.6 287.9 701.6 292.8C701.6 297.7 697.6 301.7 692.7 301.7C687.8 301.7 683.8 297.7 683.8 292.8Z" fill="#231F20"/>
<path d="M636 292.8C636 289.9 638.3 287.6 641.2 287.6C644.1 287.6 646.4 289.9 646.4 292.8C646.4 295.7 644.1 298 641.2 298C638.3 298 636 295.6 636 292.8Z" fill="#231F20"/>
<path d="M586.8 292.8C586.8 291.3 588 290.1 589.5 290.1C591 290.1 592.2 291.3 592.2 292.8C592.2 294.3 591 295.5 589.5 295.5C588 295.5 586.8 294.3 586.8 292.8Z" fill="#231F20"/>
<path d="M532.5 292.8C532.5 289.9 534.9 287.5 537.8 287.5C540.7 287.5 543.1 289.9 543.1 292.8C543.1 295.7 540.7 298.1 537.8 298.1C534.9 298.1 532.5 295.7 532.5 292.8Z" fill="#231F20"/>
<path d="M483 292.8C483 291 484.5 289.5 486.3 289.5C488.1 289.5 489.6 291 489.6 292.8C489.6 294.6 488.1 296.1 486.3 296.1C484.4 296 483 294.6 483 292.8Z" fill="#231F20"/>
<path d="M428.8 292.8C428.8 289.6 431.4 287 434.6 287C437.8 287 440.4 289.6 440.4 292.8C440.4 296 437.8 298.6 434.6 298.6C431.4 298.6 428.8 296 428.8 292.8Z" fill="#231F20"/>
<path d="M376.1 292.8C376.1 289 379.2 285.9 383 285.9C386.8 285.9 389.9 289 389.9 292.8C389.9 296.6 386.8 299.7 383 299.7C379.2 299.7 376.1 296.6 376.1 292.8Z" fill="#231F20"/>
<path d="M326.1 292.8C326.1 289.9 328.4 287.6 331.3 287.6C334.2 287.6 336.5 289.9 336.5 292.8C336.5 295.7 334.2 298 331.3 298C328.5 298 326.1 295.6 326.1 292.8Z" fill="#231F20"/>
<path d="M276.8 292.8C276.8 291.2 278.1 290 279.6 290C281.2 290 282.4 291.3 282.4 292.8C282.4 294.4 281.1 295.6 279.6 295.6C278.1 295.6 276.8 294.3 276.8 292.8Z" fill="#231F20"/>
<path d="M223.7 292.8C223.7 290.4 225.6 288.5 228 288.5C230.4 288.5 232.3 290.4 232.3 292.8C232.3 295.2 230.4 297.1 228 297.1C225.7 297.1 223.7 295.2 223.7 292.8Z" fill="#231F20"/>
<path d="M168.7 292.8C168.7 288.5 172.2 285.1 176.4 285.1C180.7 285.1 184.1 288.6 184.1 292.8C184.1 297.1 180.6 300.5 176.4 300.5C172.2 300.5 168.7 297 168.7 292.8Z" fill="#231F20"/>
<path d="M118.7 292.8C118.7 289.4 121.4 286.7 124.8 286.7C128.2 286.7 130.9 289.4 130.9 292.8C130.9 296.2 128.2 298.9 124.8 298.9C121.4 298.9 118.7 296.2 118.7 292.8Z" fill="#231F20"/>
<path d="M69.0001 292.8C69.0001 290.5 70.9001 288.6 73.2001 288.6C75.5001 288.6 77.4001 290.5 77.4001 292.8C77.4001 295.1 75.5001 297 73.2001 297C70.8001 297 69.0001 295.1 69.0001 292.8Z" fill="#231F20"/>
<path d="M15.2001 292.8C15.2001 289.3 18.0001 286.5 21.5001 286.5C25.0001 286.5 27.8001 289.3 27.8001 292.8C27.8001 296.3 25.0001 299.1 21.5001 299.1C18.0001 299.1 15.2001 296.3 15.2001 292.8Z" fill="#231F20"/>
<path d="M1412.2 230C1412.2 228.1 1413.7 226.6 1415.6 226.6C1417.5 226.6 1419 228.1 1419 230C1419 231.9 1417.5 233.4 1415.6 233.4C1413.8 233.4 1412.2 231.9 1412.2 230Z" fill="#231F20"/>
<path d="M1361.7 230C1361.7 228.7 1362.7 227.7 1364 227.7C1365.3 227.7 1366.3 228.7 1366.3 230C1366.3 231.3 1365.3 232.3 1364 232.3C1362.7 232.3 1361.7 231.3 1361.7 230Z" fill="#231F20"/>
<path d="M1310.7 230C1310.7 229.1 1311.5 228.3 1312.4 228.3C1313.3 228.3 1314.1 229.1 1314.1 230C1314.1 230.9 1313.3 231.7 1312.4 231.7C1311.5 231.7 1310.7 230.9 1310.7 230Z" fill="#231F20"/>
<path d="M1251.9 230C1251.9 225.1 1255.9 221.1 1260.8 221.1C1265.7 221.1 1269.7 225.1 1269.7 230C1269.7 234.9 1265.7 238.9 1260.8 238.9C1255.8 238.9 1251.9 234.9 1251.9 230Z" fill="#231F20"/>
<path d="M1204.9 230C1204.9 227.7 1206.8 225.8 1209.1 225.8C1211.4 225.8 1213.3 227.7 1213.3 230C1213.3 232.3 1211.4 234.2 1209.1 234.2C1206.8 234.2 1204.9 232.3 1204.9 230Z" fill="#231F20"/>
<path d="M1148.9 230C1148.9 225.3 1152.7 221.5 1157.4 221.5C1162.1 221.5 1165.9 225.3 1165.9 230C1165.9 234.7 1162.1 238.5 1157.4 238.5C1152.8 238.6 1148.9 234.7 1148.9 230Z" fill="#231F20"/>
<path d="M1103.2 230C1103.2 228.5 1104.4 227.4 1105.8 227.4C1107.3 227.4 1108.4 228.6 1108.4 230C1108.4 231.5 1107.2 232.6 1105.8 232.6C1104.4 232.7 1103.2 231.5 1103.2 230Z" fill="#231F20"/>
<path d="M1049 230C1049 227.1 1051.4 224.7 1054.3 224.7C1057.2 224.7 1059.6 227.1 1059.6 230C1059.6 232.9 1057.2 235.3 1054.3 235.3C1051.3 235.3 1049 232.9 1049 230Z" fill="#231F20"/>
<path d="M996 230C996 226.3 999 223.4 1002.6 223.4C1006.3 223.4 1009.2 226.4 1009.2 230C1009.2 233.7 1006.2 236.6 1002.6 236.6C998.9 236.6 996 233.7 996 230Z" fill="#231F20"/>
<path d="M949.5 230C949.5 229.2 950.2 228.5 951 228.5C951.8 228.5 952.5 229.2 952.5 230C952.5 230.8 951.8 231.5 951 231.5C950.1 231.5 949.5 230.8 949.5 230Z" fill="#231F20"/>
<path d="M895.1 230C895.1 227.7 897 225.8 899.3 225.8C901.6 225.8 903.5 227.7 903.5 230C903.5 232.3 901.6 234.2 899.3 234.2C897 234.2 895.1 232.3 895.1 230Z" fill="#231F20"/>
<path d="M843.5 230C843.5 227.7 845.4 225.8 847.7 225.8C850 225.8 851.9 227.7 851.9 230C851.9 232.3 850 234.2 847.7 234.2C845.4 234.2 843.5 232.3 843.5 230Z" fill="#231F20"/>
<path d="M792 230C792 227.7 793.8 225.9 796.1 225.9C798.4 225.9 800.2 227.7 800.2 230C800.2 232.3 798.4 234.1 796.1 234.1C793.8 234.1 792 232.3 792 230Z" fill="#231F20"/>
<path d="M742.5 230C742.5 229 743.3 228.1 744.4 228.1C745.4 228.1 746.3 228.9 746.3 230C746.3 231 745.5 231.9 744.4 231.9C743.4 231.9 742.5 231.1 742.5 230Z" fill="#231F20"/>
<path d="M691.6 230C691.6 229.4 692.1 228.8 692.8 228.8C693.4 228.8 694 229.3 694 230C694 230.6 693.5 231.2 692.8 231.2C692.1 231.2 691.6 230.7 691.6 230Z" fill="#231F20"/>
<path d="M635.8 230C635.8 227.1 638.2 224.7 641.1 224.7C644 224.7 646.4 227.1 646.4 230C646.4 232.9 644 235.3 641.1 235.3C638.2 235.3 635.8 233 635.8 230Z" fill="#231F20"/>
<path d="M582.1 230C582.1 225.9 585.4 222.6 589.5 222.6C593.6 222.6 596.9 225.9 596.9 230C596.9 234.1 593.6 237.4 589.5 237.4C585.4 237.5 582.1 234.1 582.1 230Z" fill="#231F20"/>
<path d="M531.5 230C531.5 226.5 534.3 223.7 537.8 223.7C541.3 223.7 544.1 226.5 544.1 230C544.1 233.5 541.3 236.3 537.8 236.3C534.4 236.3 531.5 233.5 531.5 230Z" fill="#231F20"/>
<path d="M476.5 230C476.5 224.6 480.9 220.3 486.2 220.3C491.6 220.3 495.9 224.7 495.9 230C495.9 235.4 491.5 239.7 486.2 239.7C480.9 239.8 476.5 235.4 476.5 230Z" fill="#231F20"/>
<path d="M429.2 230C429.2 227 431.6 224.6 434.6 224.6C437.6 224.6 440 227 440 230C440 233 437.6 235.4 434.6 235.4C431.6 235.4 429.2 233 429.2 230Z" fill="#231F20"/>
<path d="M378.6 230C378.6 227.6 380.5 225.7 382.9 225.7C385.3 225.7 387.2 227.6 387.2 230C387.2 232.4 385.3 234.3 382.9 234.3C380.6 234.3 378.6 232.4 378.6 230Z" fill="#231F20"/>
<path d="M325.1 230C325.1 226.5 327.9 223.7 331.4 223.7C334.9 223.7 337.7 226.5 337.7 230C337.7 233.5 334.9 236.3 331.4 236.3C327.9 236.3 325.1 233.5 325.1 230Z" fill="#231F20"/>
<path d="M272.7 230C272.7 226.1 275.8 223 279.7 223C283.6 223 286.7 226.1 286.7 230C286.7 233.9 283.6 237 279.7 237C275.8 237 272.7 233.9 272.7 230Z" fill="#231F20"/>
<path d="M219.2 230C219.2 225.1 223.2 221.2 228 221.2C232.9 221.2 236.8 225.2 236.8 230C236.8 234.9 232.8 238.8 228 238.8C223.2 238.8 219.2 234.9 219.2 230Z" fill="#231F20"/>
<path d="M174.1 230C174.1 228.7 175.1 227.7 176.4 227.7C177.7 227.7 178.7 228.7 178.7 230C178.7 231.3 177.7 232.3 176.4 232.3C175.1 232.3 174.1 231.3 174.1 230Z" fill="#231F20"/>
<path d="M116.4 230C116.4 225.4 120.1 221.6 124.8 221.6C129.4 221.6 133.2 225.3 133.2 230C133.2 234.6 129.5 238.4 124.8 238.4C120.2 238.4 116.4 234.6 116.4 230Z" fill="#231F20"/>
<path d="M63.5001 230C63.5001 224.7 67.8001 220.4 73.1001 220.4C78.4001 220.4 82.7001 224.7 82.7001 230C82.7001 235.3 78.4001 239.6 73.1001 239.6C67.8001 239.7 63.5001 235.3 63.5001 230Z" fill="#231F20"/>
<path d="M12.4001 230C12.4001 224.9 16.5001 220.8 21.6001 220.8C26.7001 220.8 30.8001 224.9 30.8001 230C30.8001 235.1 26.7001 239.2 21.6001 239.2C16.5001 239.2 12.4001 235.1 12.4001 230Z" fill="#231F20"/>
<path d="M1412 167.3C1412 165.3 1413.6 163.7 1415.6 163.7C1417.6 163.7 1419.2 165.3 1419.2 167.3C1419.2 169.3 1417.6 170.9 1415.6 170.9C1413.7 170.9 1412 169.2 1412 167.3Z" fill="#231F20"/>
<path d="M1359.4 167.3C1359.4 164.8 1361.4 162.7 1364 162.7C1366.5 162.7 1368.6 164.8 1368.6 167.3C1368.6 169.8 1366.6 171.9 1364 171.9C1361.5 171.8 1359.4 169.8 1359.4 167.3Z" fill="#231F20"/>
<path d="M1306.9 167.3C1306.9 164.3 1309.4 161.8 1312.4 161.8C1315.4 161.8 1317.9 164.3 1317.9 167.3C1317.9 170.3 1315.4 172.8 1312.4 172.8C1309.3 172.7 1306.9 170.3 1306.9 167.3Z" fill="#231F20"/>
<path d="M1257.4 167.3C1257.4 165.4 1258.9 163.9 1260.8 163.9C1262.7 163.9 1264.2 165.4 1264.2 167.3C1264.2 169.2 1262.7 170.7 1260.8 170.7C1258.9 170.6 1257.4 169.1 1257.4 167.3Z" fill="#231F20"/>
<path d="M1201.8 167.3C1201.8 163.2 1205.1 160 1209.1 160C1213.2 160 1216.4 163.3 1216.4 167.3C1216.4 171.4 1213.1 174.6 1209.1 174.6C1205.1 174.6 1201.8 171.3 1201.8 167.3Z" fill="#231F20"/>
<path d="M1150 167.3C1150 163.2 1153.4 159.8 1157.5 159.8C1161.6 159.8 1165 163.2 1165 167.3C1165 171.4 1161.6 174.8 1157.5 174.8C1153.3 174.7 1150 171.4 1150 167.3Z" fill="#231F20"/>
<path d="M1103.9 167.3C1103.9 166.3 1104.8 165.4 1105.8 165.4C1106.9 165.4 1107.7 166.3 1107.7 167.3C1107.7 168.3 1106.9 169.2 1105.8 169.2C1104.8 169.1 1103.9 168.3 1103.9 167.3Z" fill="#231F20"/>
<path d="M1049.8 167.3C1049.8 164.9 1051.8 162.9 1054.2 162.9C1056.6 162.9 1058.6 164.9 1058.6 167.3C1058.6 169.7 1056.6 171.7 1054.2 171.7C1051.8 171.6 1049.8 169.7 1049.8 167.3Z" fill="#231F20"/>
<path d="M996 167.3C996 163.7 998.9 160.7 1002.6 160.7C1006.2 160.7 1009.2 163.6 1009.2 167.3C1009.2 170.9 1006.3 173.9 1002.6 173.9C998.9 173.8 996 170.9 996 167.3Z" fill="#231F20"/>
<path d="M942.5 167.3C942.5 162.7 946.3 158.9 950.9 158.9C955.5 158.9 959.3 162.7 959.3 167.3C959.3 171.9 955.6 175.7 950.9 175.7C946.3 175.6 942.5 171.9 942.5 167.3Z" fill="#231F20"/>
<path d="M893.7 167.3C893.7 164.2 896.2 161.7 899.3 161.7C902.4 161.7 904.9 164.2 904.9 167.3C904.9 170.4 902.4 172.9 899.3 172.9C896.2 172.9 893.7 170.4 893.7 167.3Z" fill="#231F20"/>
<path d="M839.2 167.3C839.2 162.6 843 158.8 847.7 158.8C852.4 158.8 856.2 162.6 856.2 167.3C856.2 172 852.4 175.8 847.7 175.8C843 175.7 839.2 171.9 839.2 167.3Z" fill="#231F20"/>
<path d="M792.3 167.3C792.3 165.2 794 163.5 796.1 163.5C798.2 163.5 799.9 165.2 799.9 167.3C799.9 169.4 798.2 171.1 796.1 171.1C794 171 792.3 169.3 792.3 167.3Z" fill="#231F20"/>
<path d="M739.6 167.3C739.6 164.6 741.8 162.5 744.4 162.5C747.1 162.5 749.2 164.7 749.2 167.3C749.2 170 747 172.1 744.4 172.1C741.7 172.1 739.6 169.9 739.6 167.3Z" fill="#231F20"/>
<path d="M687.1 167.3C687.1 164.2 689.6 161.6 692.8 161.6C695.9 161.6 698.5 164.1 698.5 167.3C698.5 170.4 696 173 692.8 173C689.6 172.9 687.1 170.4 687.1 167.3Z" fill="#231F20"/>
<path d="M637.5 167.3C637.5 165.3 639.1 163.7 641.1 163.7C643.1 163.7 644.7 165.3 644.7 167.3C644.7 169.3 643.1 170.9 641.1 170.9C639.1 170.9 637.5 169.2 637.5 167.3Z" fill="#231F20"/>
<path d="M583.5 167.3C583.5 164 586.2 161.3 589.5 161.3C592.8 161.3 595.5 164 595.5 167.3C595.5 170.6 592.8 173.3 589.5 173.3C586.2 173.3 583.5 170.6 583.5 167.3Z" fill="#231F20"/>
<path d="M528.1 167.3C528.1 161.9 532.5 157.5 537.9 157.5C543.3 157.5 547.7 161.9 547.7 167.3C547.7 172.7 543.3 177.1 537.9 177.1C532.4 177.1 528.1 172.7 528.1 167.3Z" fill="#231F20"/>
<path d="M480.3 167.3C480.3 164 482.9 161.4 486.2 161.4C489.5 161.4 492.1 164 492.1 167.3C492.1 170.6 489.5 173.2 486.2 173.2C483 173.2 480.3 170.5 480.3 167.3Z" fill="#231F20"/>
<path d="M429.6 167.3C429.6 164.5 431.8 162.3 434.6 162.3C437.4 162.3 439.6 164.5 439.6 167.3C439.6 170.1 437.4 172.3 434.6 172.3C431.8 172.3 429.6 170 429.6 167.3Z" fill="#231F20"/>
<path d="M379.8 167.3C379.8 165.6 381.2 164.2 382.9 164.2C384.6 164.2 386 165.6 386 167.3C386 169 384.6 170.4 382.9 170.4C381.2 170.4 379.8 169 379.8 167.3Z" fill="#231F20"/>
<path d="M327.6 167.3C327.6 165.2 329.3 163.6 331.3 163.6C333.4 163.6 335 165.3 335 167.3C335 169.4 333.3 171 331.3 171C329.3 171 327.6 169.3 327.6 167.3Z" fill="#231F20"/>
<path d="M274.4 167.3C274.4 164.4 276.8 162 279.7 162C282.6 162 285 164.4 285 167.3C285 170.2 282.6 172.6 279.7 172.6C276.8 172.5 274.4 170.2 274.4 167.3Z" fill="#231F20"/>
<path d="M219.9 167.3C219.9 162.8 223.6 159.1 228.1 159.1C232.6 159.1 236.3 162.8 236.3 167.3C236.3 171.8 232.6 175.5 228.1 175.5C223.6 175.4 219.9 171.8 219.9 167.3Z" fill="#231F20"/>
<path d="M167.9 167.3C167.9 162.6 171.7 158.8 176.4 158.8C181.1 158.8 184.9 162.6 184.9 167.3C184.9 172 181.1 175.8 176.4 175.8C171.7 175.7 167.9 171.9 167.9 167.3Z" fill="#231F20"/>
<path d="M115.1 167.3C115.1 162 119.4 157.6 124.8 157.6C130.1 157.6 134.5 161.9 134.5 167.3C134.5 172.6 130.2 177 124.8 177C119.4 176.9 115.1 172.6 115.1 167.3Z" fill="#231F20"/>
<path d="M68.0001 167.3C68.0001 164.5 70.3001 162.2 73.1001 162.2C75.9001 162.2 78.2001 164.5 78.2001 167.3C78.2001 170.1 75.9001 172.4 73.1001 172.4C70.3001 172.4 68.0001 170.1 68.0001 167.3Z" fill="#231F20"/>
<path d="M16.8001 167.3C16.8001 164.7 18.9001 162.6 21.5001 162.6C24.1001 162.6 26.2001 164.7 26.2001 167.3C26.2001 169.9 24.1001 172 21.5001 172C18.9001 171.9 16.8001 169.8 16.8001 167.3Z" fill="#231F20"/>
<path d="M1406.2 104.5C1406.2 99.3001 1410.4 95.1001 1415.6 95.1001C1420.8 95.1001 1425 99.3001 1425 104.5C1425 109.7 1420.8 113.9 1415.6 113.9C1410.4 113.9 1406.2 109.7 1406.2 104.5Z" fill="#231F20"/>
<path d="M1360 104.5C1360 102.3 1361.8 100.5 1364 100.5C1366.2 100.5 1368 102.3 1368 104.5C1368 106.7 1366.2 108.5 1364 108.5C1361.8 108.5 1360 106.7 1360 104.5Z" fill="#231F20"/>
<path d="M1308.9 104.5C1308.9 102.6 1310.4 101.1 1312.3 101.1C1314.2 101.1 1315.7 102.6 1315.7 104.5C1315.7 106.4 1314.2 107.9 1312.3 107.9C1310.5 107.9 1308.9 106.4 1308.9 104.5Z" fill="#231F20"/>
<path d="M1258.6 104.5C1258.6 103.3 1259.6 102.4 1260.7 102.4C1261.9 102.4 1262.8 103.4 1262.8 104.5C1262.8 105.7 1261.8 106.6 1260.7 106.6C1259.6 106.6 1258.6 105.7 1258.6 104.5Z" fill="#231F20"/>
<path d="M1200.3 104.5C1200.3 99.7002 1204.2 95.7002 1209.1 95.7002C1213.9 95.7002 1217.9 99.6002 1217.9 104.5C1217.9 109.3 1214 113.3 1209.1 113.3C1204.2 113.3 1200.3 109.3 1200.3 104.5Z" fill="#231F20"/>
<path d="M1151.6 104.5C1151.6 101.3 1154.2 98.6001 1157.5 98.6001C1160.7 98.6001 1163.4 101.2 1163.4 104.5C1163.4 107.7 1160.8 110.4 1157.5 110.4C1154.2 110.4 1151.6 107.7 1151.6 104.5Z" fill="#231F20"/>
<path d="M1099.9 104.5C1099.9 101.2 1102.6 98.6001 1105.8 98.6001C1109.1 98.6001 1111.7 101.3 1111.7 104.5C1111.7 107.8 1109.1 110.4 1105.8 110.4C1102.6 110.4 1099.9 107.8 1099.9 104.5Z" fill="#231F20"/>
<path d="M1046.4 104.5C1046.4 100.2 1049.9 96.6001 1054.3 96.6001C1058.6 96.6001 1062.2 100.1 1062.2 104.5C1062.2 108.8 1058.7 112.4 1054.3 112.4C1049.9 112.3 1046.4 108.8 1046.4 104.5Z" fill="#231F20"/>
<path d="M994.9 104.5C994.9 100.3 998.3 96.8003 1002.6 96.8003C1006.8 96.8003 1010.3 100.2 1010.3 104.5C1010.3 108.7 1006.9 112.2 1002.6 112.2C998.3 112.2 994.9 108.7 994.9 104.5Z" fill="#231F20"/>
<path d="M944.9 104.5C944.9 101.2 947.6 98.3999 950.9 98.3999C954.3 98.3999 957 101.1 957 104.5C957 107.8 954.3 110.6 950.9 110.6C947.6 110.5 944.9 107.8 944.9 104.5Z" fill="#231F20"/>
<path d="M896.8 104.5C896.8 103.1 897.9 102 899.3 102C900.7 102 901.8 103.1 901.8 104.5C901.8 105.9 900.7 107 899.3 107C897.9 107 896.8 105.9 896.8 104.5Z" fill="#231F20"/>
<path d="M841.5 104.5C841.5 101.1 844.3 98.3003 847.7 98.3003C851.1 98.3003 853.9 101.1 853.9 104.5C853.9 107.9 851.1 110.7 847.7 110.7C844.3 110.7 841.5 107.9 841.5 104.5Z" fill="#231F20"/>
<path d="M794 104.5C794 103.4 794.9 102.4 796.1 102.4C797.2 102.4 798.2 103.3 798.2 104.5C798.2 105.6 797.3 106.6 796.1 106.6C794.9 106.5 794 105.6 794 104.5Z" fill="#231F20"/>
<path d="M741.9 104.5C741.9 103.1 743 102 744.4 102C745.8 102 746.9 103.1 746.9 104.5C746.9 105.9 745.8 107 744.4 107C743 107 741.9 105.9 741.9 104.5Z" fill="#231F20"/>
<path d="M686.2 104.5C686.2 100.9 689.1 98 692.7 98C696.3 98 699.2 100.9 699.2 104.5C699.2 108.1 696.3 111 692.7 111C689.2 111 686.2 108.1 686.2 104.5Z" fill="#231F20"/>
<path d="M636.8 104.5C636.8 102.1 638.7 100.2 641.1 100.2C643.5 100.2 645.4 102.1 645.4 104.5C645.4 106.9 643.5 108.8 641.1 108.8C638.8 108.8 636.8 106.9 636.8 104.5Z" fill="#231F20"/>
<path d="M588.3 104.5C588.3 103.8 588.8 103.3 589.5 103.3C590.2 103.3 590.7 103.8 590.7 104.5C590.7 105.2 590.2 105.7 589.5 105.7C588.8 105.7 588.3 105.2 588.3 104.5Z" fill="#231F20"/>
<path d="M532.5 104.5C532.5 101.5 534.9 99.2002 537.8 99.2002C540.8 99.2002 543.1 101.6 543.1 104.5C543.1 107.5 540.7 109.8 537.8 109.8C534.9 109.8 532.5 107.4 532.5 104.5Z" fill="#231F20"/>
<path d="M479.9 104.5C479.9 101 482.8 98.1001 486.3 98.1001C489.8 98.1001 492.7 101 492.7 104.5C492.7 108 489.8 110.9 486.3 110.9C482.7 110.9 479.9 108 479.9 104.5Z" fill="#231F20"/>
<path d="M428.9 104.5C428.9 101.4 431.5 98.8003 434.6 98.8003C437.7 98.8003 440.3 101.4 440.3 104.5C440.3 107.6 437.7 110.2 434.6 110.2C431.4 110.2 428.9 107.6 428.9 104.5Z" fill="#231F20"/>
<path d="M376 104.5C376 100.7 379.1 97.6001 382.9 97.6001C386.7 97.6001 389.8 100.7 389.8 104.5C389.8 108.3 386.7 111.4 382.9 111.4C379.1 111.4 376 108.3 376 104.5Z" fill="#231F20"/>
<path d="M328.5 104.5C328.5 102.9 329.8 101.7 331.3 101.7C332.9 101.7 334.1 103 334.1 104.5C334.1 106.1 332.8 107.3 331.3 107.3C329.8 107.3 328.5 106.1 328.5 104.5Z" fill="#231F20"/>
<path d="M278.1 104.5C278.1 103.6 278.8 102.9 279.7 102.9C280.6 102.9 281.3 103.6 281.3 104.5C281.3 105.4 280.6 106.1 279.7 106.1C278.8 106.1 278.1 105.4 278.1 104.5Z" fill="#231F20"/>
<path d="M220.4 104.5C220.4 100.3 223.8 96.8003 228.1 96.8003C232.3 96.8003 235.8 100.2 235.8 104.5C235.8 108.7 232.4 112.2 228.1 112.2C223.8 112.1 220.4 108.7 220.4 104.5Z" fill="#231F20"/>
<path d="M173.5 104.5C173.5 102.9 174.8 101.6 176.4 101.6C178 101.6 179.3 102.9 179.3 104.5C179.3 106.1 178 107.4 176.4 107.4C174.8 107.4 173.5 106.1 173.5 104.5Z" fill="#231F20"/>
<path d="M122.3 104.5C122.3 103.1 123.4 102 124.8 102C126.2 102 127.3 103.1 127.3 104.5C127.3 105.9 126.2 107 124.8 107C123.4 107 122.3 105.9 122.3 104.5Z" fill="#231F20"/>
<path d="M66.3001 104.5C66.3001 100.7 69.4001 97.6001 73.2001 97.6001C77.0001 97.6001 80.1001 100.7 80.1001 104.5C80.1001 108.3 77.0001 111.4 73.2001 111.4C69.4001 111.3 66.3001 108.3 66.3001 104.5Z" fill="#231F20"/>
<path d="M14.2001 104.5C14.2001 100.5 17.5001 97.2002 21.5001 97.2002C25.5001 97.2002 28.8001 100.5 28.8001 104.5C28.8001 108.5 25.5001 111.8 21.5001 111.8C17.5001 111.8 14.2001 108.5 14.2001 104.5Z" fill="#231F20"/>
<path d="M1411.5 41.7001C1411.5 39.4001 1413.4 37.6001 1415.6 37.6001C1417.9 37.6001 1419.7 39.5001 1419.7 41.7001C1419.7 44.0001 1417.8 45.8001 1415.6 45.8001C1413.4 45.9001 1411.5 44.0001 1411.5 41.7001Z" fill="#231F20"/>
<path d="M1355.9 41.7001C1355.9 37.2001 1359.5 33.6001 1364 33.6001C1368.5 33.6001 1372.1 37.2001 1372.1 41.7001C1372.1 46.2001 1368.5 49.8001 1364 49.8001C1359.5 49.9001 1355.9 46.2001 1355.9 41.7001Z" fill="#231F20"/>
<path d="M1308.9 41.7002C1308.9 39.8002 1310.5 38.2002 1312.4 38.2002C1314.3 38.2002 1315.9 39.8002 1315.9 41.7002C1315.9 43.6002 1314.3 45.2002 1312.4 45.2002C1310.5 45.2002 1308.9 43.6002 1308.9 41.7002Z" fill="#231F20"/>
<path d="M1258.3 41.7003C1258.3 40.4003 1259.4 39.3003 1260.7 39.3003C1262 39.3003 1263.1 40.4003 1263.1 41.7003C1263.1 43.0003 1262 44.1003 1260.7 44.1003C1259.4 44.1003 1258.3 43.0003 1258.3 41.7003Z" fill="#231F20"/>
<path d="M1205.8 41.6999C1205.8 39.8999 1207.3 38.3999 1209.1 38.3999C1210.9 38.3999 1212.4 39.8999 1212.4 41.6999C1212.4 43.4999 1210.9 44.9999 1209.1 44.9999C1207.3 45.0999 1205.8 43.5999 1205.8 41.6999Z" fill="#231F20"/>
<path d="M1152 41.7002C1152 38.7002 1154.5 36.2002 1157.5 36.2002C1160.5 36.2002 1163 38.7002 1163 41.7002C1163 44.7002 1160.5 47.2002 1157.5 47.2002C1154.4 47.2002 1152 44.8002 1152 41.7002Z" fill="#231F20"/>
<path d="M1099 41.6999C1099 37.8999 1102 34.8999 1105.8 34.8999C1109.6 34.8999 1112.6 37.8999 1112.6 41.6999C1112.6 45.4999 1109.6 48.4999 1105.8 48.4999C1102.1 48.4999 1099 45.4999 1099 41.6999Z" fill="#231F20"/>
<path d="M1050.7 41.7002C1050.7 39.8002 1052.3 38.2002 1054.2 38.2002C1056.1 38.2002 1057.7 39.8002 1057.7 41.7002C1057.7 43.6002 1056.1 45.2002 1054.2 45.2002C1052.3 45.2002 1050.7 43.6002 1050.7 41.7002Z" fill="#231F20"/>
<path d="M996.1 41.7002C996.1 38.1002 999 35.2002 1002.6 35.2002C1006.2 35.2002 1009.1 38.1002 1009.1 41.7002C1009.1 45.3002 1006.2 48.2002 1002.6 48.2002C999 48.2002 996.1 45.3002 996.1 41.7002Z" fill="#231F20"/>
<path d="M945.5 41.7002C945.5 38.7002 947.9 36.2002 950.9 36.2002C953.9 36.2002 956.4 38.6002 956.4 41.7002C956.4 44.7002 954 47.2002 950.9 47.2002C947.9 47.2002 945.5 44.7002 945.5 41.7002Z" fill="#231F20"/>
<path d="M891.4 41.7003C891.4 37.4003 894.9 33.8003 899.3 33.8003C903.6 33.8003 907.2 37.3003 907.2 41.7003C907.2 46.0003 903.7 49.6003 899.3 49.6003C895 49.6003 891.4 46.1003 891.4 41.7003Z" fill="#231F20"/>
<path d="M843.2 41.7002C843.2 39.2002 845.2 37.2002 847.6 37.2002C850.1 37.2002 852.1 39.2002 852.1 41.7002C852.1 44.2002 850.1 46.2002 847.6 46.2002C845.2 46.2002 843.2 44.2002 843.2 41.7002Z" fill="#231F20"/>
<path d="M791.4 41.7001C791.4 39.2001 793.5 37.1001 796 37.1001C798.5 37.1001 800.6 39.2001 800.6 41.7001C800.6 44.2001 798.5 46.3001 796 46.3001C793.5 46.3001 791.4 44.3001 791.4 41.7001Z" fill="#231F20"/>
<path d="M743 41.7003C743 40.9003 743.6 40.3003 744.4 40.3003C745.2 40.3003 745.8 40.9003 745.8 41.7003C745.8 42.5003 745.2 43.1003 744.4 43.1003C743.6 43.1003 743 42.5003 743 41.7003Z" fill="#231F20"/>
<path d="M685.5 41.6999C685.5 37.6999 688.7 34.3999 692.8 34.3999C696.8 34.3999 700.1 37.6999 700.1 41.6999C700.1 45.6999 696.9 48.9999 692.8 48.9999C688.8 48.9999 685.5 45.6999 685.5 41.6999Z" fill="#231F20"/>
<path d="M633 41.7001C633 37.2001 636.6 33.6001 641.1 33.6001C645.6 33.6001 649.2 37.2001 649.2 41.7001C649.2 46.2001 645.6 49.8001 641.1 49.8001C636.7 49.8001 633 46.2001 633 41.7001Z" fill="#231F20"/>
<path d="M588.1 41.7003C588.1 40.9003 588.7 40.3003 589.5 40.3003C590.3 40.3003 590.9 40.9003 590.9 41.7003C590.9 42.5003 590.3 43.1003 589.5 43.1003C588.7 43.1003 588.1 42.5003 588.1 41.7003Z" fill="#231F20"/>
<path d="M532.5 41.6999C532.5 38.7999 534.9 36.3999 537.8 36.3999C540.7 36.3999 543.1 38.7999 543.1 41.6999C543.1 44.5999 540.7 46.9999 537.8 46.9999C534.9 47.0999 532.5 44.6999 532.5 41.6999Z" fill="#231F20"/>
<path d="M479.7 41.7002C479.7 38.1002 482.6 35.2002 486.2 35.2002C489.8 35.2002 492.7 38.1002 492.7 41.7002C492.7 45.3002 489.8 48.2002 486.2 48.2002C482.7 48.2002 479.7 45.3002 479.7 41.7002Z" fill="#231F20"/>
<path d="M428.8 41.6999C428.8 38.4999 431.4 35.8999 434.6 35.8999C437.8 35.8999 440.4 38.4999 440.4 41.6999C440.4 44.8999 437.8 47.4999 434.6 47.4999C431.4 47.5999 428.8 44.8999 428.8 41.6999Z" fill="#231F20"/>
<path d="M373.4 41.7001C373.4 36.4001 377.7 32.1001 383 32.1001C388.3 32.1001 392.6 36.4001 392.6 41.7001C392.6 47.0001 388.3 51.3001 383 51.3001C377.7 51.3001 373.4 47.0001 373.4 41.7001Z" fill="#231F20"/>
<path d="M323 41.6999C323 37.0999 326.7 33.3999 331.3 33.3999C335.9 33.3999 339.6 37.0999 339.6 41.6999C339.6 46.2999 335.9 49.9999 331.3 49.9999C326.7 49.9999 323 46.2999 323 41.6999Z" fill="#231F20"/>
<path d="M277.6 41.7001C277.6 40.5001 278.5 39.6001 279.7 39.6001C280.9 39.6001 281.8 40.5001 281.8 41.7001C281.8 42.9001 280.9 43.8001 279.7 43.8001C278.5 43.8001 277.6 42.9001 277.6 41.7001Z" fill="#231F20"/>
<path d="M219.2 41.7003C219.2 36.8003 223.2 32.8003 228.1 32.8003C233 32.8003 237 36.8003 237 41.7003C237 46.6003 233 50.6003 228.1 50.6003C223.1 50.6003 219.2 46.6003 219.2 41.7003Z" fill="#231F20"/>
<path d="M169.5 41.7003C169.5 37.9003 172.6 34.8003 176.4 34.8003C180.2 34.8003 183.3 37.9003 183.3 41.7003C183.3 45.5003 180.2 48.6003 176.4 48.6003C172.6 48.6003 169.5 45.5003 169.5 41.7003Z" fill="#231F20"/>
<path d="M122.1 41.7C122.1 40.2 123.3 39 124.8 39C126.3 39 127.5 40.2 127.5 41.7C127.5 43.2 126.3 44.4 124.8 44.4C123.3 44.4 122.1 43.2 122.1 41.7Z" fill="#231F20"/>
<path d="M70.5001 41.7001C70.5001 40.3001 71.7001 39.1001 73.1001 39.1001C74.5001 39.1001 75.7001 40.3001 75.7001 41.7001C75.7001 43.1001 74.5001 44.3001 73.1001 44.3001C71.7001 44.3001 70.5001 43.2001 70.5001 41.7001Z" fill="#231F20"/>
<path d="M18.8001 41.7C18.8001 40.2 20.0001 39 21.5001 39C23.0001 39 24.2001 40.2 24.2001 41.7C24.2001 43.2 23.0001 44.4 21.5001 44.4C20.0001 44.4 18.8001 43.2 18.8001 41.7Z" fill="#231F20"/>
</g>
</g>
</svg>
