<svg width="1440" height="246" viewBox="0 0 1440 246" fill="none" xmlns="http://www.w3.org/2000/svg">
<g opacity="0.1">
<mask id="mask0_211_4029" style="mask-type:alpha" maskUnits="userSpaceOnUse" x="0" y="0" width="1440" height="246">
<rect width="1440" height="246" fill="#4C7169"/>
<path d="M720 191.881L720 178.105" stroke="white" stroke-width="2" stroke-linecap="round" stroke-linejoin="round"/>
<path d="M713 184.993L720 178.105L727 184.993" stroke="white" stroke-width="2" stroke-linecap="round" stroke-linejoin="round"/>
<path d="M1160.65 73.7026C1160.32 74.1766 1159.79 74.5464 1159.08 74.812C1158.37 75.0776 1157.58 75.2104 1156.7 75.2104C1155.8 75.2104 1155.01 74.9969 1154.32 74.5698C1153.63 74.1427 1153.09 73.5386 1152.71 72.7573C1152.33 71.9761 1152.14 71.0802 1152.13 70.0698V68.6323C1152.13 67.0542 1152.53 65.8094 1153.33 64.8979C1154.12 63.9813 1155.2 63.5229 1156.54 63.5229C1157.71 63.5229 1158.65 63.8224 1159.37 64.4214C1160.08 65.0151 1160.51 65.8354 1160.64 66.8823H1159.68C1159.54 66.049 1159.2 65.4188 1158.66 64.9917C1158.12 64.5594 1157.42 64.3433 1156.55 64.3433C1155.48 64.3433 1154.64 64.7209 1154.02 65.4761C1153.4 66.2313 1153.09 67.2964 1153.09 68.6714V70.0151C1153.09 70.8797 1153.24 71.6453 1153.53 72.312C1153.83 72.9735 1154.25 73.4865 1154.8 73.8511C1155.35 74.2157 1155.98 74.3979 1156.7 74.3979C1157.52 74.3979 1158.23 74.2677 1158.83 74.0073C1159.21 73.8354 1159.5 73.6349 1159.69 73.4058V70.4683H1156.63V69.6558H1160.65V73.7026ZM1166.43 75.2104C1165.71 75.2104 1165.06 75.0334 1164.48 74.6792C1163.9 74.325 1163.45 73.8328 1163.12 73.2026C1162.8 72.5672 1162.64 71.8563 1162.64 71.0698V70.7339C1162.64 69.9214 1162.8 69.1896 1163.11 68.5386C1163.43 67.8875 1163.87 67.3771 1164.43 67.0073C1164.99 66.6323 1165.6 66.4448 1166.26 66.4448C1167.28 66.4448 1168.1 66.7964 1168.7 67.4995C1169.3 68.1974 1169.6 69.1532 1169.6 70.3667V70.8901H1163.57V71.0698C1163.57 72.0282 1163.84 72.8276 1164.39 73.4683C1164.94 74.1037 1165.64 74.4214 1166.47 74.4214C1166.97 74.4214 1167.41 74.3302 1167.79 74.1479C1168.17 73.9657 1168.52 73.674 1168.84 73.2729L1169.42 73.7183C1168.73 74.7131 1167.74 75.2104 1166.43 75.2104ZM1166.26 67.2417C1165.55 67.2417 1164.96 67.4995 1164.48 68.0151C1164 68.5308 1163.71 69.2235 1163.6 70.0933H1168.67V69.9917C1168.65 69.1792 1168.41 68.5177 1167.98 68.0073C1167.54 67.4969 1166.97 67.2417 1166.26 67.2417ZM1172.31 66.6011L1172.34 68.0464C1172.66 67.5256 1173.06 67.1297 1173.53 66.8589C1174.01 66.5828 1174.53 66.4448 1175.1 66.4448C1176.01 66.4448 1176.68 66.7 1177.12 67.2104C1177.57 67.7209 1177.79 68.4865 1177.8 69.5073V75.0542H1176.87V69.4995C1176.86 68.7443 1176.7 68.1818 1176.38 67.812C1176.07 67.4422 1175.57 67.2573 1174.88 67.2573C1174.3 67.2573 1173.78 67.4396 1173.34 67.8042C1172.89 68.1636 1172.57 68.6506 1172.35 69.2651V75.0542H1171.42V66.6011H1172.31ZM1183.49 75.2104C1182.77 75.2104 1182.12 75.0334 1181.54 74.6792C1180.96 74.325 1180.51 73.8328 1180.19 73.2026C1179.86 72.5672 1179.7 71.8563 1179.7 71.0698V70.7339C1179.7 69.9214 1179.86 69.1896 1180.17 68.5386C1180.49 67.8875 1180.93 67.3771 1181.49 67.0073C1182.05 66.6323 1182.66 66.4448 1183.32 66.4448C1184.35 66.4448 1185.16 66.7964 1185.76 67.4995C1186.36 68.1974 1186.66 69.1532 1186.66 70.3667V70.8901H1180.63V71.0698C1180.63 72.0282 1180.91 72.8276 1181.45 73.4683C1182.01 74.1037 1182.7 74.4214 1183.53 74.4214C1184.03 74.4214 1184.47 74.3302 1184.85 74.1479C1185.24 73.9657 1185.59 73.674 1185.9 73.2729L1186.48 73.7183C1185.8 74.7131 1184.8 75.2104 1183.49 75.2104ZM1183.32 67.2417C1182.62 67.2417 1182.02 67.4995 1181.54 68.0151C1181.06 68.5308 1180.77 69.2235 1180.66 70.0933H1185.73V69.9917C1185.71 69.1792 1185.48 68.5177 1185.04 68.0073C1184.6 67.4969 1184.03 67.2417 1183.32 67.2417ZM1192.39 67.3979C1192.19 67.3615 1191.98 67.3433 1191.76 67.3433C1191.17 67.3433 1190.68 67.5073 1190.27 67.8354C1189.87 68.1584 1189.59 68.6297 1189.41 69.2495V75.0542H1188.48V66.6011H1189.4L1189.41 67.9448C1189.91 66.9448 1190.7 66.4448 1191.8 66.4448C1192.06 66.4448 1192.26 66.4787 1192.41 66.5464L1192.39 67.3979ZM1198.9 75.0542C1198.8 74.7886 1198.74 74.3953 1198.72 73.8745C1198.39 74.3016 1197.97 74.6323 1197.46 74.8667C1196.96 75.0959 1196.42 75.2104 1195.85 75.2104C1195.04 75.2104 1194.38 74.9839 1193.88 74.5308C1193.38 74.0776 1193.12 73.5047 1193.12 72.812C1193.12 71.9891 1193.47 71.3381 1194.15 70.8589C1194.84 70.3797 1195.79 70.1401 1197.02 70.1401H1198.71V69.1792C1198.71 68.575 1198.52 68.1011 1198.15 67.7573C1197.78 67.4084 1197.24 67.2339 1196.52 67.2339C1195.87 67.2339 1195.33 67.4006 1194.91 67.7339C1194.48 68.0672 1194.27 68.4683 1194.27 68.937L1193.33 68.9292C1193.33 68.2573 1193.64 67.6766 1194.27 67.187C1194.89 66.6922 1195.66 66.4448 1196.57 66.4448C1197.51 66.4448 1198.26 66.6818 1198.8 67.1558C1199.34 67.6245 1199.62 68.2808 1199.64 69.1245V73.1245C1199.64 73.9422 1199.73 74.5542 1199.9 74.9604V75.0542H1198.9ZM1195.96 74.3823C1196.59 74.3823 1197.14 74.2313 1197.63 73.9292C1198.13 73.6271 1198.49 73.2235 1198.71 72.7183V70.8589H1197.04C1196.11 70.8693 1195.38 71.0412 1194.85 71.3745C1194.33 71.7026 1194.06 72.1558 1194.06 72.7339C1194.06 73.2078 1194.24 73.6011 1194.59 73.9136C1194.94 74.2261 1195.4 74.3823 1195.96 74.3823ZM1203.19 75.0542H1202.25V63.0542H1203.19V75.0542ZM1212.75 74.4214C1213.4 74.4214 1213.95 74.2391 1214.38 73.8745C1214.83 73.5047 1215.07 73.0282 1215.1 72.4448H1216C1215.97 72.9604 1215.81 73.4318 1215.52 73.8589C1215.22 74.2808 1214.82 74.6115 1214.33 74.8511C1213.84 75.0907 1213.31 75.2104 1212.75 75.2104C1211.64 75.2104 1210.76 74.825 1210.11 74.0542C1209.46 73.2834 1209.14 72.2469 1209.14 70.9448V70.6636C1209.14 69.8302 1209.29 69.0933 1209.58 68.4526C1209.87 67.812 1210.29 67.3172 1210.83 66.9683C1211.38 66.6193 1212.01 66.4448 1212.74 66.4448C1213.67 66.4448 1214.43 66.7209 1215.03 67.2729C1215.64 67.825 1215.96 68.5516 1216 69.4526H1215.1C1215.06 68.7912 1214.82 68.2573 1214.38 67.8511C1213.95 67.4448 1213.4 67.2417 1212.74 67.2417C1211.9 67.2417 1211.24 67.5464 1210.77 68.1558C1210.31 68.7651 1210.08 69.6193 1210.08 70.7183V70.9917C1210.08 72.0698 1210.31 72.911 1210.77 73.5151C1211.24 74.1193 1211.9 74.4214 1212.75 74.4214ZM1217.36 70.7026C1217.36 69.8901 1217.52 69.1584 1217.83 68.5073C1218.15 67.8563 1218.59 67.3511 1219.16 66.9917C1219.74 66.6271 1220.4 66.4448 1221.12 66.4448C1222.25 66.4448 1223.16 66.8407 1223.86 67.6323C1224.56 68.4188 1224.91 69.4631 1224.91 70.7651V70.9604C1224.91 71.7782 1224.75 72.5151 1224.43 73.1714C1224.12 73.8224 1223.67 74.325 1223.1 74.6792C1222.53 75.0334 1221.88 75.2104 1221.14 75.2104C1220.02 75.2104 1219.11 74.8172 1218.41 74.0308C1217.71 73.2391 1217.36 72.1922 1217.36 70.8901V70.7026ZM1218.3 70.9604C1218.3 71.9709 1218.56 72.8016 1219.08 73.4526C1219.6 74.0985 1220.29 74.4214 1221.14 74.4214C1221.98 74.4214 1222.67 74.0985 1223.19 73.4526C1223.71 72.8016 1223.98 71.9448 1223.98 70.8823V70.7026C1223.98 70.0568 1223.86 69.4657 1223.62 68.9292C1223.38 68.3927 1223.04 67.9787 1222.61 67.687C1222.18 67.3901 1221.68 67.2417 1221.12 67.2417C1220.29 67.2417 1219.61 67.5698 1219.09 68.2261C1218.56 68.8771 1218.3 69.7313 1218.3 70.7886V70.9604ZM1227.73 66.6011L1227.77 68.0464C1228.08 67.5256 1228.48 67.1297 1228.95 66.8589C1229.43 66.5828 1229.95 66.4448 1230.52 66.4448C1231.43 66.4448 1232.1 66.7 1232.55 67.2104C1232.99 67.7209 1233.21 68.4865 1233.22 69.5073V75.0542H1232.29V69.4995C1232.28 68.7443 1232.12 68.1818 1231.8 67.812C1231.49 67.4422 1230.99 67.2573 1230.3 67.2573C1229.72 67.2573 1229.21 67.4396 1228.76 67.8042C1228.32 68.1636 1227.99 68.6506 1227.77 69.2651V75.0542H1226.84V66.6011H1227.73ZM1237.09 64.437V66.6011H1238.84V67.3667H1237.09V72.9995C1237.09 73.4683 1237.18 73.8172 1237.34 74.0464C1237.52 74.2756 1237.8 74.3901 1238.2 74.3901C1238.35 74.3901 1238.6 74.3641 1238.95 74.312L1238.99 75.0776C1238.75 75.1662 1238.41 75.2104 1237.99 75.2104C1237.35 75.2104 1236.89 75.0256 1236.59 74.6558C1236.3 74.2808 1236.16 73.7313 1236.16 73.0073V67.3667H1234.6V66.6011H1236.16V64.437H1237.09ZM1246.12 75.0542C1246.02 74.7886 1245.96 74.3953 1245.94 73.8745C1245.61 74.3016 1245.19 74.6323 1244.68 74.8667C1244.17 75.0959 1243.64 75.2104 1243.07 75.2104C1242.26 75.2104 1241.6 74.9839 1241.09 74.5308C1240.59 74.0776 1240.34 73.5047 1240.34 72.812C1240.34 71.9891 1240.68 71.3381 1241.37 70.8589C1242.05 70.3797 1243.01 70.1401 1244.23 70.1401H1245.93V69.1792C1245.93 68.575 1245.74 68.1011 1245.37 67.7573C1245 67.4084 1244.46 67.2339 1243.74 67.2339C1243.09 67.2339 1242.55 67.4006 1242.12 67.7339C1241.7 68.0672 1241.48 68.4683 1241.48 68.937L1240.55 68.9292C1240.55 68.2573 1240.86 67.6766 1241.48 67.187C1242.11 66.6922 1242.88 66.4448 1243.79 66.4448C1244.73 66.4448 1245.47 66.6818 1246.02 67.1558C1246.56 67.6245 1246.84 68.2808 1246.86 69.1245V73.1245C1246.86 73.9422 1246.95 74.5542 1247.12 74.9604V75.0542H1246.12ZM1243.18 74.3823C1243.8 74.3823 1244.36 74.2313 1244.85 73.9292C1245.35 73.6271 1245.71 73.2235 1245.93 72.7183V70.8589H1244.26C1243.33 70.8693 1242.6 71.0412 1242.07 71.3745C1241.54 71.7026 1241.28 72.1558 1241.28 72.7339C1241.28 73.2078 1241.46 73.6011 1241.8 73.9136C1242.16 74.2261 1242.62 74.3823 1243.18 74.3823ZM1252.48 74.4214C1253.14 74.4214 1253.68 74.2391 1254.12 73.8745C1254.56 73.5047 1254.8 73.0282 1254.84 72.4448H1255.73C1255.71 72.9604 1255.55 73.4318 1255.25 73.8589C1254.95 74.2808 1254.56 74.6115 1254.06 74.8511C1253.57 75.0907 1253.05 75.2104 1252.48 75.2104C1251.38 75.2104 1250.49 74.825 1249.84 74.0542C1249.2 73.2834 1248.88 72.2469 1248.88 70.9448V70.6636C1248.88 69.8302 1249.02 69.0933 1249.31 68.4526C1249.6 67.812 1250.02 67.3172 1250.56 66.9683C1251.11 66.6193 1251.75 66.4448 1252.48 66.4448C1253.4 66.4448 1254.17 66.7209 1254.77 67.2729C1255.37 67.825 1255.69 68.5516 1255.73 69.4526H1254.84C1254.79 68.7912 1254.55 68.2573 1254.12 67.8511C1253.68 67.4448 1253.14 67.2417 1252.48 67.2417C1251.63 67.2417 1250.98 67.5464 1250.51 68.1558C1250.04 68.7651 1249.81 69.6193 1249.81 70.7183V70.9917C1249.81 72.0698 1250.04 72.911 1250.51 73.5151C1250.98 74.1193 1251.64 74.4214 1252.48 74.4214ZM1259.06 64.437V66.6011H1260.81V67.3667H1259.06V72.9995C1259.06 73.4683 1259.15 73.8172 1259.31 74.0464C1259.48 74.2756 1259.77 74.3901 1260.16 74.3901C1260.32 74.3901 1260.57 74.3641 1260.92 74.312L1260.96 75.0776C1260.72 75.1662 1260.38 75.2104 1259.96 75.2104C1259.32 75.2104 1258.85 75.0256 1258.56 74.6558C1258.27 74.2808 1258.12 73.7313 1258.12 73.0073V67.3667H1256.57V66.6011H1258.12V64.437H1259.06ZM1267.81 72.9058C1267.81 72.4422 1267.62 72.0698 1267.25 71.7886C1266.88 71.5073 1266.32 71.2886 1265.57 71.1323C1264.82 70.9709 1264.24 70.7886 1263.82 70.5854C1263.41 70.3771 1263.1 70.1245 1262.9 69.8276C1262.7 69.5308 1262.6 69.1714 1262.6 68.7495C1262.6 68.0828 1262.88 67.5334 1263.44 67.1011C1263.99 66.6636 1264.71 66.4448 1265.58 66.4448C1266.52 66.4448 1267.28 66.6792 1267.84 67.1479C1268.42 67.6115 1268.7 68.2183 1268.7 68.9683H1267.77C1267.77 68.4735 1267.56 68.062 1267.14 67.7339C1266.73 67.4058 1266.21 67.2417 1265.58 67.2417C1264.96 67.2417 1264.47 67.3797 1264.09 67.6558C1263.72 67.9266 1263.54 68.2808 1263.54 68.7183C1263.54 69.1401 1263.69 69.4683 1264 69.7026C1264.31 69.9318 1264.88 70.1427 1265.7 70.3354C1266.52 70.5282 1267.13 70.7339 1267.54 70.9526C1267.95 71.1714 1268.26 71.4344 1268.45 71.7417C1268.65 72.049 1268.75 72.4214 1268.75 72.8589C1268.75 73.5724 1268.46 74.1427 1267.88 74.5698C1267.31 74.9969 1266.56 75.2104 1265.63 75.2104C1264.65 75.2104 1263.85 74.9735 1263.23 74.4995C1262.62 74.0203 1262.32 73.4162 1262.32 72.687H1263.26C1263.29 73.2339 1263.52 73.661 1263.95 73.9683C1264.37 74.2703 1264.93 74.4214 1265.63 74.4214C1266.28 74.4214 1266.81 74.2782 1267.21 73.9917C1267.61 73.7052 1267.81 73.3433 1267.81 72.9058Z" fill="white"/>
<path d="M1125.49 129.21C1124.77 129.21 1124.12 129.033 1123.54 128.679C1122.96 128.325 1122.51 127.833 1122.19 127.203C1121.86 126.567 1121.7 125.856 1121.7 125.07V124.734C1121.7 123.921 1121.86 123.19 1122.17 122.539C1122.49 121.888 1122.93 121.377 1123.49 121.007C1124.05 120.632 1124.66 120.445 1125.32 120.445C1126.35 120.445 1127.16 120.796 1127.76 121.5C1128.36 122.197 1128.66 123.153 1128.66 124.367V124.89H1122.63V125.07C1122.63 126.028 1122.91 126.828 1123.45 127.468C1124.01 128.104 1124.7 128.421 1125.53 128.421C1126.03 128.421 1126.47 128.33 1126.85 128.148C1127.24 127.966 1127.59 127.674 1127.9 127.273L1128.48 127.718C1127.8 128.713 1126.8 129.21 1125.49 129.21ZM1125.32 121.242C1124.62 121.242 1124.02 121.5 1123.54 122.015C1123.06 122.531 1122.77 123.223 1122.66 124.093H1127.73V123.992C1127.71 123.179 1127.48 122.518 1127.04 122.007C1126.6 121.497 1126.03 121.242 1125.32 121.242ZM1133.14 124.031L1135.42 120.601H1136.53L1133.66 124.75L1136.66 129.054H1135.55L1133.15 125.476L1130.74 129.054H1129.64L1132.62 124.75L1129.76 120.601H1130.86L1133.14 124.031ZM1143.6 129.054C1143.51 128.789 1143.45 128.395 1143.42 127.875C1143.09 128.302 1142.67 128.632 1142.16 128.867C1141.66 129.096 1141.12 129.21 1140.55 129.21C1139.74 129.21 1139.08 128.984 1138.58 128.531C1138.08 128.078 1137.83 127.505 1137.83 126.812C1137.83 125.989 1138.17 125.338 1138.85 124.859C1139.54 124.38 1140.49 124.14 1141.72 124.14H1143.41V123.179C1143.41 122.575 1143.23 122.101 1142.85 121.757C1142.48 121.408 1141.94 121.234 1141.23 121.234C1140.58 121.234 1140.04 121.401 1139.61 121.734C1139.18 122.067 1138.97 122.468 1138.97 122.937L1138.03 122.929C1138.03 122.257 1138.34 121.677 1138.97 121.187C1139.59 120.692 1140.36 120.445 1141.27 120.445C1142.22 120.445 1142.96 120.682 1143.5 121.156C1144.05 121.625 1144.33 122.281 1144.34 123.125V127.125C1144.34 127.942 1144.43 128.554 1144.6 128.96V129.054H1143.6ZM1140.66 128.382C1141.29 128.382 1141.85 128.231 1142.34 127.929C1142.83 127.627 1143.19 127.223 1143.41 126.718V124.859H1141.74C1140.81 124.869 1140.08 125.041 1139.55 125.375C1139.03 125.703 1138.77 126.156 1138.77 126.734C1138.77 127.208 1138.94 127.601 1139.29 127.914C1139.64 128.226 1140.1 128.382 1140.66 128.382ZM1147.7 120.601L1147.73 121.976C1148.04 121.466 1148.43 121.083 1148.9 120.828C1149.37 120.572 1149.89 120.445 1150.46 120.445C1151.79 120.445 1152.64 120.992 1153 122.085C1153.3 121.559 1153.71 121.156 1154.21 120.875C1154.72 120.588 1155.27 120.445 1155.88 120.445C1157.7 120.445 1158.62 121.434 1158.66 123.414V129.054H1157.72V123.484C1157.71 122.729 1157.55 122.169 1157.23 121.804C1156.91 121.44 1156.39 121.257 1155.66 121.257C1154.99 121.268 1154.42 121.486 1153.96 121.914C1153.5 122.335 1153.24 122.851 1153.19 123.46V129.054H1152.25V123.414C1152.24 122.69 1152.07 122.151 1151.73 121.796C1151.4 121.437 1150.89 121.257 1150.19 121.257C1149.6 121.257 1149.09 121.427 1148.67 121.765C1148.25 122.098 1147.94 122.596 1147.73 123.257V129.054H1146.8V120.601H1147.7ZM1167.83 124.914C1167.83 126.231 1167.54 127.278 1166.95 128.054C1166.37 128.825 1165.59 129.21 1164.61 129.21C1163.45 129.21 1162.57 128.804 1161.95 127.992V132.304H1161.02V120.601H1161.89L1161.94 121.796C1162.55 120.895 1163.43 120.445 1164.59 120.445C1165.6 120.445 1166.39 120.828 1166.96 121.593C1167.54 122.359 1167.83 123.421 1167.83 124.781V124.914ZM1166.89 124.75C1166.89 123.671 1166.67 122.82 1166.23 122.195C1165.78 121.57 1165.17 121.257 1164.38 121.257C1163.8 121.257 1163.31 121.395 1162.9 121.671C1162.49 121.947 1162.17 122.348 1161.95 122.875V126.929C1162.18 127.414 1162.5 127.783 1162.91 128.039C1163.33 128.294 1163.82 128.421 1164.39 128.421C1165.18 128.421 1165.79 128.109 1166.23 127.484C1166.67 126.854 1166.89 125.942 1166.89 124.75ZM1170.95 129.054H1170.02V117.054H1170.95V129.054ZM1176.77 129.21C1176.05 129.21 1175.4 129.033 1174.82 128.679C1174.24 128.325 1173.79 127.833 1173.47 127.203C1173.15 126.567 1172.98 125.856 1172.98 125.07V124.734C1172.98 123.921 1173.14 123.19 1173.45 122.539C1173.77 121.888 1174.21 121.377 1174.77 121.007C1175.34 120.632 1175.95 120.445 1176.6 120.445C1177.63 120.445 1178.44 120.796 1179.04 121.5C1179.64 122.197 1179.95 123.153 1179.95 124.367V124.89H1173.91V125.07C1173.91 126.028 1174.19 126.828 1174.73 127.468C1175.29 128.104 1175.98 128.421 1176.81 128.421C1177.31 128.421 1177.75 128.33 1178.13 128.148C1178.52 127.966 1178.87 127.674 1179.18 127.273L1179.77 127.718C1179.08 128.713 1178.08 129.21 1176.77 129.21ZM1176.6 121.242C1175.9 121.242 1175.3 121.5 1174.82 122.015C1174.34 122.531 1174.05 123.223 1173.95 124.093H1179.02V123.992C1178.99 123.179 1178.76 122.518 1178.32 122.007C1177.88 121.497 1177.31 121.242 1176.6 121.242ZM1194.25 125.046C1194.22 125.812 1194.08 126.523 1193.83 127.179C1193.57 127.83 1193.22 128.333 1192.77 128.687C1192.32 129.036 1191.8 129.21 1191.2 129.21C1190.7 129.21 1190.29 129.078 1189.97 128.812C1189.65 128.546 1189.44 128.174 1189.34 127.695C1188.77 128.705 1188 129.21 1187.01 129.21C1186.28 129.21 1185.73 128.895 1185.38 128.265C1185.02 127.635 1184.88 126.786 1184.98 125.718C1185.05 124.869 1185.25 124.114 1185.55 123.453C1185.87 122.786 1186.27 122.268 1186.77 121.898C1187.27 121.523 1187.8 121.335 1188.37 121.335C1188.77 121.335 1189.12 121.393 1189.42 121.507C1189.72 121.617 1190.08 121.841 1190.48 122.179L1190.08 126.632C1190.03 127.236 1190.1 127.705 1190.3 128.039C1190.51 128.372 1190.84 128.539 1191.3 128.539C1191.94 128.539 1192.46 128.226 1192.85 127.601C1193.25 126.971 1193.48 126.119 1193.52 125.046C1193.62 122.937 1193.22 121.351 1192.32 120.289C1191.42 119.221 1190.05 118.687 1188.23 118.687C1187.13 118.687 1186.14 118.963 1185.25 119.515C1184.37 120.062 1183.67 120.838 1183.16 121.843C1182.65 122.848 1182.37 124.007 1182.3 125.32C1182.24 126.632 1182.41 127.789 1182.82 128.789C1183.23 129.783 1183.85 130.549 1184.67 131.085C1185.5 131.622 1186.48 131.89 1187.62 131.89C1188.1 131.89 1188.58 131.833 1189.04 131.718C1189.5 131.604 1189.89 131.455 1190.2 131.273L1190.45 131.898C1190.15 132.096 1189.73 132.26 1189.2 132.39C1188.67 132.526 1188.14 132.593 1187.59 132.593C1186.29 132.593 1185.17 132.299 1184.23 131.71C1183.3 131.127 1182.59 130.283 1182.12 129.179C1181.66 128.08 1181.46 126.794 1181.52 125.32C1181.59 123.872 1181.9 122.591 1182.48 121.476C1183.05 120.356 1183.84 119.492 1184.84 118.882C1185.84 118.268 1186.98 117.96 1188.26 117.96C1189.59 117.96 1190.71 118.239 1191.63 118.796C1192.55 119.348 1193.24 120.158 1193.68 121.226C1194.12 122.294 1194.31 123.567 1194.25 125.046ZM1185.8 126.82C1185.86 127.341 1186.01 127.744 1186.24 128.031C1186.48 128.312 1186.79 128.453 1187.17 128.453C1188.14 128.453 1188.85 127.789 1189.3 126.46L1189.66 122.429C1189.31 122.174 1188.9 122.046 1188.42 122.046C1187.84 122.046 1187.34 122.278 1186.91 122.742C1186.49 123.2 1186.18 123.835 1185.98 124.648C1185.79 125.455 1185.73 126.179 1185.8 126.82ZM1196 124.75C1196 123.427 1196.29 122.38 1196.88 121.609C1197.46 120.833 1198.26 120.445 1199.27 120.445C1200.42 120.445 1201.29 120.903 1201.89 121.82L1201.94 120.601H1202.81V128.882C1202.81 129.971 1202.51 130.833 1201.9 131.468C1201.29 132.104 1200.46 132.421 1199.42 132.421C1198.83 132.421 1198.27 132.289 1197.73 132.023C1197.2 131.763 1196.78 131.414 1196.48 130.976L1197 130.414C1197.66 131.226 1198.45 131.632 1199.36 131.632C1200.14 131.632 1200.75 131.401 1201.19 130.937C1201.62 130.479 1201.85 129.841 1201.87 129.023V127.96C1201.27 128.794 1200.4 129.21 1199.25 129.21C1198.27 129.21 1197.48 128.82 1196.89 128.039C1196.3 127.257 1196 126.203 1196 124.875V124.75ZM1196.95 124.914C1196.95 125.992 1197.16 126.843 1197.59 127.468C1198.03 128.088 1198.64 128.398 1199.42 128.398C1200.57 128.398 1201.39 127.882 1201.87 126.851V122.921C1201.65 122.38 1201.33 121.968 1200.92 121.687C1200.51 121.401 1200.02 121.257 1199.44 121.257C1198.65 121.257 1198.04 121.567 1197.6 122.187C1197.16 122.802 1196.95 123.71 1196.95 124.914ZM1206.1 120.601L1206.13 121.976C1206.45 121.466 1206.84 121.083 1207.3 120.828C1207.77 120.572 1208.29 120.445 1208.87 120.445C1210.2 120.445 1211.05 120.992 1211.41 122.085C1211.71 121.559 1212.11 121.156 1212.62 120.875C1213.12 120.588 1213.68 120.445 1214.29 120.445C1216.1 120.445 1217.03 121.434 1217.06 123.414V129.054H1216.12V123.484C1216.12 122.729 1215.96 122.169 1215.63 121.804C1215.32 121.44 1214.79 121.257 1214.07 121.257C1213.4 121.268 1212.83 121.486 1212.37 121.914C1211.9 122.335 1211.65 122.851 1211.59 123.46V129.054H1210.66V123.414C1210.65 122.69 1210.48 122.151 1210.14 121.796C1209.81 121.437 1209.29 121.257 1208.59 121.257C1208.01 121.257 1207.5 121.427 1207.08 121.765C1206.66 122.098 1206.34 122.596 1206.14 123.257V129.054H1205.2V120.601H1206.1ZM1224.77 129.054C1224.68 128.789 1224.62 128.395 1224.59 127.875C1224.27 128.302 1223.85 128.632 1223.34 128.867C1222.83 129.096 1222.29 129.21 1221.73 129.21C1220.91 129.21 1220.26 128.984 1219.75 128.531C1219.25 128.078 1219 127.505 1219 126.812C1219 125.989 1219.34 125.338 1220.02 124.859C1220.71 124.38 1221.67 124.14 1222.89 124.14H1224.59V123.179C1224.59 122.575 1224.4 122.101 1224.02 121.757C1223.65 121.408 1223.11 121.234 1222.4 121.234C1221.75 121.234 1221.21 121.401 1220.78 121.734C1220.35 122.067 1220.14 122.468 1220.14 122.937L1219.2 122.929C1219.2 122.257 1219.52 121.677 1220.14 121.187C1220.77 120.692 1221.53 120.445 1222.45 120.445C1223.39 120.445 1224.13 120.682 1224.67 121.156C1225.22 121.625 1225.5 122.281 1225.52 123.125V127.125C1225.52 127.942 1225.6 128.554 1225.77 128.96V129.054H1224.77ZM1221.84 128.382C1222.46 128.382 1223.02 128.231 1223.51 127.929C1224 127.627 1224.36 127.223 1224.59 126.718V124.859H1222.91C1221.98 124.869 1221.25 125.041 1220.73 125.375C1220.2 125.703 1219.94 126.156 1219.94 126.734C1219.94 127.208 1220.11 127.601 1220.46 127.914C1220.82 128.226 1221.27 128.382 1221.84 128.382ZM1229.06 129.054H1228.12V120.601H1229.06V129.054ZM1227.96 118.156C1227.96 117.979 1228.02 117.83 1228.13 117.71C1228.25 117.585 1228.4 117.523 1228.6 117.523C1228.8 117.523 1228.96 117.585 1229.07 117.71C1229.19 117.83 1229.25 117.979 1229.25 118.156C1229.25 118.333 1229.19 118.481 1229.07 118.601C1228.96 118.721 1228.8 118.781 1228.6 118.781C1228.4 118.781 1228.25 118.721 1228.13 118.601C1228.02 118.481 1227.96 118.333 1227.96 118.156ZM1232.66 129.054H1231.72V117.054H1232.66V129.054ZM1235.12 128.492C1235.12 128.309 1235.17 128.156 1235.29 128.031C1235.41 127.901 1235.57 127.835 1235.78 127.835C1235.99 127.835 1236.15 127.901 1236.27 128.031C1236.39 128.156 1236.45 128.309 1236.45 128.492C1236.45 128.674 1236.39 128.825 1236.27 128.945C1236.15 129.059 1235.99 129.117 1235.78 129.117C1235.57 129.117 1235.41 129.059 1235.29 128.945C1235.17 128.825 1235.12 128.674 1235.12 128.492ZM1242.16 128.421C1242.81 128.421 1243.35 128.239 1243.79 127.875C1244.23 127.505 1244.47 127.028 1244.51 126.445H1245.41C1245.38 126.96 1245.22 127.432 1244.92 127.859C1244.62 128.281 1244.23 128.611 1243.73 128.851C1243.24 129.091 1242.72 129.21 1242.16 129.21C1241.05 129.21 1240.17 128.825 1239.52 128.054C1238.87 127.283 1238.55 126.247 1238.55 124.945V124.664C1238.55 123.83 1238.69 123.093 1238.98 122.453C1239.28 121.812 1239.69 121.317 1240.23 120.968C1240.78 120.619 1241.42 120.445 1242.15 120.445C1243.08 120.445 1243.84 120.721 1244.44 121.273C1245.04 121.825 1245.36 122.552 1245.41 123.453H1244.51C1244.47 122.791 1244.23 122.257 1243.79 121.851C1243.36 121.445 1242.81 121.242 1242.15 121.242C1241.3 121.242 1240.65 121.546 1240.18 122.156C1239.72 122.765 1239.48 123.619 1239.48 124.718V124.992C1239.48 126.07 1239.72 126.911 1240.18 127.515C1240.65 128.119 1241.31 128.421 1242.16 128.421ZM1246.77 124.703C1246.77 123.89 1246.92 123.158 1247.23 122.507C1247.55 121.856 1248 121.351 1248.57 120.992C1249.15 120.627 1249.8 120.445 1250.53 120.445C1251.66 120.445 1252.57 120.841 1253.27 121.632C1253.96 122.419 1254.31 123.463 1254.31 124.765V124.96C1254.31 125.778 1254.15 126.515 1253.84 127.171C1253.52 127.822 1253.08 128.325 1252.51 128.679C1251.93 129.033 1251.28 129.21 1250.55 129.21C1249.43 129.21 1248.52 128.817 1247.81 128.031C1247.11 127.239 1246.77 126.192 1246.77 124.89V124.703ZM1247.7 124.96C1247.7 125.971 1247.96 126.802 1248.48 127.453C1249.01 128.098 1249.7 128.421 1250.55 128.421C1251.39 128.421 1252.07 128.098 1252.59 127.453C1253.12 126.802 1253.38 125.945 1253.38 124.882V124.703C1253.38 124.057 1253.26 123.466 1253.02 122.929C1252.78 122.393 1252.45 121.979 1252.02 121.687C1251.58 121.39 1251.09 121.242 1250.53 121.242C1249.7 121.242 1249.02 121.57 1248.49 122.226C1247.97 122.877 1247.7 123.731 1247.7 124.789V124.96ZM1257.1 120.601L1257.13 121.976C1257.45 121.466 1257.84 121.083 1258.3 120.828C1258.77 120.572 1259.29 120.445 1259.87 120.445C1261.2 120.445 1262.05 120.992 1262.41 122.085C1262.71 121.559 1263.11 121.156 1263.62 120.875C1264.12 120.588 1264.68 120.445 1265.29 120.445C1267.1 120.445 1268.03 121.434 1268.06 123.414V129.054H1267.12V123.484C1267.12 122.729 1266.96 122.169 1266.63 121.804C1266.32 121.44 1265.79 121.257 1265.07 121.257C1264.4 121.268 1263.83 121.486 1263.37 121.914C1262.9 122.335 1262.65 122.851 1262.59 123.46V129.054H1261.66V123.414C1261.65 122.69 1261.48 122.151 1261.14 121.796C1260.81 121.437 1260.29 121.257 1259.59 121.257C1259.01 121.257 1258.5 121.427 1258.08 121.765C1257.66 122.098 1257.34 122.596 1257.14 123.257V129.054H1256.2V120.601H1257.1Z" fill="white"/>
<path d="M1151.92 177.273H1155.38V178.148H1151.92V181.914H1150.98V178.148H1147.59V177.273H1150.98V173.632H1151.92V177.273ZM1164.11 172.218L1159.25 183.054H1158.27L1163.1 172.476H1156.63V171.679H1164.11V172.218ZM1175.61 179.39H1177.38V180.179H1175.61V183.054H1174.67V180.179H1169.32V179.648L1174.59 171.679H1175.61V179.39ZM1170.47 179.39H1174.67V172.89L1174.26 173.609L1170.47 179.39ZM1184.58 177.789C1184.24 178.278 1183.83 178.658 1183.34 178.929C1182.84 179.195 1182.3 179.328 1181.73 179.328C1181.08 179.328 1180.51 179.161 1180.02 178.828C1179.52 178.494 1179.14 178.033 1178.87 177.445C1178.6 176.856 1178.46 176.213 1178.46 175.515C1178.46 174.765 1178.6 174.083 1178.89 173.468C1179.18 172.854 1179.59 172.377 1180.1 172.039C1180.62 171.695 1181.22 171.523 1181.9 171.523C1183.04 171.523 1183.93 171.924 1184.56 172.726C1185.2 173.523 1185.52 174.656 1185.52 176.125V176.968C1185.52 179.02 1185.08 180.562 1184.2 181.593C1183.33 182.625 1181.99 183.14 1180.2 183.14H1180.02L1180.03 182.328H1180.36C1181.72 182.307 1182.75 181.921 1183.46 181.171C1184.17 180.421 1184.54 179.294 1184.58 177.789ZM1181.84 178.523C1182.47 178.523 1183.03 178.338 1183.52 177.968C1184.02 177.593 1184.38 177.109 1184.59 176.515V175.976C1184.59 174.82 1184.34 173.924 1183.86 173.289C1183.38 172.648 1182.73 172.328 1181.91 172.328C1181.17 172.328 1180.57 172.627 1180.09 173.226C1179.62 173.82 1179.38 174.57 1179.38 175.476C1179.38 176.346 1179.61 177.072 1180.06 177.656C1180.52 178.234 1181.11 178.523 1181.84 178.523ZM1188.25 177.226L1188.8 171.679H1194.49V172.546H1189.61L1189.21 176.39C1189.82 175.973 1190.53 175.765 1191.35 175.765C1192.38 175.765 1193.2 176.098 1193.8 176.765C1194.41 177.432 1194.72 178.32 1194.72 179.429C1194.72 180.627 1194.42 181.557 1193.83 182.218C1193.23 182.88 1192.4 183.21 1191.32 183.21C1190.33 183.21 1189.53 182.934 1188.91 182.382C1188.3 181.83 1187.95 181.057 1187.86 180.062H1188.76C1188.85 180.838 1189.11 181.427 1189.55 181.828C1189.98 182.223 1190.58 182.421 1191.32 182.421C1192.13 182.421 1192.74 182.164 1193.16 181.648C1193.57 181.132 1193.78 180.398 1193.78 179.445C1193.78 178.611 1193.55 177.932 1193.09 177.406C1192.62 176.88 1191.99 176.617 1191.19 176.617C1190.74 176.617 1190.36 176.674 1190.03 176.789C1189.7 176.898 1189.36 177.114 1188.99 177.437L1188.25 177.226ZM1204.73 183.054H1203.8V172.804L1200.7 173.953V173.078L1204.58 171.64H1204.73V183.054ZM1216.27 172.218L1211.41 183.054H1210.43L1215.26 172.476H1208.79V171.679H1216.27V172.218ZM1224.84 174.609C1224.84 175.197 1224.66 175.726 1224.32 176.195C1223.98 176.658 1223.52 177 1222.96 177.218C1223.62 177.442 1224.14 177.804 1224.54 178.304C1224.93 178.804 1225.13 179.382 1225.13 180.039C1225.13 181.013 1224.8 181.786 1224.14 182.359C1223.48 182.927 1222.6 183.21 1221.52 183.21C1220.42 183.21 1219.54 182.927 1218.88 182.359C1218.22 181.791 1217.89 181.018 1217.89 180.039C1217.89 179.393 1218.08 178.817 1218.46 178.312C1218.84 177.807 1219.36 177.442 1220.02 177.218C1219.46 177 1219.01 176.658 1218.68 176.195C1218.35 175.726 1218.18 175.197 1218.18 174.609C1218.18 173.666 1218.48 172.916 1219.09 172.359C1219.7 171.802 1220.5 171.523 1221.5 171.523C1222.5 171.523 1223.3 171.804 1223.91 172.367C1224.53 172.929 1224.84 173.677 1224.84 174.609ZM1224.2 180.046C1224.2 179.338 1223.94 178.757 1223.44 178.304C1222.93 177.846 1222.29 177.617 1221.5 177.617C1220.71 177.617 1220.07 177.841 1219.57 178.289C1219.07 178.736 1218.82 179.322 1218.82 180.046C1218.82 180.77 1219.06 181.348 1219.55 181.781C1220.03 182.208 1220.69 182.421 1221.52 182.421C1222.32 182.421 1222.97 182.208 1223.46 181.781C1223.95 181.354 1224.2 180.776 1224.2 180.046ZM1223.9 174.601C1223.9 173.95 1223.67 173.408 1223.22 172.976C1222.77 172.539 1222.2 172.32 1221.5 172.32C1220.79 172.32 1220.22 172.531 1219.77 172.953C1219.34 173.369 1219.12 173.919 1219.12 174.601C1219.12 175.268 1219.34 175.804 1219.77 176.21C1220.22 176.617 1220.79 176.82 1221.51 176.82C1222.21 176.82 1222.78 176.617 1223.23 176.21C1223.67 175.799 1223.9 175.263 1223.9 174.601ZM1231.53 177.226L1232.09 171.679H1237.77V172.546H1232.89L1232.49 176.39C1233.1 175.973 1233.82 175.765 1234.63 175.765C1235.66 175.765 1236.48 176.098 1237.09 176.765C1237.7 177.432 1238 178.32 1238 179.429C1238 180.627 1237.7 181.557 1237.11 182.218C1236.52 182.88 1235.68 183.21 1234.6 183.21C1233.61 183.21 1232.81 182.934 1232.2 182.382C1231.58 181.83 1231.23 181.057 1231.14 180.062H1232.04C1232.13 180.838 1232.39 181.427 1232.83 181.828C1233.27 182.223 1233.86 182.421 1234.6 182.421C1235.41 182.421 1236.03 182.164 1236.44 181.648C1236.85 181.132 1237.06 180.398 1237.06 179.445C1237.06 178.611 1236.83 177.932 1236.37 177.406C1235.9 176.88 1235.27 176.617 1234.47 176.617C1234.03 176.617 1233.64 176.674 1233.31 176.789C1232.98 176.898 1232.64 177.114 1232.27 177.437L1231.53 177.226ZM1246.78 172.218L1241.92 183.054H1240.95L1245.77 172.476H1239.3V171.679H1246.78V172.218ZM1256.89 183.054H1255.95V172.804L1252.86 173.953V173.078L1256.73 171.64H1256.89V183.054ZM1268.42 172.218L1263.56 183.054H1262.59L1267.41 172.476H1260.95V171.679H1268.42V172.218Z" fill="white"/>
<path d="M165.438 72.1992V54.6445H167.312V63.9258H167.359L175.328 54.6445H177.812L171.156 62.2383L178.188 72.1992H175.844L169.938 63.5977L167.312 66.5977V72.1992H165.438ZM181.07 65.8945C181.07 67.4883 181.438 68.7539 182.172 69.6914C182.906 70.6289 183.82 71.0977 184.914 71.0977C185.992 71.0977 186.898 70.6289 187.633 69.6914C188.383 68.7539 188.758 67.4883 188.758 65.8945C188.758 64.2695 188.383 62.9961 187.633 62.0742C186.883 61.1523 185.977 60.6914 184.914 60.6914C183.836 60.6914 182.922 61.1523 182.172 62.0742C181.438 62.9961 181.07 64.2695 181.07 65.8945ZM179.242 65.8945C179.242 63.9727 179.734 62.3711 180.719 61.0898C181.719 59.8086 183.117 59.168 184.914 59.168C186.695 59.168 188.086 59.8086 189.086 61.0898C190.086 62.3711 190.586 63.9727 190.586 65.8945C190.586 66.707 190.477 67.4961 190.258 68.2617C190.055 69.0273 189.734 69.7461 189.297 70.418C188.875 71.0742 188.281 71.6055 187.516 72.0117C186.766 72.418 185.898 72.6211 184.914 72.6211C183.945 72.6211 183.078 72.4258 182.312 72.0352C181.562 71.6289 180.969 71.0977 180.531 70.4414C180.109 69.7695 179.789 69.0508 179.57 68.2852C179.352 67.5195 179.242 66.7227 179.242 65.8945ZM193.492 72.1992V59.5898H195.297V64.9336H201.906V59.5898H203.688V72.1992H201.906V66.457H195.297V72.1992H193.492ZM206.078 61.1133V59.5898H216.156V61.1133H212.031V72.1992H210.227V61.1133H206.078ZM219.461 68.9648C219.461 69.5586 219.711 70.0664 220.211 70.4883C220.711 70.8945 221.398 71.0977 222.273 71.0977C223.383 71.0977 224.328 70.7383 225.109 70.0195C225.906 69.3008 226.305 68.3867 226.305 67.2773V65.5195C225.617 65.6914 224.523 65.8945 223.023 66.1289C221.805 66.3477 220.906 66.6836 220.328 67.1367C219.75 67.5898 219.461 68.1992 219.461 68.9648ZM217.633 69.1055C217.633 66.7617 219.445 65.3086 223.07 64.7461C224.695 64.4805 225.773 64.2617 226.305 64.0898V63.3633C226.305 62.582 226.023 61.9336 225.461 61.418C224.898 60.9023 224.102 60.6445 223.07 60.6445C222.32 60.6445 221.594 60.8242 220.891 61.1836C220.203 61.5273 219.617 61.9961 219.133 62.5898L217.961 61.6055C218.586 60.8867 219.336 60.3008 220.211 59.8477C221.102 59.3945 222.039 59.168 223.023 59.168C226.398 59.168 228.086 60.8164 228.086 64.1133V72.1992H226.352V70.1367C226.102 70.8086 225.586 71.3945 224.805 71.8945C224.023 72.3789 223.102 72.6211 222.039 72.6211C220.648 72.6211 219.562 72.293 218.781 71.6367C218.016 70.9805 217.633 70.1367 217.633 69.1055ZM231.719 72.1992V59.5898H233.523V65.168L239.43 59.5898H241.82L235.492 65.543L242.031 72.1992H239.805L234.32 66.6914L233.523 67.4414V72.1992H231.719ZM242.406 61.1133V59.5898H252.484V61.1133H248.359V72.1992H246.555V61.1133H242.406ZM266.008 72.1992V59.5898H267.812V72.1992H266.008ZM254.852 72.1992V59.5898H256.68V64.7227H259.656C261.156 64.7227 262.281 65.0508 263.031 65.707C263.797 66.3477 264.18 67.2695 264.18 68.4727C264.18 69.5664 263.805 70.4648 263.055 71.168C262.32 71.8555 261.258 72.1992 259.867 72.1992H254.852ZM256.68 70.6523H259.75C261.484 70.6523 262.352 69.918 262.352 68.4492C262.352 66.9805 261.461 66.2461 259.68 66.2461H256.68V70.6523Z" fill="white"/>
<path d="M165.711 105.824L169.906 115.863L174.117 105.824H175.398V117.199H174.438V112.246L174.516 107.168L170.281 117.199H169.539L165.32 107.207L165.398 112.215V117.199H164.438V105.824H165.711ZM179.094 111.816H181.531C182.156 111.816 182.703 111.931 183.172 112.16C183.646 112.384 184.003 112.697 184.242 113.098C184.487 113.499 184.609 113.965 184.609 114.496C184.609 115.314 184.328 115.97 183.766 116.465C183.208 116.954 182.453 117.199 181.5 117.199H178.164V108.746H179.094V111.816ZM179.094 112.613V116.41H181.516C182.188 116.41 182.714 116.241 183.094 115.902C183.479 115.564 183.672 115.1 183.672 114.512C183.672 113.949 183.484 113.496 183.109 113.152C182.74 112.803 182.232 112.624 181.586 112.613H179.094ZM187.477 117.199H186.539V108.746H187.477V117.199ZM194.07 117.199V108.746H197.172C198.245 108.746 199.068 108.939 199.641 109.324C200.214 109.704 200.5 110.264 200.5 111.004C200.5 111.426 200.372 111.803 200.117 112.137C199.862 112.465 199.49 112.704 199 112.855C199.552 112.96 199.995 113.197 200.328 113.566C200.667 113.936 200.836 114.366 200.836 114.855C200.836 115.6 200.56 116.178 200.008 116.59C199.461 116.996 198.685 117.199 197.68 117.199H194.07ZM195 113.309V116.418H197.711C198.414 116.418 198.956 116.283 199.336 116.012C199.716 115.741 199.906 115.35 199.906 114.84C199.906 114.371 199.716 113.999 199.336 113.723C198.956 113.447 198.414 113.309 197.711 113.309H195ZM195 112.527H197.367C198.836 112.507 199.57 112.007 199.57 111.027C199.57 110.512 199.367 110.137 198.961 109.902C198.56 109.663 197.964 109.543 197.172 109.543H195V112.527ZM209.938 116.566C210.589 116.566 211.133 116.384 211.57 116.02C212.013 115.65 212.253 115.173 212.289 114.59H213.188C213.161 115.105 213 115.577 212.703 116.004C212.406 116.426 212.01 116.757 211.516 116.996C211.026 117.236 210.5 117.355 209.938 117.355C208.828 117.355 207.948 116.97 207.297 116.199C206.651 115.428 206.328 114.392 206.328 113.09V112.809C206.328 111.975 206.474 111.238 206.766 110.598C207.057 109.957 207.474 109.462 208.016 109.113C208.562 108.764 209.201 108.59 209.93 108.59C210.857 108.59 211.62 108.866 212.219 109.418C212.823 109.97 213.146 110.697 213.188 111.598H212.289C212.247 110.936 212.008 110.402 211.57 109.996C211.138 109.59 210.591 109.387 209.93 109.387C209.086 109.387 208.43 109.691 207.961 110.301C207.497 110.91 207.266 111.764 207.266 112.863V113.137C207.266 114.215 207.497 115.056 207.961 115.66C208.43 116.264 209.089 116.566 209.938 116.566ZM214.547 112.848C214.547 112.035 214.703 111.303 215.016 110.652C215.333 110.001 215.779 109.496 216.352 109.137C216.93 108.772 217.583 108.59 218.312 108.59C219.438 108.59 220.349 108.986 221.047 109.777C221.745 110.564 222.094 111.608 222.094 112.91V113.105C222.094 113.923 221.935 114.66 221.617 115.316C221.305 115.967 220.862 116.47 220.289 116.824C219.716 117.178 219.062 117.355 218.328 117.355C217.208 117.355 216.297 116.962 215.594 116.176C214.896 115.384 214.547 114.337 214.547 113.035V112.848ZM215.484 113.105C215.484 114.116 215.745 114.947 216.266 115.598C216.792 116.243 217.479 116.566 218.328 116.566C219.172 116.566 219.854 116.243 220.375 115.598C220.901 114.947 221.164 114.09 221.164 113.027V112.848C221.164 112.202 221.044 111.611 220.805 111.074C220.565 110.538 220.229 110.124 219.797 109.832C219.365 109.535 218.87 109.387 218.312 109.387C217.479 109.387 216.799 109.715 216.273 110.371C215.747 111.022 215.484 111.876 215.484 112.934V113.105ZM224.094 108.746H225.031V116.41H229.586V108.746H230.523V116.41H231.383L231.312 119.707H230.453V117.199H224.094V108.746ZM233.055 116.637C233.055 116.454 233.112 116.301 233.227 116.176C233.346 116.046 233.51 115.98 233.719 115.98C233.927 115.98 234.091 116.046 234.211 116.176C234.331 116.301 234.391 116.454 234.391 116.637C234.391 116.819 234.331 116.97 234.211 117.09C234.091 117.204 233.927 117.262 233.719 117.262C233.51 117.262 233.346 117.204 233.227 117.09C233.112 116.97 233.055 116.819 233.055 116.637ZM243.984 116.566C244.635 116.566 245.18 116.384 245.617 116.02C246.06 115.65 246.299 115.173 246.336 114.59H247.234C247.208 115.105 247.047 115.577 246.75 116.004C246.453 116.426 246.057 116.757 245.562 116.996C245.073 117.236 244.547 117.355 243.984 117.355C242.875 117.355 241.995 116.97 241.344 116.199C240.698 115.428 240.375 114.392 240.375 113.09V112.809C240.375 111.975 240.521 111.238 240.812 110.598C241.104 109.957 241.521 109.462 242.062 109.113C242.609 108.764 243.247 108.59 243.977 108.59C244.904 108.59 245.667 108.866 246.266 109.418C246.87 109.97 247.193 110.697 247.234 111.598H246.336C246.294 110.936 246.055 110.402 245.617 109.996C245.185 109.59 244.638 109.387 243.977 109.387C243.133 109.387 242.477 109.691 242.008 110.301C241.544 110.91 241.312 111.764 241.312 112.863V113.137C241.312 114.215 241.544 115.056 242.008 115.66C242.477 116.264 243.135 116.566 243.984 116.566ZM252.383 117.355C251.664 117.355 251.013 117.178 250.43 116.824C249.852 116.47 249.401 115.978 249.078 115.348C248.755 114.712 248.594 114.001 248.594 113.215V112.879C248.594 112.066 248.75 111.335 249.062 110.684C249.38 110.033 249.82 109.522 250.383 109.152C250.945 108.777 251.555 108.59 252.211 108.59C253.237 108.59 254.049 108.941 254.648 109.645C255.253 110.342 255.555 111.298 255.555 112.512V113.035H249.523V113.215C249.523 114.173 249.797 114.973 250.344 115.613C250.896 116.249 251.589 116.566 252.422 116.566C252.922 116.566 253.362 116.475 253.742 116.293C254.128 116.111 254.477 115.819 254.789 115.418L255.375 115.863C254.688 116.858 253.69 117.355 252.383 117.355ZM252.211 109.387C251.508 109.387 250.914 109.645 250.43 110.16C249.951 110.676 249.659 111.368 249.555 112.238H254.625V112.137C254.599 111.324 254.367 110.663 253.93 110.152C253.492 109.642 252.919 109.387 252.211 109.387ZM263.352 109.543H260.273V117.199H259.336V109.543H256.375V108.746H263.352V109.543ZM271.055 108.746V117.199H270.117V113.793H267.492L265.43 117.199H264.398L266.523 113.676C265.945 113.525 265.495 113.233 265.172 112.801C264.854 112.368 264.695 111.858 264.695 111.27C264.695 110.504 264.969 109.892 265.516 109.434C266.068 108.975 266.812 108.746 267.75 108.746H271.055ZM265.633 111.285C265.633 111.78 265.789 112.186 266.102 112.504C266.419 112.822 266.859 112.986 267.422 112.996H270.117V109.543H267.727C267.076 109.543 266.562 109.699 266.188 110.012C265.818 110.324 265.633 110.749 265.633 111.285ZM276.234 112.176L278.516 108.746H279.625L276.758 112.895L279.75 117.199H278.648L276.242 113.621L273.836 117.199H272.734L275.719 112.895L272.852 108.746H273.953L276.234 112.176Z" fill="white"/>
<path d="M181 166.199H178C176.674 166.199 175.402 166.726 174.464 167.664C173.527 168.601 173 169.873 173 171.199V174.199H170V178.199H173V186.199H177V178.199H180L181 174.199H177V171.199C177 170.934 177.105 170.68 177.293 170.492C177.48 170.305 177.735 170.199 178 170.199H181V166.199Z" stroke="white" stroke-width="2" stroke-linecap="round" stroke-linejoin="round"/>
<path d="M224 166.199H214C211.239 166.199 209 168.438 209 171.199V181.199C209 183.961 211.239 186.199 214 186.199H224C226.761 186.199 229 183.961 229 181.199V171.199C229 168.438 226.761 166.199 224 166.199Z" stroke="white" stroke-width="2" stroke-linecap="round" stroke-linejoin="round"/>
<path d="M223 175.569C223.123 176.401 222.981 177.251 222.594 177.998C222.206 178.745 221.593 179.35 220.842 179.729C220.09 180.107 219.238 180.239 218.408 180.105C217.577 179.971 216.81 179.579 216.215 178.984C215.62 178.389 215.228 177.622 215.094 176.791C214.96 175.961 215.092 175.109 215.47 174.357C215.849 173.606 216.454 172.993 217.201 172.605C217.948 172.218 218.798 172.076 219.63 172.199C220.479 172.325 221.265 172.72 221.872 173.327C222.479 173.934 222.874 174.72 223 175.569Z" stroke="white" stroke-width="2" stroke-linecap="round" stroke-linejoin="round"/>
<path d="M224.5 170.699H224.51" stroke="white" stroke-width="2" stroke-linecap="round" stroke-linejoin="round"/>
<path d="M266 174.199L262 178.199L268 184.199L272 168.199L254 175.199L258 177.199L260 183.199L263 179.199" stroke="white" stroke-width="2" stroke-linecap="round" stroke-linejoin="round"/>
<path d="M316 173.258C316 171.38 315.276 169.609 313.961 168.272C312.646 166.935 310.905 166.199 309.057 166.199H304.943C304.943 166.199 304.943 166.199 304.943 166.199C303.095 166.199 301.354 166.935 300.039 168.272C298.724 169.609 298 171.38 298 173.258V176.546C298 178.001 298.436 179.4 299.262 180.593C299.991 181.645 300.97 182.467 302.113 182.988V184.876C302.113 185.853 302.65 186.199 303.111 186.199C303.44 186.199 303.769 186.034 304.089 185.709L306.159 183.605L309.057 183.605C310.905 183.605 312.646 182.868 313.961 181.532C315.276 180.195 316 178.424 316 176.546L316 173.258ZM309.057 182.433L305.92 182.433C305.767 182.433 305.621 182.495 305.512 182.604L303.274 184.88C303.271 184.883 303.268 184.886 303.265 184.889C303.265 184.885 303.265 184.88 303.265 184.876V182.597C303.265 182.354 303.118 182.136 302.895 182.049C300.656 181.181 299.153 178.969 299.153 176.546V173.258C299.153 171.693 299.757 170.216 300.854 169.101C301.951 167.985 303.403 167.371 304.943 167.371H309.057C310.597 167.371 312.049 167.985 313.146 169.101C314.243 170.216 314.847 171.693 314.847 173.258L314.847 176.546C314.847 179.792 312.25 182.433 309.057 182.433Z" fill="white" stroke="white" stroke-width="0.6"/>
<path d="M308.675 176.113C308.453 175.891 308.092 175.891 307.87 176.113L307.409 176.573L305.626 174.79L306.086 174.33C306.193 174.223 306.253 174.078 306.253 173.927C306.253 173.776 306.193 173.631 306.086 173.524L303.929 171.366C303.822 171.259 303.677 171.199 303.526 171.199C303.375 171.199 303.23 171.259 303.123 171.366L301.613 172.877C300.796 173.694 300.796 175.023 301.613 175.84L306.359 180.587C306.754 180.982 307.28 181.199 307.841 181.199C308.402 181.199 308.928 180.982 309.323 180.587L310.833 179.077C310.94 178.97 311 178.825 311 178.674C311 178.523 310.94 178.378 310.833 178.271L308.675 176.113ZM308.517 179.781C308.337 179.961 308.097 180.06 307.841 180.06C307.584 180.06 307.344 179.961 307.165 179.781L302.419 175.034C302.046 174.662 302.046 174.055 302.418 173.682L303.526 172.575L304.878 173.927L304.417 174.387C304.311 174.494 304.25 174.639 304.25 174.79C304.25 174.941 304.311 175.086 304.417 175.193L307.006 177.782C307.229 178.005 307.59 178.005 307.812 177.782L308.272 177.322L309.624 178.674L308.517 179.781Z" fill="white" stroke="white" stroke-width="0.6"/>
<path d="M307.519 169.199C307.232 169.199 307 169.431 307 169.718C307 170.004 307.232 170.237 307.519 170.237C308.706 170.237 309.822 170.699 310.661 171.538C311.5 172.378 311.963 173.493 311.963 174.681C311.963 174.967 312.195 175.199 312.481 175.199C312.768 175.199 313 174.967 313 174.681C313 173.216 312.43 171.84 311.395 170.805C310.359 169.769 308.983 169.199 307.519 169.199Z" fill="white" stroke="white" stroke-width="0.6"/>
<path d="M309.902 174.65C309.902 174.953 310.148 175.199 310.451 175.199C310.754 175.199 311 174.953 311 174.65C311 172.747 309.452 171.199 307.549 171.199C307.246 171.199 307 171.445 307 171.748C307 172.052 307.246 172.298 307.549 172.298C308.846 172.298 309.902 173.353 309.902 174.65Z" fill="white" stroke="white" stroke-width="0.6"/>
</mask>
<g mask="url(#mask0_211_4029)">
<path d="M16.2 249.344C16.2 246.884 14.2 244.916 11.7 244.916C9.19995 244.916 7.19995 246.884 7.19995 249.344C7.19995 251.804 9.19995 253.772 11.7 253.772C14.2 253.772 16.2 251.804 16.2 249.344Z" fill="#231F20"/>
<path d="M70.7 249.344C70.7 245.309 67.4 242.062 63.3 242.062C59.2 242.062 55.9 245.309 55.9 249.344C55.9 253.378 59.2 256.625 63.3 256.625C67.4 256.527 70.7 253.28 70.7 249.344Z" fill="#231F20"/>
<path d="M118.8 249.347C118.8 247.281 117.1 245.608 115 245.608C112.9 245.608 111.2 247.281 111.2 249.347C111.2 251.413 112.9 253.086 115 253.086C117.1 253.086 118.8 251.413 118.8 249.347Z" fill="#231F20"/>
<path d="M176.1 249.346C176.1 244.229 171.8 239.998 166.6 239.998C161.4 239.998 157.1 244.131 157.1 249.346C157.1 254.463 161.3 258.694 166.6 258.694C171.9 258.596 176.1 254.463 176.1 249.346Z" fill="#231F20"/>
<path d="M274.7 249.346C274.7 246.689 272.6 244.623 269.9 244.623C267.3 244.623 265.1 246.689 265.1 249.346C265.1 251.905 267.2 254.069 269.9 254.069C272.5 253.971 274.7 251.905 274.7 249.346Z" fill="#231F20"/>
<path d="M325.4 249.345C325.4 247.279 323.7 245.508 321.5 245.508C319.4 245.508 317.6 247.181 317.6 249.345C317.6 251.412 319.3 253.183 321.5 253.183C323.7 253.085 325.4 251.412 325.4 249.345Z" fill="#231F20"/>
<path d="M381.3 249.344C381.3 244.916 377.7 241.374 373.2 241.374C368.7 241.374 365.1 244.916 365.1 249.344C365.1 253.772 368.7 257.315 373.2 257.315C377.6 257.315 381.3 253.674 381.3 249.344Z" fill="#231F20"/>
<path d="M533.6 249.348C533.6 246.396 531.1 243.936 528.1 243.936C525.1 243.936 522.6 246.396 522.6 249.348C522.6 252.3 525.1 254.76 528.1 254.76C531.1 254.76 533.6 252.3 533.6 249.348Z" fill="#231F20"/>
<path d="M588 249.343C588 244.817 584.3 241.078 579.6 241.078C575 241.078 571.2 244.718 571.2 249.343C571.2 253.87 574.9 257.609 579.6 257.609C584.3 257.51 588 253.87 588 249.343Z" fill="#231F20"/>
<path d="M635.5 249.344C635.5 247.081 633.6 245.211 631.3 245.211C629 245.211 627.1 247.081 627.1 249.344C627.1 251.607 629 253.477 631.3 253.477C633.6 253.379 635.5 251.607 635.5 249.344Z" fill="#231F20"/>
<path d="M794.1 249.343C794.1 245.014 790.6 241.57 786.2 241.57C781.8 241.57 778.3 245.014 778.3 249.343C778.3 253.673 781.8 257.117 786.2 257.117C790.6 257.019 794.1 253.575 794.1 249.343Z" fill="#231F20"/>
<path d="M898.1 249.344C898.1 244.719 894.3 240.881 889.5 240.881C884.8 240.881 880.9 244.621 880.9 249.344C880.9 253.969 884.7 257.806 889.5 257.806C894.2 257.708 898.1 253.969 898.1 249.344Z" fill="#231F20"/>
<path d="M948.7 249.345C948.7 245.212 945.3 241.866 941.1 241.866C936.9 241.866 933.5 245.212 933.5 249.345C933.5 253.477 936.9 256.823 941.1 256.823C945.3 256.725 948.7 253.379 948.7 249.345Z" fill="#231F20"/>
<path d="M1052.4 249.347C1052.4 245.017 1048.8 241.475 1044.4 241.475C1040 241.475 1036.4 245.017 1036.4 249.347C1036.4 253.676 1040 257.219 1044.4 257.219C1048.8 257.12 1052.4 253.676 1052.4 249.347Z" fill="#231F20"/>
<path d="M1155.9 249.348C1155.9 244.92 1152.2 241.279 1147.7 241.279C1143.2 241.279 1139.5 244.92 1139.5 249.348C1139.5 253.776 1143.2 257.416 1147.7 257.416C1152.2 257.416 1155.9 253.776 1155.9 249.348Z" fill="#231F20"/>
<path d="M1259.2 249.345C1259.2 244.819 1255.5 241.178 1250.9 241.178C1246.3 241.178 1242.6 244.819 1242.6 249.345C1242.6 253.871 1246.3 257.512 1250.9 257.512C1255.5 257.414 1259.2 253.773 1259.2 249.345Z" fill="#231F20"/>
<path d="M1312.3 249.344C1312.3 244.031 1307.9 239.701 1302.5 239.701C1297.1 239.701 1292.7 244.031 1292.7 249.344C1292.7 254.658 1297.1 258.988 1302.5 258.988C1308 258.889 1312.3 254.56 1312.3 249.344Z" fill="#231F20"/>
<path d="M1357.9 249.345C1357.9 247.377 1356.3 245.704 1354.2 245.704C1352.2 245.704 1350.5 247.278 1350.5 249.345C1350.5 251.313 1352.1 252.986 1354.2 252.986C1356.2 252.887 1357.9 251.313 1357.9 249.345Z" fill="#231F20"/>
<path d="M1415.4 249.346C1415.4 244.229 1411.1 239.998 1405.9 239.998C1400.7 239.998 1396.4 244.229 1396.4 249.346C1396.4 254.463 1400.7 258.694 1405.9 258.694C1411.1 258.694 1415.4 254.463 1415.4 249.346Z" fill="#231F20"/>
<path d="M17.2 187.551C17.2 184.5 14.7 182.139 11.7 182.139C8.59995 182.139 6.19995 184.599 6.19995 187.551C6.19995 190.601 8.69995 192.963 11.7 192.963C14.8 192.963 17.2 190.503 17.2 187.551Z" fill="#231F20"/>
<path d="M71.5 187.551C71.5 183.123 67.8 179.482 63.3 179.482C58.8 179.482 55.1 183.123 55.1 187.551C55.1 191.979 58.8 195.62 63.3 195.62C67.9 195.62 71.5 191.979 71.5 187.551Z" fill="#231F20"/>
<path d="M117.4 187.55C117.4 186.271 116.3 185.188 115 185.188C113.7 185.188 112.6 186.271 112.6 187.55C112.6 188.829 113.7 189.912 115 189.912C116.3 189.912 117.4 188.829 117.4 187.55Z" fill="#231F20"/>
<path d="M176.4 187.548C176.4 182.234 172 177.905 166.6 177.905C161.2 177.905 156.8 182.234 156.8 187.548C156.8 192.862 161.2 197.191 166.6 197.191C172 197.093 176.4 192.862 176.4 187.548Z" fill="#231F20"/>
<path d="M223 187.55C223 184.992 220.9 182.827 218.2 182.827C215.6 182.827 213.4 184.894 213.4 187.55C213.4 190.109 215.5 192.274 218.2 192.274C220.9 192.175 223 190.109 223 187.55Z" fill="#231F20"/>
<path d="M272.2 187.552C272.2 186.273 271.2 185.289 269.9 185.289C268.6 185.289 267.6 186.273 267.6 187.552C267.6 188.831 268.6 189.815 269.9 189.815C271.1 189.815 272.2 188.733 272.2 187.552Z" fill="#231F20"/>
<path d="M330.8 187.551C330.8 182.532 326.7 178.498 321.6 178.498C316.5 178.498 312.4 182.532 312.4 187.551C312.4 192.569 316.5 196.604 321.6 196.604C326.6 196.604 330.8 192.569 330.8 187.551Z" fill="#231F20"/>
<path d="M377.4 187.551C377.4 185.189 375.5 183.319 373.1 183.319C370.7 183.319 368.8 185.189 368.8 187.551C368.8 189.912 370.7 191.782 373.1 191.782C375.5 191.683 377.4 189.814 377.4 187.551Z" fill="#231F20"/>
<path d="M426 187.55C426 186.96 425.5 186.369 424.8 186.369C424.2 186.369 423.6 186.861 423.6 187.55C423.6 188.14 424.1 188.731 424.8 188.731C425.4 188.731 426 188.14 426 187.55Z" fill="#231F20"/>
<path d="M480.2 187.551C480.2 185.484 478.5 183.812 476.4 183.812C474.3 183.812 472.6 185.484 472.6 187.551C472.6 189.617 474.3 191.29 476.4 191.29C478.5 191.29 480.2 189.617 480.2 187.551Z" fill="#231F20"/>
<path d="M529.5 187.55C529.5 186.763 528.9 186.173 528.1 186.173C527.3 186.173 526.7 186.763 526.7 187.55C526.7 188.338 527.3 188.928 528.1 188.928C528.9 188.928 529.5 188.338 529.5 187.55Z" fill="#231F20"/>
<path d="M585.9 187.552C585.9 184.207 583.1 181.452 579.7 181.452C576.3 181.452 573.5 184.207 573.5 187.552C573.5 190.898 576.3 193.653 579.7 193.653C583.1 193.653 585.9 190.898 585.9 187.552Z" fill="#231F20"/>
<path d="M633 187.55C633 186.664 632.2 185.877 631.3 185.877C630.4 185.877 629.6 186.664 629.6 187.55C629.6 188.435 630.4 189.223 631.3 189.223C632.3 189.223 633 188.435 633 187.55Z" fill="#231F20"/>
<path d="M692 187.549C692 182.629 688 178.693 683 178.693C678 178.693 674 182.629 674 187.549C674 192.469 678 196.405 683 196.405C688 196.405 692 192.469 692 187.549Z" fill="#231F20"/>
<path d="M740.9 187.55C740.9 184.106 738.1 181.351 734.6 181.351C731.1 181.351 728.3 184.106 728.3 187.55C728.3 190.994 731.1 193.749 734.6 193.749C738.1 193.651 740.9 190.895 740.9 187.55Z" fill="#231F20"/>
<path d="M790.2 187.552C790.2 185.387 788.4 183.616 786.2 183.616C784 183.616 782.2 185.387 782.2 187.552C782.2 189.717 784 191.488 786.2 191.488C788.4 191.488 790.2 189.717 790.2 187.552Z" fill="#231F20"/>
<path d="M845.3 187.553C845.3 183.518 842 180.271 837.9 180.271C833.8 180.271 830.5 183.518 830.5 187.553C830.5 191.587 833.8 194.834 837.9 194.834C841.9 194.834 845.3 191.587 845.3 187.553Z" fill="#231F20"/>
<path d="M892.3 187.551C892.3 186.075 891.1 184.796 889.5 184.796C888 184.796 886.7 185.977 886.7 187.551C886.7 189.027 887.9 190.306 889.5 190.306C891 190.306 892.3 189.027 892.3 187.551Z" fill="#231F20"/>
<path d="M948.3 187.552C948.3 183.616 945.1 180.467 941.1 180.467C937.1 180.467 933.9 183.616 933.9 187.552C933.9 191.488 937.1 194.636 941.1 194.636C945.1 194.636 948.3 191.488 948.3 187.552Z" fill="#231F20"/>
<path d="M997.9 187.55C997.9 184.794 995.6 182.531 992.8 182.531C990 182.531 987.7 184.794 987.7 187.55C987.7 190.305 990 192.568 992.8 192.568C995.6 192.568 997.9 190.305 997.9 187.55Z" fill="#231F20"/>
<path d="M1053.9 187.549C1053.9 182.432 1049.6 178.201 1044.4 178.201C1039.1 178.201 1034.9 182.432 1034.9 187.549C1034.9 192.666 1039.1 196.897 1044.4 196.897C1049.7 196.897 1053.9 192.666 1053.9 187.549Z" fill="#231F20"/>
<path d="M1099.5 187.552C1099.5 185.682 1097.9 184.108 1096 184.108C1094.1 184.108 1092.5 185.682 1092.5 187.552C1092.5 189.422 1094.1 190.996 1096 190.996C1098 190.996 1099.5 189.422 1099.5 187.552Z" fill="#231F20"/>
<path d="M1157.1 187.551C1157.1 182.435 1152.9 178.302 1147.7 178.302C1142.5 178.302 1138.3 182.435 1138.3 187.551C1138.3 192.668 1142.5 196.801 1147.7 196.801C1152.9 196.801 1157.1 192.668 1157.1 187.551Z" fill="#231F20"/>
<path d="M1206.7 187.553C1206.7 183.518 1203.4 180.271 1199.3 180.271C1195.2 180.271 1191.9 183.518 1191.9 187.553C1191.9 191.587 1195.2 194.834 1199.3 194.834C1203.4 194.834 1206.7 191.587 1206.7 187.553Z" fill="#231F20"/>
<path d="M1256.2 187.55C1256.2 184.697 1253.8 182.335 1250.9 182.335C1248 182.335 1245.6 184.697 1245.6 187.55C1245.6 190.404 1248 192.765 1250.9 192.765C1253.9 192.765 1256.2 190.404 1256.2 187.55Z" fill="#231F20"/>
<path d="M1303.6 187.548C1303.6 186.958 1303.1 186.564 1302.6 186.564C1302 186.564 1301.6 187.056 1301.6 187.548C1301.6 188.138 1302.1 188.532 1302.6 188.532C1303.1 188.532 1303.6 188.04 1303.6 187.548Z" fill="#231F20"/>
<path d="M1361.6 187.553C1361.6 183.518 1358.3 180.271 1354.2 180.271C1350.1 180.271 1346.8 183.518 1346.8 187.553C1346.8 191.587 1350.1 194.834 1354.2 194.834C1358.3 194.834 1361.6 191.587 1361.6 187.553Z" fill="#231F20"/>
<path d="M1411.1 187.55C1411.1 184.697 1408.7 182.335 1405.8 182.335C1402.9 182.335 1400.5 184.697 1400.5 187.55C1400.5 190.404 1402.9 192.765 1405.8 192.765C1408.8 192.765 1411.1 190.404 1411.1 187.55Z" fill="#231F20"/>
<path d="M17.5 125.754C17.5 122.605 14.9 120.046 11.7 120.046C8.49995 120.046 5.90002 122.605 5.90002 125.754C5.90002 128.902 8.49995 131.461 11.7 131.461C14.9 131.461 17.5 128.902 17.5 125.754Z" fill="#231F20"/>
<path d="M66.2 125.755C66.2 124.181 64.9 123 63.4 123C61.9 123 60.6 124.279 60.6 125.755C60.6 127.231 61.9 128.51 63.4 128.51C64.9 128.51 66.2 127.33 66.2 125.755Z" fill="#231F20"/>
<path d="M117.6 125.755C117.6 124.279 116.4 123.196 115 123.196C113.5 123.196 112.4 124.377 112.4 125.755C112.4 127.231 113.6 128.313 115 128.313C116.5 128.411 117.6 127.231 117.6 125.755Z" fill="#231F20"/>
<path d="M173.2 125.758C173.2 122.117 170.2 119.263 166.6 119.263C163 119.263 160 122.215 160 125.758C160 129.3 163 132.252 166.6 132.252C170.3 132.252 173.2 129.398 173.2 125.758Z" fill="#231F20"/>
<path d="M222.8 125.753C222.8 123.293 220.7 121.227 218.2 121.227C215.7 121.227 213.6 123.293 213.6 125.753C213.6 128.213 215.7 130.28 218.2 130.28C220.8 130.28 222.8 128.312 222.8 125.753Z" fill="#231F20"/>
<path d="M279.5 125.756C279.5 120.541 275.2 116.31 269.9 116.31C264.6 116.31 260.3 120.541 260.3 125.756C260.3 130.971 264.6 135.202 269.9 135.202C275.2 135.202 279.5 130.971 279.5 125.756Z" fill="#231F20"/>
<path d="M327.4 125.754C327.4 122.605 324.8 120.046 321.6 120.046C318.4 120.046 315.8 122.605 315.8 125.754C315.8 128.902 318.4 131.461 321.6 131.461C324.8 131.559 327.4 129.001 327.4 125.754Z" fill="#231F20"/>
<path d="M374.4 125.756C374.4 125.067 373.8 124.477 373.1 124.477C372.4 124.477 371.8 125.067 371.8 125.756C371.8 126.445 372.4 127.035 373.1 127.035C373.9 127.035 374.4 126.445 374.4 125.756Z" fill="#231F20"/>
<path d="M434.4 125.756C434.4 120.541 430.1 116.31 424.8 116.31C419.5 116.31 415.2 120.541 415.2 125.756C415.2 130.971 419.5 135.202 424.8 135.202C430.1 135.202 434.4 130.971 434.4 125.756Z" fill="#231F20"/>
<path d="M480.3 125.753C480.3 123.588 478.6 121.916 476.4 121.916C474.2 121.916 472.5 123.588 472.5 125.753C472.5 127.918 474.2 129.591 476.4 129.591C478.6 129.591 480.3 127.918 480.3 125.753Z" fill="#231F20"/>
<path d="M534 125.755C534 122.507 531.3 119.851 528 119.851C524.7 119.851 522 122.507 522 125.755C522 129.002 524.7 131.659 528 131.659C531.4 131.659 534 129.002 534 125.755Z" fill="#231F20"/>
<path d="M581.8 125.755C581.8 124.574 580.8 123.688 579.7 123.688C578.5 123.688 577.6 124.672 577.6 125.755C577.6 126.936 578.6 127.821 579.7 127.821C580.9 127.92 581.8 126.936 581.8 125.755Z" fill="#231F20"/>
<path d="M634.7 125.755C634.7 123.984 633.2 122.508 631.4 122.508C629.6 122.508 628.1 123.984 628.1 125.755C628.1 127.526 629.6 129.002 631.4 129.002C633.2 129.101 634.7 127.625 634.7 125.755Z" fill="#231F20"/>
<path d="M692.4 125.753C692.4 120.636 688.2 116.405 682.9 116.405C677.7 116.405 673.4 120.538 673.4 125.753C673.4 130.87 677.6 135.101 682.9 135.101C688.2 135.101 692.4 130.87 692.4 125.753Z" fill="#231F20"/>
<path d="M737.5 125.754C737.5 124.179 736.2 122.9 734.6 122.9C733 122.9 731.7 124.179 731.7 125.754C731.7 127.328 733 128.607 734.6 128.607C736.2 128.607 737.5 127.328 737.5 125.754Z" fill="#231F20"/>
<path d="M795.6 125.755C795.6 120.639 791.4 116.506 786.2 116.506C781 116.506 776.9 120.639 776.9 125.755C776.9 130.872 781.1 135.005 786.2 135.005C791.4 135.005 795.6 130.872 795.6 125.755Z" fill="#231F20"/>
<path d="M844.1 125.755C844.1 122.41 841.3 119.654 837.9 119.654C834.5 119.654 831.7 122.41 831.7 125.755C831.7 129.101 834.5 131.856 837.9 131.856C841.3 131.954 844.1 129.199 844.1 125.755Z" fill="#231F20"/>
<path d="M893.5 125.755C893.5 123.591 891.7 121.819 889.5 121.819C887.3 121.819 885.5 123.591 885.5 125.755C885.5 127.92 887.3 129.691 889.5 129.691C891.7 129.691 893.5 127.92 893.5 125.755Z" fill="#231F20"/>
<path d="M949.4 125.754C949.4 121.326 945.7 117.686 941.2 117.686C936.7 117.686 933 121.326 933 125.754C933 130.182 936.7 133.823 941.2 133.823C945.7 133.823 949.4 130.281 949.4 125.754Z" fill="#231F20"/>
<path d="M996.7 125.753C996.7 123.687 995 121.916 992.8 121.916C990.7 121.916 988.9 123.588 988.9 125.753C988.9 127.82 990.6 129.591 992.8 129.591C994.9 129.591 996.7 127.918 996.7 125.753Z" fill="#231F20"/>
<path d="M1048.9 125.755C1048.9 123.295 1046.9 121.327 1044.4 121.327C1041.9 121.327 1039.9 123.295 1039.9 125.755C1039.9 128.215 1041.9 130.183 1044.4 130.183C1046.9 130.183 1048.9 128.215 1048.9 125.755Z" fill="#231F20"/>
<path d="M1103.1 125.757C1103.1 121.92 1099.9 118.771 1096 118.771C1092.1 118.771 1088.9 121.92 1088.9 125.757C1088.9 129.595 1092.1 132.744 1096 132.744C1099.9 132.744 1103.1 129.595 1103.1 125.757Z" fill="#231F20"/>
<path d="M1155.3 125.757C1155.3 121.624 1151.9 118.279 1147.7 118.279C1143.5 118.279 1140.1 121.624 1140.1 125.757C1140.1 129.89 1143.5 133.236 1147.7 133.236C1151.9 133.236 1155.3 129.89 1155.3 125.757Z" fill="#231F20"/>
<path d="M1204.1 125.754C1204.1 123.196 1202 121.031 1199.3 121.031C1196.7 121.031 1194.5 123.098 1194.5 125.754C1194.5 128.313 1196.7 130.478 1199.3 130.478C1201.9 130.478 1204.1 128.411 1204.1 125.754Z" fill="#231F20"/>
<path d="M1259.8 125.756C1259.8 120.934 1255.8 116.998 1250.9 116.998C1246 116.998 1242 120.934 1242 125.756C1242 130.577 1246 134.513 1250.9 134.513C1255.8 134.513 1259.8 130.577 1259.8 125.756Z" fill="#231F20"/>
<path d="M1309.4 125.753C1309.4 122.014 1306.3 119.062 1302.6 119.062C1298.8 119.062 1295.8 122.112 1295.8 125.753C1295.8 129.492 1298.9 132.444 1302.6 132.444C1306.4 132.543 1309.4 129.492 1309.4 125.753Z" fill="#231F20"/>
<path d="M1359.9 125.755C1359.9 122.705 1357.4 120.146 1354.2 120.146C1351.1 120.146 1348.5 122.705 1348.5 125.755C1348.5 128.806 1351.1 131.364 1354.2 131.364C1357.4 131.364 1359.9 128.904 1359.9 125.755Z" fill="#231F20"/>
<path d="M1414.2 125.755C1414.2 121.228 1410.5 117.587 1405.9 117.587C1401.3 117.587 1397.6 121.228 1397.6 125.755C1397.6 130.281 1401.3 133.922 1405.9 133.922C1410.4 133.922 1414.2 130.281 1414.2 125.755Z" fill="#231F20"/>
<path d="M16.7 64.0587C16.7 61.3035 14.5 59.1387 11.7 59.1387C8.89995 59.1387 6.69995 61.3035 6.69995 64.0587C6.69995 66.8139 8.89995 68.9787 11.7 68.9787C14.5 68.9787 16.7 66.7155 16.7 64.0587Z" fill="#231F20"/>
<path d="M73.1 64.0616C73.1 58.748 68.7 54.4185 63.3 54.4185C57.9 54.4185 53.5 58.748 53.5 64.0616C53.5 69.3752 57.9 73.7048 63.3 73.7048C68.8 73.7048 73.1 69.3752 73.1 64.0616Z" fill="#231F20"/>
<path d="M116.4 64.0582C116.4 63.271 115.8 62.6807 115 62.6807C114.2 62.6807 113.6 63.271 113.6 64.0582C113.6 64.8454 114.2 65.4359 115 65.4359C115.7 65.3375 116.4 64.747 116.4 64.0582Z" fill="#231F20"/>
<path d="M170 64.057C170 62.1874 168.5 60.7114 166.6 60.7114C164.7 60.7114 163.2 62.1874 163.2 64.057C163.2 65.9266 164.7 67.4026 166.6 67.4026C168.5 67.4026 170 65.8282 170 64.057Z" fill="#231F20"/>
<path d="M226 64.0592C226 59.828 222.5 56.4824 218.3 56.4824C214 56.4824 210.6 59.9264 210.6 64.0592C210.6 68.2904 214.1 71.636 218.3 71.636C222.5 71.636 226 68.192 226 64.0592Z" fill="#231F20"/>
<path d="M278.5 64.0605C278.5 59.3373 274.7 55.5981 269.9 55.5981C265.1 55.5981 261.3 59.4357 261.3 64.0605C261.3 68.7837 265.2 72.523 269.9 72.523C274.7 72.523 278.5 68.6853 278.5 64.0605Z" fill="#231F20"/>
<path d="M327.9 64.0607C327.9 60.6167 325 57.7632 321.5 57.7632C318 57.7632 315.1 60.6167 315.1 64.0607C315.1 67.5047 318 70.3584 321.5 70.3584C325.1 70.3584 327.9 67.5047 327.9 64.0607Z" fill="#231F20"/>
<path d="M378.5 64.0582C378.5 61.1062 376.1 58.7446 373.1 58.7446C370.1 58.7446 367.7 61.1062 367.7 64.0582C367.7 67.0102 370.1 69.3718 373.1 69.3718C376.1 69.2734 378.5 66.9118 378.5 64.0582Z" fill="#231F20"/>
<path d="M429.5 64.0608C429.5 61.5024 427.4 59.436 424.8 59.436C422.2 59.436 420.1 61.5024 420.1 64.0608C420.1 66.6192 422.2 68.6857 424.8 68.6857C427.4 68.6857 429.5 66.6192 429.5 64.0608Z" fill="#231F20"/>
<path d="M481.5 64.0574C481.5 61.3022 479.2 59.0391 476.4 59.0391C473.6 59.0391 471.3 61.3022 471.3 64.0574C471.3 66.8126 473.6 69.0759 476.4 69.0759C479.2 68.9775 481.5 66.8126 481.5 64.0574Z" fill="#231F20"/>
<path d="M529.5 64.0582C529.5 63.271 528.9 62.6807 528.1 62.6807C527.3 62.6807 526.7 63.271 526.7 64.0582C526.7 64.8454 527.3 65.4359 528.1 65.4359C528.8 65.4359 529.5 64.8454 529.5 64.0582Z" fill="#231F20"/>
<path d="M583.6 64.0568C583.6 61.892 581.8 60.2192 579.7 60.2192C577.5 60.2192 575.8 61.9904 575.8 64.0568C575.8 66.2216 577.6 67.8944 579.7 67.8944C581.9 67.8944 583.6 66.1232 583.6 64.0568Z" fill="#231F20"/>
<path d="M640.8 64.057C640.8 58.9402 636.6 54.709 631.3 54.709C626.1 54.709 621.8 58.8418 621.8 64.057C621.8 69.1738 626 73.405 631.3 73.405C636.6 73.3066 640.8 69.1738 640.8 64.057Z" fill="#231F20"/>
<path d="M684 64.0558C684 63.4654 683.5 63.0718 683 63.0718C682.4 63.0718 682 63.5638 682 64.0558C682 64.6462 682.5 65.0398 683 65.0398C683.5 65.0398 684 64.5478 684 64.0558Z" fill="#231F20"/>
<path d="M744.4 64.0616C744.4 58.748 740 54.4185 734.6 54.4185C729.2 54.4185 724.8 58.748 724.8 64.0616C724.8 69.3752 729.2 73.7048 734.6 73.7048C740 73.6064 744.4 69.3752 744.4 64.0616Z" fill="#231F20"/>
<path d="M788 64.0571C788 63.0731 787.2 62.3843 786.3 62.3843C785.3 62.3843 784.6 63.1715 784.6 64.0571C784.6 64.9427 785.4 65.7299 786.3 65.7299C787.2 65.7299 788 64.9427 788 64.0571Z" fill="#231F20"/>
<path d="M841.8 64.0568C841.8 61.892 840 60.2192 837.9 60.2192C835.7 60.2192 834 61.9904 834 64.0568C834 66.2216 835.7 67.8944 837.9 67.8944C840 67.8944 841.8 66.1232 841.8 64.0568Z" fill="#231F20"/>
<path d="M892.4 64.0577C892.4 62.4833 891.1 61.2041 889.5 61.2041C887.9 61.2041 886.6 62.4833 886.6 64.0577C886.6 65.6321 887.9 66.9113 889.5 66.9113C891.1 66.9113 892.4 65.6321 892.4 64.0577Z" fill="#231F20"/>
<path d="M942.3 64.0578C942.3 63.369 941.8 62.877 941.1 62.877C940.4 62.877 939.9 63.369 939.9 64.0578C939.9 64.7466 940.4 65.2386 941.1 65.2386C941.8 65.2386 942.3 64.6482 942.3 64.0578Z" fill="#231F20"/>
<path d="M995.4 64.0584C995.4 62.5824 994.2 61.5 992.8 61.5C991.3 61.5 990.2 62.6808 990.2 64.0584C990.2 65.5344 991.4 66.6168 992.8 66.6168C994.2 66.6168 995.4 65.436 995.4 64.0584Z" fill="#231F20"/>
<path d="M1048.2 64.0585C1048.2 61.9921 1046.5 60.3193 1044.4 60.3193C1042.3 60.3193 1040.6 61.9921 1040.6 64.0585C1040.6 66.1249 1042.3 67.7977 1044.4 67.7977C1046.5 67.6993 1048.2 66.0265 1048.2 64.0585Z" fill="#231F20"/>
<path d="M1104.7 64.0589C1104.7 59.3357 1100.8 55.498 1096 55.498C1091.2 55.498 1087.3 59.3357 1087.3 64.0589C1087.3 68.7821 1091.2 72.6197 1096 72.6197C1100.8 72.5213 1104.7 68.6837 1104.7 64.0589Z" fill="#231F20"/>
<path d="M1154.5 64.0606C1154.5 60.3214 1151.4 57.271 1147.6 57.271C1143.8 57.271 1140.7 60.3214 1140.7 64.0606C1140.7 67.7998 1143.8 70.8502 1147.6 70.8502C1151.5 70.7518 1154.5 67.7998 1154.5 64.0606Z" fill="#231F20"/>
<path d="M1205.4 64.0566C1205.4 60.8094 1202.7 58.0542 1199.4 58.0542C1196 58.0542 1193.3 60.711 1193.3 64.0566C1193.3 67.3038 1196 69.9606 1199.4 69.9606C1202.7 69.9606 1205.4 67.3038 1205.4 64.0566Z" fill="#231F20"/>
<path d="M1258.8 64.0565C1258.8 59.8253 1255.3 56.3813 1251 56.3813C1246.7 56.3813 1243.2 59.8253 1243.2 64.0565C1243.2 68.2877 1246.7 71.7317 1251 71.7317C1255.3 71.7317 1258.8 68.2877 1258.8 64.0565Z" fill="#231F20"/>
<path d="M1305.4 64.0589C1305.4 62.5829 1304.1 61.3037 1302.6 61.3037C1301.1 61.3037 1299.8 62.4845 1299.8 64.0589C1299.8 65.5349 1301.1 66.8141 1302.6 66.8141C1304.1 66.8141 1305.4 65.5349 1305.4 64.0589Z" fill="#231F20"/>
<path d="M1363.8 64.0601C1363.8 58.8449 1359.5 54.6138 1354.2 54.6138C1348.9 54.6138 1344.6 58.8449 1344.6 64.0601C1344.6 69.2753 1348.9 73.5066 1354.2 73.5066C1359.5 73.5066 1363.8 69.2753 1363.8 64.0601Z" fill="#231F20"/>
<path d="M1414.5 64.0589C1414.5 59.3357 1410.6 55.498 1405.8 55.498C1401 55.498 1397.1 59.3357 1397.1 64.0589C1397.1 68.7821 1401 72.6197 1405.8 72.6197C1410.6 72.5213 1414.5 68.7821 1414.5 64.0589Z" fill="#231F20"/>
<path d="M18.4 2.26273C18.4 -1.37807 15.4 -4.33008 11.7 -4.33008C7.99995 -4.33008 5 -1.37807 5 2.26273C5 5.90353 7.99995 8.85555 11.7 8.85555C15.4 8.85555 18.4 5.90353 18.4 2.26273Z" fill="#231F20"/>
<path d="M66.8 2.26334C66.8 0.393736 65.2 -1.18066 63.3 -1.18066C61.4 -1.18066 59.8 0.393736 59.8 2.26334C59.8 4.13294 61.4 5.70734 63.3 5.70734C65.3 5.70734 66.8 4.13294 66.8 2.26334Z" fill="#231F20"/>
<path d="M121.2 2.26292C121.2 -1.08268 118.4 -3.83789 115 -3.83789C111.6 -3.83789 108.8 -1.08268 108.8 2.26292C108.8 5.60852 111.6 8.36374 115 8.36374C118.4 8.36374 121.2 5.60852 121.2 2.26292Z" fill="#231F20"/>
<path d="M173.4 2.26101C173.4 -1.47819 170.3 -4.43018 166.6 -4.43018C162.8 -4.43018 159.8 -1.47819 159.8 2.26101C159.8 6.00021 162.9 8.9522 166.6 8.9522C170.4 8.9522 173.4 6.00021 173.4 2.26101Z" fill="#231F20"/>
<path d="M227.2 2.26078C227.2 -2.56082 223.2 -6.59521 218.2 -6.59521C213.3 -6.59521 209.2 -2.65922 209.2 2.26078C209.2 7.08238 213.2 11.1168 218.2 11.1168C223.2 11.1168 227.2 7.08238 227.2 2.26078Z" fill="#231F20"/>
<path d="M273.1 2.26453C273.1 0.493335 271.7 -0.884277 269.9 -0.884277C268.1 -0.884277 266.7 0.493335 266.7 2.26453C266.7 4.03574 268.1 5.41335 269.9 5.41335C271.7 5.41335 273.1 4.03574 273.1 2.26453Z" fill="#231F20"/>
<path d="M323.7 2.26491C323.7 1.08411 322.7 0.100098 321.5 0.100098C320.3 0.100098 319.3 1.08411 319.3 2.26491C319.3 3.44571 320.3 4.42972 321.5 4.42972C322.7 4.42972 323.7 3.44571 323.7 2.26491Z" fill="#231F20"/>
<path d="M376.2 2.26352C376.2 0.590723 374.9 -0.688477 373.2 -0.688477C371.5 -0.688477 370.2 0.590723 370.2 2.26352C370.2 3.83792 371.5 5.21552 373.2 5.21552C374.8 5.21552 376.2 3.83792 376.2 2.26352Z" fill="#231F20"/>
<path d="M429.2 2.26566C429.2 -0.0959408 427.2 -2.06396 424.8 -2.06396C422.4 -2.06396 420.4 -0.0959408 420.4 2.26566C420.4 4.62726 422.4 6.59528 424.8 6.59528C427.2 6.59528 429.2 4.62726 429.2 2.26566Z" fill="#231F20"/>
<path d="M480.8 2.26566C480.8 -0.0959408 478.8 -2.06396 476.4 -2.06396C474 -2.06396 472 -0.0959408 472 2.26566C472 4.62726 474 6.59528 476.4 6.59528C478.8 6.59528 480.8 4.62726 480.8 2.26566Z" fill="#231F20"/>
<path d="M533.8 2.26139C533.8 -0.887413 531.2 -3.4458 528 -3.4458C524.8 -3.4458 522.2 -0.887413 522.2 2.26139C522.2 5.41019 524.8 7.96857 528 7.96857C531.2 7.96857 533.8 5.41019 533.8 2.26139Z" fill="#231F20"/>
<path d="M586.4 2.26273C586.4 -1.37807 583.4 -4.33008 579.7 -4.33008C576 -4.33008 573 -1.37807 573 2.26273C573 5.90353 576 8.85555 579.7 8.85555C583.4 8.85555 586.4 5.90353 586.4 2.26273Z" fill="#231F20"/>
<path d="M635.6 2.26244C635.6 -0.0991622 633.7 -1.96875 631.3 -1.96875C628.9 -1.96875 627 -0.0991622 627 2.26244C627 4.62404 628.9 6.49363 631.3 6.49363C633.7 6.49363 635.6 4.62404 635.6 2.26244Z" fill="#231F20"/>
<path d="M684.4 2.26457C684.4 1.47737 683.7 0.788574 682.9 0.788574C682.1 0.788574 681.4 1.47737 681.4 2.26457C681.4 3.05177 682.1 3.74057 682.9 3.74057C683.8 3.74057 684.4 3.05177 684.4 2.26457Z" fill="#231F20"/>
<path d="M740.6 2.2624C740.6 -0.984802 737.9 -3.6416 734.6 -3.6416C731.3 -3.6416 728.6 -0.984802 728.6 2.2624C728.6 5.5096 731.3 8.1664 734.6 8.1664C737.9 8.1664 740.6 5.5096 740.6 2.2624Z" fill="#231F20"/>
<path d="M790.2 2.26585C790.2 0.101046 788.4 -1.57178 786.3 -1.57178C784.1 -1.57178 782.4 0.199447 782.4 2.26585C782.4 4.43065 784.1 6.10347 786.3 6.10347C788.4 6.10347 790.2 4.43065 790.2 2.26585Z" fill="#231F20"/>
<path d="M838.9 2.26304C838.9 1.67264 838.4 1.18066 837.8 1.18066C837.2 1.18066 836.7 1.67264 836.7 2.26304C836.7 2.85344 837.2 3.34542 837.8 3.34542C838.5 3.34542 838.9 2.85344 838.9 2.26304Z" fill="#231F20"/>
<path d="M895.1 2.26672C895.1 -0.783676 892.6 -3.24365 889.5 -3.24365C886.4 -3.24365 883.9 -0.783676 883.9 2.26672C883.9 5.31712 886.4 7.7771 889.5 7.7771C892.6 7.7771 895.1 5.31712 895.1 2.26672Z" fill="#231F20"/>
<path d="M947.9 2.26101C947.9 -1.37979 944.9 -4.43018 941.1 -4.43018C937.4 -4.43018 934.3 -1.47819 934.3 2.26101C934.3 5.90181 937.3 8.9522 941.1 8.9522C944.9 8.9522 947.9 5.90181 947.9 2.26101Z" fill="#231F20"/>
<path d="M1001.7 2.26348C1001.7 -2.55812 997.7 -6.49414 992.8 -6.49414C987.9 -6.49414 983.9 -2.55812 983.9 2.26348C983.9 7.08509 987.9 11.0211 992.8 11.0211C997.7 11.0211 1001.7 7.08509 1001.7 2.26348Z" fill="#231F20"/>
<path d="M1053 2.26413C1053 -2.36067 1049.2 -6.19824 1044.4 -6.19824C1039.7 -6.19824 1035.8 -2.45907 1035.8 2.26413C1035.8 6.88893 1039.6 10.7265 1044.4 10.7265C1049.1 10.7265 1053 6.88893 1053 2.26413Z" fill="#231F20"/>
<path d="M1105.7 2.26376C1105.7 -2.95144 1101.4 -7.18262 1096.1 -7.18262C1090.8 -7.18262 1086.5 -2.95144 1086.5 2.26376C1086.5 7.47896 1090.8 11.7101 1096.1 11.7101C1101.4 11.7101 1105.7 7.47896 1105.7 2.26376Z" fill="#231F20"/>
<path d="M1155 2.26082C1155 -1.67518 1151.7 -4.92236 1147.7 -4.92236C1143.7 -4.92236 1140.4 -1.67518 1140.4 2.26082C1140.4 6.19682 1143.7 9.44401 1147.7 9.44401C1151.7 9.44401 1155 6.19682 1155 2.26082Z" fill="#231F20"/>
<path d="M1202.9 2.26161C1202.9 0.293614 1201.3 -1.28076 1199.3 -1.28076C1197.3 -1.28076 1195.7 0.293614 1195.7 2.26161C1195.7 4.22961 1197.3 5.80399 1199.3 5.80399C1201.3 5.80399 1202.9 4.22961 1202.9 2.26161Z" fill="#231F20"/>
<path d="M1254.3 2.26115C1254.3 0.391551 1252.8 -1.08447 1250.9 -1.08447C1249 -1.08447 1247.5 0.391551 1247.5 2.26115C1247.5 4.13075 1249 5.60678 1250.9 5.60678C1252.8 5.60678 1254.3 4.13075 1254.3 2.26115Z" fill="#231F20"/>
<path d="M1304.2 2.26285C1304.2 1.37725 1303.5 0.688477 1302.6 0.688477C1301.7 0.688477 1301 1.37725 1301 2.26285C1301 3.14845 1301.7 3.83723 1302.6 3.83723C1303.5 3.83723 1304.2 3.14845 1304.2 2.26285Z" fill="#231F20"/>
<path d="M1364 2.26477C1364 -3.04883 1359.6 -7.37842 1354.2 -7.37842C1348.8 -7.37842 1344.4 -3.04883 1344.4 2.26477C1344.4 7.57837 1348.8 11.908 1354.2 11.908C1359.6 11.908 1364 7.57837 1364 2.26477Z" fill="#231F20"/>
<path d="M1415 2.2618C1415 -2.7566 1410.9 -6.79102 1405.8 -6.79102C1400.7 -6.79102 1396.6 -2.7566 1396.6 2.2618C1396.6 7.28019 1400.7 11.3146 1405.8 11.3146C1410.9 11.3146 1415 7.28019 1415 2.2618Z" fill="#231F20"/>
</g>
</g>
</svg>
