<svg width="1440" height="76" viewBox="0 0 1440 76" fill="none" xmlns="http://www.w3.org/2000/svg">
<path d="M1433.69 8.96358C1433.69 10.1649 1434.7 11.1814 1435.91 11.1814C1437.11 11.1814 1438.12 10.1649 1438.12 8.96358C1438.12 7.76225 1437.11 6.74571 1435.91 6.74571C1434.7 6.74571 1433.69 7.76225 1433.69 8.96358Z" fill="#4C6071"/>
<path d="M1380.27 8.96323C1380.27 13.3065 1383.79 16.8181 1388.13 16.8181C1392.47 16.8181 1395.98 13.3065 1395.98 8.96323C1395.98 4.61995 1392.47 1.10835 1388.13 1.10835C1383.79 1.10835 1380.27 4.61995 1380.27 8.96323Z" fill="#4C6071"/>
<path d="M1334.44 8.9633C1334.44 12.2901 1337.12 14.97 1340.45 14.97C1343.77 14.97 1346.45 12.2901 1346.45 8.9633C1346.45 5.63652 1343.77 2.95662 1340.45 2.95662C1337.12 2.95662 1334.44 5.63652 1334.44 8.9633Z" fill="#4C6071"/>
<path d="M1284.72 8.96352C1284.72 13.3992 1288.33 17.0032 1292.76 17.0032C1297.2 17.0032 1300.8 13.3992 1300.8 8.96352C1300.8 4.52782 1297.2 0.923803 1292.76 0.923803C1288.33 0.923803 1284.72 4.52782 1284.72 8.96352Z" fill="#4C6071"/>
<path d="M1239.35 8.96323C1239.35 12.1052 1241.94 14.6926 1245.08 14.6926C1248.22 14.6926 1250.81 12.1052 1250.81 8.96323C1250.81 5.82128 1248.22 3.23378 1245.08 3.23378C1241.84 3.32619 1239.35 5.82128 1239.35 8.96323Z" fill="#4C6071"/>
<path d="M1193.05 8.96326C1193.05 11.2735 1194.99 13.2141 1197.3 13.2141C1199.61 13.2141 1201.55 11.2735 1201.55 8.96326C1201.55 6.653 1199.61 4.71235 1197.3 4.71235C1194.99 4.71235 1193.05 6.653 1193.05 8.96326Z" fill="#4C6071"/>
<path d="M1140.65 8.96373C1140.65 13.9539 1144.72 17.9275 1149.62 17.9275C1154.61 17.9275 1158.58 13.8615 1158.58 8.96373C1158.58 3.97357 1154.52 -8.58307e-05 1149.62 -8.58307e-05C1144.63 -8.58307e-05 1140.65 4.06598 1140.65 8.96373Z" fill="#4C6071"/>
<path d="M1100.36 8.9636C1100.36 9.79529 1101.01 10.4421 1101.84 10.4421C1102.67 10.4421 1103.32 9.79529 1103.32 8.9636C1103.32 8.1319 1102.67 7.485 1101.84 7.485C1101.01 7.485 1100.36 8.1319 1100.36 8.9636Z" fill="#4C6071"/>
<path d="M1046.4 8.96339C1046.4 13.3067 1049.91 16.7258 1054.16 16.7258C1058.5 16.7258 1061.92 13.2143 1061.92 8.96339C1061.92 4.62011 1058.41 1.2009 1054.16 1.2009C1049.91 1.2009 1046.4 4.71252 1046.4 8.96339Z" fill="#4C6071"/>
<path d="M1003.7 8.96328C1003.7 10.5343 1004.9 11.7356 1006.47 11.7356C1008.05 11.7356 1009.25 10.5343 1009.25 8.96328C1009.25 7.39231 1008.05 6.19097 1006.47 6.19097C1004.9 6.19097 1003.7 7.48472 1003.7 8.96328Z" fill="#4C6071"/>
<path d="M951.583 8.9633C951.583 12.937 954.817 16.0789 958.698 16.0789C962.672 16.0789 965.814 12.8445 965.814 8.9633C965.814 4.98966 962.579 1.8477 958.698 1.8477C954.817 1.8477 951.583 4.98966 951.583 8.9633Z" fill="#4C6071"/>
<path d="M905.193 8.96346C905.193 12.1978 907.873 14.8777 911.107 14.8777C914.341 14.8777 917.021 12.2902 917.021 8.96346C917.021 5.72909 914.434 3.04917 911.107 3.04917C907.78 3.14158 905.193 5.72909 905.193 8.96346Z" fill="#4C6071"/>
<path d="M861.39 8.96356C861.39 9.98007 862.222 10.8118 863.238 10.8118C864.255 10.8118 865.086 9.98007 865.086 8.96356C865.086 7.94705 864.255 7.11535 863.238 7.11535C862.222 7.11535 861.39 7.94705 861.39 8.96356Z" fill="#4C6071"/>
<path d="M814.538 8.96373C814.538 9.5182 815 9.98022 815.555 9.98022C816.109 9.98022 816.571 9.5182 816.571 8.96373C816.571 8.40927 816.109 7.94719 815.555 7.94719C815 7.94719 814.538 8.40927 814.538 8.96373Z" fill="#4C6071"/>
<path d="M759.369 8.96371C759.369 13.6766 763.158 17.5579 767.871 17.5579C772.584 17.5579 776.465 13.769 776.465 8.96371C776.465 4.25078 772.676 0.461945 767.871 0.461945C763.158 0.461945 759.369 4.25078 759.369 8.96371Z" fill="#4C6071"/>
<path d="M712.147 8.96352C712.147 13.3992 715.751 17.0032 720.187 17.0032C724.623 17.0032 728.227 13.3992 728.227 8.96352C728.227 4.52782 724.623 0.923803 720.187 0.923803C715.751 1.01621 712.147 4.52782 712.147 8.96352Z" fill="#4C6071"/>
<path d="M665.48 8.96341C665.48 12.8446 668.622 15.9866 672.503 15.9866C676.385 15.9866 679.526 12.8446 679.526 8.96341C679.526 5.08217 676.385 1.94019 672.503 1.94019C668.622 2.0326 665.48 5.17458 665.48 8.96341Z" fill="#4C6071"/>
<path d="M622.047 8.96344C622.047 10.442 623.249 11.6433 624.727 11.6433C626.206 11.6433 627.407 10.442 627.407 8.96344C627.407 7.48488 626.206 6.28352 624.727 6.28352C623.249 6.37593 622.047 7.57729 622.047 8.96344Z" fill="#4C6071"/>
<path d="M570.667 8.96342C570.667 12.475 573.532 15.2473 576.951 15.2473C580.463 15.2473 583.235 12.3826 583.235 8.96342C583.235 5.45183 580.37 2.67947 576.951 2.67947C573.532 2.67947 570.667 5.54424 570.667 8.96342Z" fill="#4C6071"/>
<path d="M524.554 8.9635C524.554 11.6434 526.68 13.7688 529.36 13.7688C532.04 13.7688 534.165 11.6434 534.165 8.9635C534.165 6.2836 532.04 4.15815 529.36 4.15815C526.68 4.15815 524.554 6.37601 524.554 8.9635Z" fill="#4C6071"/>
<path d="M474.283 8.96363C474.283 12.9373 477.517 16.1716 481.491 16.1716C485.465 16.1716 488.699 12.9373 488.699 8.96363C488.699 4.98999 485.465 1.75558 481.491 1.75558C477.61 1.75558 474.283 4.98999 474.283 8.96363Z" fill="#4C6071"/>
<path d="M431.497 8.96332C431.497 10.2571 432.606 11.366 433.9 11.366C435.194 11.366 436.302 10.2571 436.302 8.96332C436.302 7.66957 435.194 6.56062 433.9 6.56062C432.514 6.56062 431.497 7.66957 431.497 8.96332Z" fill="#4C6071"/>
<path d="M377.437 8.96361C377.437 13.7689 381.318 17.6501 386.124 17.6501C390.929 17.6501 394.81 13.7689 394.81 8.96361C394.81 4.15827 390.929 0.27701 386.124 0.27701C381.411 0.27701 377.437 4.15827 377.437 8.96361Z" fill="#4C6071"/>
<path d="M336.592 8.96356C336.592 9.98007 337.423 10.8118 338.44 10.8118C339.456 10.8118 340.288 9.98007 340.288 8.96356C340.288 7.94705 339.456 7.11535 338.44 7.11535C337.423 7.20776 336.592 7.94705 336.592 8.96356Z" fill="#4C6071"/>
<path d="M287.799 8.96357C287.799 10.5345 289.093 11.9207 290.756 11.9207C292.327 11.9207 293.713 10.627 293.713 8.96357C293.713 7.39259 292.419 6.09881 290.756 6.09881C289.093 6.09881 287.799 7.39259 287.799 8.96357Z" fill="#4C6071"/>
<path d="M238.082 8.96335C238.082 11.6432 240.3 13.8611 242.98 13.8611C245.66 13.8611 247.878 11.6432 247.878 8.96335C247.878 6.28345 245.66 4.06555 242.98 4.06555C240.3 4.06555 238.082 6.28345 238.082 8.96335Z" fill="#4C6071"/>
<path d="M194.372 8.96335C194.372 9.51781 194.834 9.88745 195.296 9.88745C195.851 9.88745 196.22 9.4254 196.22 8.96335C196.22 8.40889 195.758 8.03924 195.296 8.03924C194.742 8.03924 194.372 8.40889 194.372 8.96335Z" fill="#4C6071"/>
<path d="M140.497 8.9633C140.497 12.937 143.731 16.0789 147.612 16.0789C151.586 16.0789 154.728 12.8445 154.728 8.9633C154.728 4.98966 151.494 1.8477 147.612 1.8477C143.639 1.8477 140.497 5.08207 140.497 8.9633Z" fill="#4C6071"/>
<path d="M90.9649 8.96334C90.9649 13.8611 94.9386 17.8347 99.8363 17.8347C104.734 17.8347 108.708 13.8611 108.708 8.96334C108.708 4.06559 104.734 0.0919151 99.8363 0.0919151C94.9386 0.0919151 90.9649 4.06559 90.9649 8.96334Z" fill="#4C6071"/>
<path d="M50.8588 8.96337C50.8588 9.70265 51.4133 10.2571 52.1526 10.2571C52.8918 10.2571 53.4463 9.70265 53.4463 8.96337C53.4463 8.22409 52.8918 7.6696 52.1526 7.6696C51.4133 7.6696 50.8588 8.22409 50.8588 8.96337Z" fill="#4C6071"/>
<path d="M-2 8.96332C-2 12.4749 0.86473 15.3396 4.37632 15.3396C7.88792 15.3396 10.7526 12.4749 10.7526 8.96332C10.7526 5.45173 7.88792 2.58698 4.37632 2.58698C0.86473 2.58698 -2 5.45173 -2 8.96332Z" fill="#4C6071"/>
<path d="M1428.88 66.9972C1428.88 70.8784 1432.02 73.928 1435.91 73.928C1439.79 73.928 1442.84 70.786 1442.84 66.9972C1442.84 63.116 1439.69 60.0664 1435.91 60.0664C1432.02 59.974 1428.88 63.116 1428.88 66.9972Z" fill="#4C6071"/>
<path d="M1382.68 66.9971C1382.68 70.0467 1385.17 72.5417 1388.22 72.5417C1391.27 72.5417 1393.77 70.0467 1393.77 66.9971C1393.77 63.9476 1391.27 61.4525 1388.22 61.4525C1385.08 61.4525 1382.68 63.9476 1382.68 66.9971Z" fill="#4C6071"/>
<path d="M1333.24 66.9973C1333.24 70.971 1336.47 74.2053 1340.45 74.2053C1344.42 74.2053 1347.65 70.971 1347.65 66.9973C1347.65 63.0237 1344.42 59.7893 1340.45 59.7893C1336.47 59.6969 1333.24 63.0237 1333.24 66.9973Z" fill="#4C6071"/>
<path d="M1289.16 66.9973C1289.16 68.938 1290.73 70.6013 1292.76 70.6013C1294.7 70.6013 1296.37 69.0304 1296.37 66.9973C1296.37 65.0567 1294.79 63.3933 1292.76 63.3933C1290.82 63.3933 1289.16 65.0567 1289.16 66.9973Z" fill="#4C6071"/>
<path d="M1239.72 66.997C1239.72 69.9541 1242.12 72.2644 1244.99 72.2644C1247.94 72.2644 1250.25 69.8617 1250.25 66.997C1250.25 64.0399 1247.85 61.7296 1244.99 61.7296C1242.12 61.6372 1239.72 64.0399 1239.72 66.997Z" fill="#4C6071"/>
<path d="M1195.36 66.9971C1195.36 68.0137 1196.19 68.9377 1197.3 68.9377C1198.41 68.9377 1199.24 68.1061 1199.24 66.9971C1199.24 65.9806 1198.41 65.0565 1197.3 65.0565C1196.29 65.0565 1195.36 65.8882 1195.36 66.9971Z" fill="#4C6071"/>
<path d="M1142.96 66.9971C1142.96 70.6935 1145.92 73.6506 1149.62 73.6506C1153.31 73.6506 1156.27 70.6935 1156.27 66.9971C1156.27 63.3007 1153.31 60.3435 1149.62 60.3435C1145.92 60.3435 1142.96 63.3007 1142.96 66.9971Z" fill="#4C6071"/>
<path d="M1093.52 66.9972C1093.52 71.6177 1097.31 75.4065 1101.84 75.4065C1106.46 75.4065 1110.25 71.6177 1110.25 66.9972C1110.25 62.3767 1106.46 58.6802 1101.84 58.6802C1097.22 58.5878 1093.52 62.3767 1093.52 66.9972Z" fill="#4C6071"/>
<path d="M1048.61 66.9971C1048.61 70.0467 1051.11 72.5417 1054.16 72.5417C1057.21 72.5417 1059.7 70.0467 1059.7 66.9971C1059.7 63.9476 1057.21 61.4525 1054.16 61.4525C1051.11 61.4525 1048.61 63.9476 1048.61 66.9971Z" fill="#4C6071"/>
<path d="M1000.1 66.997C1000.1 70.5086 1002.96 73.3733 1006.47 73.3733C1009.99 73.3733 1012.85 70.5086 1012.85 66.997C1012.85 63.4854 1009.99 60.6207 1006.47 60.6207C1002.96 60.6207 1000.1 63.4854 1000.1 66.997Z" fill="#4C6071"/>
<path d="M953.061 66.997C953.061 70.139 955.649 72.634 958.698 72.634C961.84 72.634 964.335 70.0466 964.335 66.997C964.335 63.8551 961.748 61.36 958.698 61.36C955.556 61.2675 953.061 63.8551 953.061 66.997Z" fill="#4C6071"/>
<path d="M904.361 66.9971C904.361 70.6935 907.318 73.6506 911.014 73.6506C914.711 73.6506 917.668 70.6935 917.668 66.9971C917.668 63.3007 914.711 60.3435 911.014 60.3435C907.318 60.3435 904.361 63.3007 904.361 66.9971Z" fill="#4C6071"/>
<path d="M855.938 66.9971C855.938 71.0631 859.265 74.3899 863.331 74.3899C867.397 74.3899 870.723 71.0631 870.723 66.9971C870.723 62.931 867.397 59.6042 863.331 59.6042C859.265 59.6042 855.938 62.931 855.938 66.9971Z" fill="#4C6071"/>
<path d="M807.977 66.9973C807.977 71.1558 811.396 74.575 815.555 74.575C819.713 74.575 823.132 71.1558 823.132 66.9973C823.132 62.8388 819.713 59.4196 815.555 59.4196C811.396 59.4196 807.977 62.8388 807.977 66.9973Z" fill="#4C6071"/>
<path d="M762.881 66.9974C762.881 69.7697 765.098 71.9875 767.871 71.9875C770.643 71.9875 772.861 69.7697 772.861 66.9974C772.861 64.2251 770.643 62.0072 767.871 62.0072C765.098 62.0072 762.881 64.2251 762.881 66.9974Z" fill="#4C6071"/>
<path d="M719.171 66.997C719.171 67.5515 719.633 67.9211 720.095 67.9211C720.649 67.9211 721.019 67.4591 721.019 66.997C721.019 66.4426 720.557 66.0729 720.095 66.0729C719.633 65.9805 719.171 66.4426 719.171 66.997Z" fill="#4C6071"/>
<path d="M670.008 66.997C670.008 68.2908 671.117 69.3997 672.411 69.3997C673.705 69.3997 674.814 68.2908 674.814 66.997C674.814 65.7033 673.705 64.5943 672.411 64.5943C671.117 64.5943 670.008 65.7033 670.008 66.997Z" fill="#4C6071"/>
<path d="M618.813 66.9971C618.813 70.2315 621.493 72.9114 624.727 72.9114C627.962 72.9114 630.641 70.2315 630.641 66.9971C630.641 63.7628 627.962 61.0829 624.727 61.0829C621.493 61.0829 618.813 63.7628 618.813 66.9971Z" fill="#4C6071"/>
<path d="M575.01 66.9971C575.01 68.1061 575.934 68.9377 576.951 68.9377C578.06 68.9377 578.892 68.0137 578.892 66.9971C578.892 65.8882 577.967 65.0565 576.951 65.0565C575.934 64.9641 575.01 65.8882 575.01 66.9971Z" fill="#4C6071"/>
<path d="M526.587 66.9971C526.587 68.4757 527.789 69.677 529.267 69.677C530.746 69.677 531.947 68.4757 531.947 66.9971C531.947 65.5186 530.746 64.3172 529.267 64.3172C527.789 64.3172 526.587 65.5186 526.587 66.9971Z" fill="#4C6071"/>
<path d="M474.653 66.9972C474.653 70.786 477.795 73.928 481.583 73.928C485.372 73.928 488.514 70.786 488.514 66.9972C488.514 63.2084 485.372 60.0664 481.583 60.0664C477.795 60.0664 474.653 63.2084 474.653 66.9972Z" fill="#4C6071"/>
<path d="M432.883 66.997C432.883 67.5515 433.345 67.9211 433.807 67.9211C434.362 67.9211 434.731 67.4591 434.731 66.997C434.731 66.4426 434.269 66.0729 433.807 66.0729C433.345 66.0729 432.883 66.4426 432.883 66.997Z" fill="#4C6071"/>
<path d="M380.302 66.9973C380.302 70.2316 382.889 72.8191 386.123 72.8191C389.358 72.8191 391.945 70.2316 391.945 66.9973C391.945 63.7629 389.358 61.1754 386.123 61.1754C382.982 61.1754 380.302 63.7629 380.302 66.9973Z" fill="#4C6071"/>
<path d="M336.592 66.9973C336.592 68.0138 337.423 68.8455 338.44 68.8455C339.456 68.8455 340.288 68.0138 340.288 66.9973C340.288 65.9807 339.456 65.149 338.44 65.149C337.423 65.149 336.592 65.9807 336.592 66.9973Z" fill="#4C6071"/>
<path d="M286.228 66.9971C286.228 69.4922 288.261 71.5251 290.756 71.5251C293.251 71.5251 295.284 69.4922 295.284 66.9971C295.284 64.502 293.251 62.4689 290.756 62.4689C288.261 62.4689 286.228 64.502 286.228 66.9971Z" fill="#4C6071"/>
<path d="M237.897 66.9972C237.897 69.8619 240.208 72.1721 243.072 72.1721C245.937 72.1721 248.247 69.8619 248.247 66.9972C248.247 64.1324 245.937 61.8221 243.072 61.8221C240.208 61.8221 237.897 64.1324 237.897 66.9972Z" fill="#4C6071"/>
<path d="M190.121 66.9972C190.121 69.8619 192.431 72.1721 195.296 72.1721C198.161 72.1721 200.471 69.8619 200.471 66.9972C200.471 64.1324 198.161 61.8221 195.296 61.8221C192.431 61.8221 190.121 64.1324 190.121 66.9972Z" fill="#4C6071"/>
<path d="M144.932 66.9971C144.932 68.4757 146.134 69.677 147.612 69.677C149.091 69.677 150.292 68.4757 150.292 66.9971C150.292 65.5186 149.091 64.3172 147.612 64.3172C146.134 64.3172 144.932 65.5186 144.932 66.9971Z" fill="#4C6071"/>
<path d="M92.4434 66.9971C92.4434 71.0631 95.7702 74.3899 99.8362 74.3899C103.902 74.3899 107.229 71.0631 107.229 66.9971C107.229 62.931 103.902 59.6042 99.8362 59.6042C95.7702 59.6042 92.4434 62.931 92.4434 66.9971Z" fill="#4C6071"/>
<path d="M49.565 66.9972C49.565 68.3834 50.6739 69.5847 52.1525 69.5847C53.5387 69.5847 54.74 68.3834 54.74 66.9972C54.74 65.6111 53.5387 64.4098 52.1525 64.4098C50.7663 64.4098 49.565 65.5187 49.565 66.9972Z" fill="#4C6071"/>
<path d="M0.864868 66.9973C0.864868 68.938 2.43584 70.6013 4.46887 70.6013C6.40948 70.6013 8.07288 69.0304 8.07288 66.9973C8.07288 65.0567 6.50189 63.3933 4.46887 63.3933C2.43584 63.3933 0.864868 64.9643 0.864868 66.9973Z" fill="#4C6071"/>
</svg>
