<svg width="1440" height="126" viewBox="0 0 1440 126" fill="none" xmlns="http://www.w3.org/2000/svg">
<path d="M0.292236 93.4766C0.292236 90.1499 -2.38766 87.47 -5.71444 87.47C-9.04121 87.47 -11.7211 90.1499 -11.7211 93.4766C-11.7211 96.8034 -9.04121 99.4833 -5.71444 99.4833C-2.38766 99.4833 0.292236 96.8034 0.292236 93.4766Z" fill="#4C6071"/>
<path d="M50.009 93.4767C50.009 89.041 46.405 85.437 41.9693 85.437C37.5336 85.437 33.9296 89.041 33.9296 93.4767C33.9296 97.9124 37.5336 101.516 41.9693 101.516C46.405 101.516 50.009 97.9124 50.009 93.4767Z" fill="#4C6071"/>
<path d="M95.3824 93.4767C95.3824 90.3348 92.795 87.7473 89.653 87.7473C86.5111 87.7473 83.9235 90.3348 83.9235 93.4767C83.9235 96.6187 86.5111 99.2062 89.653 99.2062C92.8874 99.1138 95.3824 96.6187 95.3824 93.4767Z" fill="#4C6071"/>
<path d="M141.68 93.4767C141.68 91.1664 139.739 89.2258 137.429 89.2258C135.119 89.2258 133.178 91.1664 133.178 93.4767C133.178 95.7869 135.119 97.7276 137.429 97.7276C139.739 97.7276 141.68 95.7869 141.68 93.4767Z" fill="#4C6071"/>
<path d="M194.077 93.4767C194.077 88.4865 190.011 84.5129 185.113 84.5129C180.123 84.5129 176.149 88.5789 176.149 93.4767C176.149 98.4669 180.215 102.441 185.113 102.441C190.103 102.441 194.077 98.3744 194.077 93.4767Z" fill="#4C6071"/>
<path d="M234.368 93.4767C234.368 92.645 233.721 91.9982 232.889 91.9982C232.057 91.9982 231.41 92.645 231.41 93.4767C231.41 94.3084 232.057 94.9553 232.889 94.9553C233.721 94.9553 234.368 94.3084 234.368 93.4767Z" fill="#4C6071"/>
<path d="M288.335 93.4768C288.335 89.1335 284.824 85.7144 280.573 85.7144C276.23 85.7144 272.81 89.2259 272.81 93.4768C272.81 97.8201 276.322 101.239 280.573 101.239C284.824 101.239 288.335 97.7277 288.335 93.4768Z" fill="#4C6071"/>
<path d="M331.029 93.4768C331.029 91.9058 329.828 90.7045 328.257 90.7045C326.686 90.7045 325.484 91.9058 325.484 93.4768C325.484 95.0478 326.686 96.2491 328.257 96.2491C329.828 96.2491 331.029 94.9553 331.029 93.4768Z" fill="#4C6071"/>
<path d="M383.148 93.4768C383.148 89.5031 379.914 86.3612 376.033 86.3612C372.059 86.3612 368.917 89.5955 368.917 93.4768C368.917 97.4504 372.152 100.592 376.033 100.592C379.914 100.592 383.148 97.4504 383.148 93.4768Z" fill="#4C6071"/>
<path d="M429.538 93.4769C429.538 90.2425 426.858 87.5626 423.624 87.5626C420.39 87.5626 417.71 90.1501 417.71 93.4769C417.71 96.7112 420.297 99.3911 423.624 99.3911C426.951 99.2987 429.538 96.7112 429.538 93.4769Z" fill="#4C6071"/>
<path d="M473.341 93.4766C473.341 92.4601 472.509 91.6284 471.493 91.6284C470.476 91.6284 469.644 92.4601 469.644 93.4766C469.644 94.4931 470.476 95.3248 471.493 95.3248C472.509 95.3248 473.341 94.4931 473.341 93.4766Z" fill="#4C6071"/>
<path d="M520.193 93.4767C520.193 92.9222 519.731 92.4602 519.176 92.4602C518.622 92.4602 518.16 92.9222 518.16 93.4767C518.16 94.0312 518.622 94.4932 519.176 94.4932C519.731 94.4932 520.193 94.0312 520.193 93.4767Z" fill="#4C6071"/>
<path d="M575.362 93.4766C575.362 88.7637 571.573 84.8824 566.86 84.8824C562.147 84.8824 558.266 88.6713 558.266 93.4766C558.266 98.1895 562.055 101.978 566.86 101.978C571.573 101.978 575.362 98.1895 575.362 93.4766Z" fill="#4C6071"/>
<path d="M622.584 93.4767C622.584 89.041 618.98 85.437 614.544 85.437C610.108 85.437 606.504 89.041 606.504 93.4767C606.504 97.9124 610.108 101.516 614.544 101.516C618.98 101.424 622.584 97.9124 622.584 93.4767Z" fill="#4C6071"/>
<path d="M669.251 93.4767C669.251 89.5954 666.109 86.4535 662.228 86.4535C658.346 86.4535 655.204 89.5954 655.204 93.4767C655.204 97.3579 658.346 100.5 662.228 100.5C666.109 100.407 669.251 97.2655 669.251 93.4767Z" fill="#4C6071"/>
<path d="M712.684 93.4767C712.684 91.9982 711.482 90.7969 710.004 90.7969C708.525 90.7969 707.324 91.9982 707.324 93.4767C707.324 94.9553 708.525 96.1567 710.004 96.1567C711.482 96.0643 712.684 94.8629 712.684 93.4767Z" fill="#4C6071"/>
<path d="M764.064 93.4766C764.064 89.965 761.199 87.1927 757.78 87.1927C754.268 87.1927 751.496 90.0575 751.496 93.4766C751.496 96.9882 754.361 99.7606 757.78 99.7606C761.199 99.7606 764.064 96.8958 764.064 93.4766Z" fill="#4C6071"/>
<path d="M810.177 93.4767C810.177 90.7968 808.051 88.6714 805.371 88.6714C802.691 88.6714 800.566 90.7968 800.566 93.4767C800.566 96.1566 802.691 98.282 805.371 98.282C808.051 98.282 810.177 96.0642 810.177 93.4767Z" fill="#4C6071"/>
<path d="M860.448 93.4767C860.448 89.503 857.213 86.2687 853.24 86.2687C849.266 86.2687 846.032 89.503 846.032 93.4767C846.032 97.4503 849.266 100.685 853.24 100.685C857.121 100.685 860.448 97.4503 860.448 93.4767Z" fill="#4C6071"/>
<path d="M903.234 93.4766C903.234 92.1829 902.125 91.074 900.831 91.074C899.537 91.074 898.429 92.1829 898.429 93.4766C898.429 94.7704 899.537 95.8793 900.831 95.8793C902.217 95.8793 903.234 94.7704 903.234 93.4766Z" fill="#4C6071"/>
<path d="M957.294 93.4768C957.294 88.6715 953.413 84.7903 948.607 84.7903C943.802 84.7903 939.921 88.6715 939.921 93.4768C939.921 98.2822 943.802 102.163 948.607 102.163C953.32 102.163 957.294 98.2822 957.294 93.4768Z" fill="#4C6071"/>
<path d="M998.139 93.4766C998.139 92.4601 997.308 91.6284 996.291 91.6284C995.275 91.6284 994.443 92.4601 994.443 93.4766C994.443 94.4931 995.275 95.3248 996.291 95.3248C997.308 95.2324 998.139 94.4931 998.139 93.4766Z" fill="#4C6071"/>
<path d="M1046.93 93.4767C1046.93 91.9058 1045.64 90.5197 1043.97 90.5197C1042.4 90.5197 1041.02 91.8134 1041.02 93.4767C1041.02 95.0477 1042.31 96.3415 1043.97 96.3415C1045.64 96.3415 1046.93 95.0477 1046.93 93.4767Z" fill="#4C6071"/>
<path d="M1096.65 93.4767C1096.65 90.7968 1094.43 88.579 1091.75 88.579C1089.07 88.579 1086.85 90.7968 1086.85 93.4767C1086.85 96.1566 1089.07 98.3745 1091.75 98.3745C1094.43 98.3745 1096.65 96.1566 1096.65 93.4767Z" fill="#4C6071"/>
<path d="M1140.36 93.4767C1140.36 92.9223 1139.9 92.5526 1139.43 92.5526C1138.88 92.5526 1138.51 93.0147 1138.51 93.4767C1138.51 94.0312 1138.97 94.4008 1139.43 94.4008C1139.99 94.4008 1140.36 94.0312 1140.36 93.4767Z" fill="#4C6071"/>
<path d="M1194.23 93.4768C1194.23 89.5031 1191 86.3612 1187.12 86.3612C1183.14 86.3612 1180 89.5955 1180 93.4768C1180 97.4504 1183.24 100.592 1187.12 100.592C1191.09 100.592 1194.23 97.358 1194.23 93.4768Z" fill="#4C6071"/>
<path d="M1243.77 93.4767C1243.77 88.579 1239.79 84.6053 1234.89 84.6053C1230 84.6053 1226.02 88.579 1226.02 93.4767C1226.02 98.3745 1230 102.348 1234.89 102.348C1239.79 102.348 1243.77 98.3745 1243.77 93.4767Z" fill="#4C6071"/>
<path d="M1283.87 93.4768C1283.87 92.7375 1283.32 92.1831 1282.58 92.1831C1281.84 92.1831 1281.28 92.7375 1281.28 93.4768C1281.28 94.2161 1281.84 94.7706 1282.58 94.7706C1283.32 94.7706 1283.87 94.2161 1283.87 93.4768Z" fill="#4C6071"/>
<path d="M1336.73 93.4767C1336.73 89.9652 1333.87 87.1005 1330.35 87.1005C1326.84 87.1005 1323.98 89.9652 1323.98 93.4767C1323.98 96.9883 1326.84 99.8531 1330.35 99.8531C1333.87 99.8531 1336.73 96.9883 1336.73 93.4767Z" fill="#4C6071"/>
<path d="M1386.36 93.4767C1386.36 88.8562 1382.66 85.1598 1378.04 85.1598C1373.42 85.1598 1369.72 88.8562 1369.72 93.4767C1369.72 98.0972 1373.42 101.794 1378.04 101.794C1382.66 101.794 1386.36 98.0972 1386.36 93.4767Z" fill="#4C6071"/>
<path d="M1427.76 93.4767C1427.76 92.3678 1426.83 91.4437 1425.72 91.4437C1424.61 91.4437 1423.69 92.3678 1423.69 93.4767C1423.69 94.5856 1424.61 95.5097 1425.72 95.5097C1426.83 95.5097 1427.76 94.5856 1427.76 93.4767Z" fill="#4C6071"/>
<path d="M1.49365 35.443C1.49365 31.4693 -1.74076 28.235 -5.7144 28.235C-9.68805 28.235 -12.9223 31.4693 -12.9223 35.443C-12.9223 39.4166 -9.68805 42.651 -5.7144 42.651C-1.74076 42.7434 1.49365 39.4166 1.49365 35.443Z" fill="#4C6071"/>
<path d="M45.5732 35.443C45.5732 33.5023 44.0022 31.839 41.9692 31.839C40.0286 31.839 38.3653 33.4099 38.3653 35.443C38.3653 37.3836 39.9362 39.047 41.9692 39.047C43.9098 39.047 45.5732 37.3836 45.5732 35.443Z" fill="#4C6071"/>
<path d="M95.0128 35.4431C95.0128 32.4859 92.6102 30.1757 89.7455 30.1757C86.7883 30.1757 84.478 32.5783 84.478 35.4431C84.478 38.4002 86.8808 40.7105 89.7455 40.7105C92.6102 40.8029 95.0128 38.4002 95.0128 35.4431Z" fill="#4C6071"/>
<path d="M139.37 35.443C139.37 34.4265 138.538 33.5024 137.429 33.5024C136.32 33.5024 135.489 34.3341 135.489 35.443C135.489 36.4596 136.32 37.3837 137.429 37.3837C138.446 37.3837 139.37 36.552 139.37 35.443Z" fill="#4C6071"/>
<path d="M191.767 35.443C191.767 31.7466 188.809 28.7894 185.113 28.7894C181.417 28.7894 178.459 31.7466 178.459 35.443C178.459 39.1394 181.417 42.0965 185.113 42.0965C188.809 42.0965 191.767 39.1394 191.767 35.443Z" fill="#4C6071"/>
<path d="M241.206 35.443C241.206 30.8225 237.417 27.0337 232.889 27.0337C228.269 27.0337 224.48 30.8225 224.48 35.443C224.48 40.0635 228.269 43.7599 232.889 43.7599C237.51 43.8524 241.206 40.0635 241.206 35.443Z" fill="#4C6071"/>
<path d="M286.118 35.4431C286.118 32.3935 283.622 29.8984 280.573 29.8984C277.523 29.8984 275.028 32.3935 275.028 35.4431C275.028 38.4926 277.523 40.9877 280.573 40.9877C283.622 40.9877 286.118 38.4926 286.118 35.4431Z" fill="#4C6071"/>
<path d="M334.633 35.4429C334.633 31.9313 331.768 29.0667 328.257 29.0667C324.745 29.0667 321.88 31.9313 321.88 35.4429C321.88 38.9545 324.745 41.8193 328.257 41.8193C331.768 41.8193 334.633 38.9545 334.633 35.4429Z" fill="#4C6071"/>
<path d="M381.67 35.443C381.67 32.3011 379.082 29.806 376.033 29.806C372.891 29.806 370.396 32.3935 370.396 35.443C370.396 38.585 372.983 41.0801 376.033 41.0801C379.175 41.1725 381.67 38.585 381.67 35.443Z" fill="#4C6071"/>
<path d="M430.37 35.443C430.37 31.7466 427.413 28.7894 423.716 28.7894C420.02 28.7894 417.063 31.7466 417.063 35.443C417.063 39.1394 420.02 42.0965 423.716 42.0965C427.413 42.0965 430.37 39.1394 430.37 35.443Z" fill="#4C6071"/>
<path d="M478.793 35.443C478.793 31.3769 475.466 28.0502 471.4 28.0502C467.334 28.0502 464.007 31.3769 464.007 35.443C464.007 39.5091 467.334 42.8358 471.4 42.8358C475.466 42.8358 478.793 39.5091 478.793 35.443Z" fill="#4C6071"/>
<path d="M526.754 35.443C526.754 31.2846 523.335 27.8654 519.176 27.8654C515.018 27.8654 511.599 31.2846 511.599 35.443C511.599 39.6015 515.018 43.0207 519.176 43.0207C523.335 43.0207 526.754 39.6015 526.754 35.443Z" fill="#4C6071"/>
<path d="M571.85 35.443C571.85 32.6707 569.632 30.4529 566.86 30.4529C564.088 30.4529 561.87 32.6707 561.87 35.443C561.87 38.2153 564.088 40.4332 566.86 40.4332C569.632 40.4332 571.85 38.2153 571.85 35.443Z" fill="#4C6071"/>
<path d="M615.56 35.443C615.56 34.8886 615.098 34.5189 614.636 34.5189C614.082 34.5189 613.712 34.981 613.712 35.443C613.712 35.9975 614.174 36.3671 614.636 36.3671C615.098 36.4595 615.56 35.9975 615.56 35.443Z" fill="#4C6071"/>
<path d="M664.723 35.4431C664.723 34.1493 663.614 33.0404 662.32 33.0404C661.026 33.0404 659.917 34.1493 659.917 35.4431C659.917 36.7368 661.026 37.8458 662.32 37.8458C663.614 37.8458 664.723 36.7368 664.723 35.4431Z" fill="#4C6071"/>
<path d="M715.918 35.443C715.918 32.2087 713.238 29.5288 710.004 29.5288C706.769 29.5288 704.09 32.2087 704.09 35.443C704.09 38.6774 706.769 41.3573 710.004 41.3573C713.238 41.3573 715.918 38.6774 715.918 35.443Z" fill="#4C6071"/>
<path d="M759.721 35.443C759.721 34.3341 758.797 33.5024 757.78 33.5024C756.671 33.5024 755.839 34.4265 755.839 35.443C755.839 36.552 756.763 37.3837 757.78 37.3837C758.797 37.4761 759.721 36.552 759.721 35.443Z" fill="#4C6071"/>
<path d="M808.144 35.4431C808.144 33.9645 806.942 32.7632 805.464 32.7632C803.985 32.7632 802.784 33.9645 802.784 35.4431C802.784 36.9216 803.985 38.123 805.464 38.123C806.942 38.123 808.144 36.9216 808.144 35.4431Z" fill="#4C6071"/>
<path d="M860.078 35.443C860.078 31.6542 856.936 28.5122 853.148 28.5122C849.359 28.5122 846.217 31.6542 846.217 35.443C846.217 39.2318 849.359 42.3738 853.148 42.3738C856.936 42.3738 860.078 39.2318 860.078 35.443Z" fill="#4C6071"/>
<path d="M901.848 35.443C901.848 34.8886 901.386 34.5189 900.924 34.5189C900.369 34.5189 899.999 34.981 899.999 35.443C899.999 35.9975 900.462 36.3671 900.924 36.3671C901.386 36.3671 901.848 35.9975 901.848 35.443Z" fill="#4C6071"/>
<path d="M954.429 35.4431C954.429 32.2087 951.842 29.6212 948.607 29.6212C945.373 29.6212 942.786 32.2087 942.786 35.4431C942.786 38.6774 945.373 41.2649 948.607 41.2649C951.749 41.2649 954.429 38.6774 954.429 35.4431Z" fill="#4C6071"/>
<path d="M998.139 35.4429C998.139 34.4264 997.308 33.5947 996.291 33.5947C995.275 33.5947 994.443 34.4264 994.443 35.4429C994.443 36.4594 995.275 37.2911 996.291 37.2911C997.308 37.2911 998.139 36.4594 998.139 35.4429Z" fill="#4C6071"/>
<path d="M1048.5 35.4431C1048.5 32.948 1046.47 30.915 1043.97 30.915C1041.48 30.915 1039.45 32.948 1039.45 35.4431C1039.45 37.9382 1041.48 39.9712 1043.97 39.9712C1046.47 39.9712 1048.5 37.9382 1048.5 35.4431Z" fill="#4C6071"/>
<path d="M1096.83 35.443C1096.83 32.5783 1094.52 30.2681 1091.66 30.2681C1088.79 30.2681 1086.48 32.5783 1086.48 35.443C1086.48 38.3077 1088.79 40.618 1091.66 40.618C1094.52 40.618 1096.83 38.3077 1096.83 35.443Z" fill="#4C6071"/>
<path d="M1144.61 35.443C1144.61 32.5783 1142.3 30.2681 1139.43 30.2681C1136.57 30.2681 1134.26 32.5783 1134.26 35.443C1134.26 38.3077 1136.57 40.618 1139.43 40.618C1142.3 40.618 1144.61 38.3077 1144.61 35.443Z" fill="#4C6071"/>
<path d="M1189.8 35.4431C1189.8 33.9645 1188.6 32.7632 1187.12 32.7632C1185.64 32.7632 1184.44 33.9645 1184.44 35.4431C1184.44 36.9216 1185.64 38.123 1187.12 38.123C1188.6 38.123 1189.8 36.9216 1189.8 35.4431Z" fill="#4C6071"/>
<path d="M1242.29 35.443C1242.29 31.3769 1238.96 28.0502 1234.89 28.0502C1230.83 28.0502 1227.5 31.3769 1227.5 35.443C1227.5 39.5091 1230.83 42.8358 1234.89 42.8358C1238.96 42.8358 1242.29 39.5091 1242.29 35.443Z" fill="#4C6071"/>
<path d="M1285.17 35.4431C1285.17 34.0569 1284.06 32.8556 1282.58 32.8556C1281.19 32.8556 1279.99 34.0569 1279.99 35.4431C1279.99 36.8292 1281.19 38.0305 1282.58 38.0305C1283.96 38.0305 1285.17 36.9216 1285.17 35.4431Z" fill="#4C6071"/>
<path d="M1333.87 35.443C1333.87 33.5023 1332.3 31.839 1330.26 31.839C1328.32 31.839 1326.66 33.4099 1326.66 35.443C1326.66 37.3836 1328.23 39.047 1330.26 39.047C1332.3 39.047 1333.87 37.476 1333.87 35.443Z" fill="#4C6071"/>
<path d="M1386.08 35.443C1386.08 31.0073 1382.47 27.4033 1378.04 27.4033C1373.6 27.4033 1370 31.0073 1370 35.443C1370 39.8787 1373.6 43.4827 1378.04 43.4827C1382.47 43.4827 1386.08 39.8787 1386.08 35.443Z" fill="#4C6071"/>
<path d="M1431.45 35.4431C1431.45 32.3011 1428.86 29.7136 1425.72 29.7136C1422.58 29.7136 1419.99 32.3011 1419.99 35.4431C1419.99 38.585 1422.58 41.1725 1425.72 41.1725C1428.86 41.1725 1431.45 38.585 1431.45 35.4431Z" fill="#4C6071"/>
</svg>
